<?xml version="1.0" encoding="UTF-8"?>
<svg version="1.1" xmlns="http://www.w3.org/2000/svg" width="1024" height="1024">
<path d="M0 0 C30.74828281 5.66749642 59.7144759 21.0225095 85 39 C85.98484375 39.68320313 86.9696875 40.36640625 87.984375 41.0703125 C94.34012143 45.56446456 100.35289801 50.46936365 106.34423828 55.43334961 C109.26654064 57.8433192 112.13609015 60.09002887 115.30078125 62.18359375 C117.67997376 63.78464226 119.15293318 65.07167392 120.875 67.3125 C124.92957838 72.27641654 129.67150105 76.44766737 135 80 C135.67429959 81.32948948 136.34031272 82.66319975 137 84 C138.14284013 85.2305401 139.33601807 86.41530579 140.5625 87.5625 C144.97713112 91.88219282 148.87059798 96.49156764 152.69140625 101.34082031 C153.60357899 102.49737366 154.52063346 103.65008636 155.44140625 104.79980469 C184.10212888 140.66235851 221.46402076 200.11790942 220 248 C220.99 248.33 221.98 248.66 223 249 C222.34 249 221.68 249 221 249 C221.19335938 250.20011719 221.38671875 251.40023437 221.5859375 252.63671875 C234.63899407 335.30327897 216.1231144 419.9228096 167.05078125 488.14453125 C160.46132341 497.13633936 153.37924403 505.65008121 146 514 C145.21882813 514.89332031 144.43765625 515.78664063 143.6328125 516.70703125 C135.63839177 525.73987318 127.27871973 534.21261723 117.8359375 541.734375 C115.81664993 543.34757994 113.82598796 544.9745146 111.8515625 546.640625 C111.32361084 547.08591553 110.79565918 547.53120605 110.25170898 547.98999023 C108.77506838 549.23846255 107.29960615 550.48832821 105.82421875 551.73828125 C103 554 103 554 99.64453125 556.16796875 C98.77183594 556.77253906 97.89914062 557.37710938 97 558 C97 558.66 97 559.32 97 560 C96.05125 560.350625 95.1025 560.70125 94.125 561.0625 C91.0592912 562.38069432 88.50755971 563.97484551 85.8125 565.9375 C67.32507781 579.1706022 43.30953163 594.7975494 21 600 C19.69618423 600.45044219 18.39925978 600.92124831 17.109375 601.41015625 C16.40039062 601.67763672 15.69140625 601.94511719 14.9609375 602.22070312 C14.23132813 602.49849609 13.50171875 602.77628906 12.75 603.0625 C12.00492188 603.34416016 11.25984375 603.62582031 10.4921875 603.91601562 C8.66070607 604.6086913 6.83025077 605.30407907 5 606 C5 606.66 5 607.32 5 608 C4.34 608 3.68 608 3 608 C3 607.34 3 606.68 3 606 C2.01 606 1.02 606 0 606 C-0.33 606.66 -0.66 607.32 -1 608 C-3.52520353 608.78819663 -5.99330743 609.45649314 -8.5625 610.0625 C-9.25408203 610.23587891 -9.94566406 610.40925781 -10.65820312 610.58789062 C-15.42209825 611.74667593 -20.12664764 612.46826189 -25 613 C-25.33 613.99 -25.66 614.98 -26 616 C-26 615.34 -26 614.68 -26 614 C-27.08547119 614.21148682 -27.08547119 614.21148682 -28.19287109 614.42724609 C-31.58553825 615.08383931 -34.98022216 615.72941191 -38.375 616.375 C-39.51195312 616.59671875 -40.64890625 616.8184375 -41.8203125 617.046875 C-57.81686911 620.06844681 -73.41920884 621.31715616 -89.68579102 621.20581055 C-92.43189872 621.18753727 -95.17766573 621.18530218 -97.92382812 621.18554688 C-109.64309498 621.16160838 -121.30422374 620.73019826 -133 620 C-133 619.34 -133 618.68 -133 618 C-134.5159375 618.0309375 -134.5159375 618.0309375 -136.0625 618.0625 C-140.97921819 617.98445685 -145.65363053 617.21638081 -150.5 616.4375 C-154.03852676 615.99518416 -157.43795901 615.92730529 -161 616 C-160.67 615.34 -160.34 614.68 -160 614 C-165.0247239 613.37470103 -169.92528427 612.86987908 -175 613 C-175.33 612.01 -175.66 611.02 -176 610 C-178.69924782 608.70186987 -178.69924782 608.70186987 -182.0546875 607.66015625 C-182.67086945 607.45192734 -183.28705139 607.24369843 -183.92190552 607.02915955 C-185.90271329 606.36236424 -187.88848381 605.71206767 -189.875 605.0625 C-191.17485362 604.62937737 -192.4743377 604.19514403 -193.7734375 603.75976562 C-196.31313291 602.90927736 -198.85317132 602.05986259 -201.39355469 601.21142578 C-204.72857154 600.09117439 -208.06139608 598.96856432 -211.3828125 597.80859375 C-212.25566895 597.50622803 -213.12852539 597.2038623 -214.02783203 596.89233398 C-216 596 -216 596 -217 594 C-218.98738961 593.29663169 -220.99075367 592.63825829 -223 592 C-250.44304249 580.43385046 -276.24730631 563.29012422 -298.70703125 543.80078125 C-300.77622511 541.79411866 -300.77622511 541.79411866 -303 542 C-304.375 540.56640625 -304.375 540.56640625 -306 538.5625 C-308.64426872 535.45318606 -311.36660704 532.68767866 -314.4375 530 C-324.73443749 520.89964851 -334.61261576 511.21006258 -343.109375 500.39453125 C-344.9361594 498.08085597 -346.84522769 495.88208319 -348.8125 493.6875 C-351.53539312 490.59012974 -353.98586315 487.60866186 -356 484 C-355.67 483.01 -355.34 482.02 -355 481 C-355 481.66 -355 482.32 -355 483 C-354.26982666 483.26345215 -353.53965332 483.5269043 -352.78735352 483.79833984 C-349.97986338 485.00868113 -347.85198039 486.40921467 -345.40234375 488.2265625 C-340.01504656 492.07705075 -334.40042588 495.26274246 -328.5625 498.375 C-327.51843994 498.93517822 -326.47437988 499.49535645 -325.39868164 500.07250977 C-316.07608765 505.03399699 -306.64872501 509.70730193 -297 514 C-296.29456055 514.31614258 -295.58912109 514.63228516 -294.86230469 514.95800781 C-292.85394653 515.84716872 -290.83686547 516.7104995 -288.8125 517.5625 C-287.68457031 518.03816406 -286.55664062 518.51382813 -285.39453125 519.00390625 C-282.41499848 519.87822254 -280.70546796 520.07242728 -277.69921875 519.96484375 C-275.86810547 519.98224609 -275.86810547 519.98224609 -274 520 C-273.01 521.485 -273.01 521.485 -272 523 C-271.34 522.67 -270.68 522.34 -270 522 C-270 522.99 -270 523.98 -270 525 C-269.43796875 525.08636719 -268.8759375 525.17273438 -268.296875 525.26171875 C-262.92985148 526.15896655 -257.69912121 527.31887777 -252.44750977 528.72705078 C-227.96252032 535.2091617 -204.16265376 536.61412654 -179 536 C-179 536.33 -179 536.66 -179 537 C-142.01844122 538.15367081 -104.74360489 529.69039408 -69.8125 518.1875 C-68.05558838 517.60983887 -68.05558838 517.60983887 -66.26318359 517.02050781 C-65.19277832 516.65666992 -64.12237305 516.29283203 -63.01953125 515.91796875 C-62.07182861 515.59594482 -61.12412598 515.2739209 -60.14770508 514.94213867 C-57.83352104 514.1998992 -57.83352104 514.1998992 -57 512 C-56.15695312 511.86335938 -55.31390625 511.72671875 -54.4453125 511.5859375 C-50.22814815 510.86873268 -46.75396108 509.38101039 -42.875 507.625 C-42.09656738 507.2748584 -41.31813477 506.9247168 -40.51611328 506.56396484 C-14.9559406 494.82917512 9.80779354 479.41209316 30.76220703 460.60595703 C34.8065113 457 34.8065113 457 37 457 C37 456.34 37 455.68 37 455 C38.43359375 453.58984375 38.43359375 453.58984375 40.4375 451.9375 C48.73060884 445.31188514 48.73060884 445.31188514 55 437 C55.66 437 56.32 437 57 437 C57.25136719 436.42507813 57.50273438 435.85015625 57.76171875 435.2578125 C59.16247136 432.70375885 60.78840058 430.97044986 62.8125 428.875 C80.57620128 409.4059834 111 370.32000652 111 343 C111.66 343 112.32 343 113 343 C113.2475 341.80375 113.495 340.6075 113.75 339.375 C114.94718106 333.90960819 116.56648515 328.58453783 118.1953125 323.234375 C118.92053204 320.3194149 119.16807778 317.98057927 119 315 C119.66 315 120.32 315 121 315 C121.12375 313.79472656 121.2475 312.58945312 121.375 311.34765625 C121.8097187 307.42370773 122.3513345 303.52520983 122.9375 299.62109375 C125.25953619 284.04283509 126.73717495 268.74533547 127 253 C127.03962376 251.58852068 127.07992122 250.17706 127.12109375 248.765625 C127.54381057 224.39724384 123.84413369 199.64303611 118.4375 175.9375 C118.23987061 175.04466309 118.04224121 174.15182617 117.83862305 173.23193359 C117.33039649 171.12657316 116.67851254 169.0568076 116 167 C115.01 166.67 114.02 166.34 113 166 C113.21140625 165.33226562 113.4228125 164.66453125 113.640625 163.9765625 C114.11285922 160.0652312 113.03484966 157.00949184 111.75 153.375 C111.53214844 152.70726562 111.31429688 152.03953125 111.08984375 151.3515625 C109.89129597 147.84703682 108.77629556 145.45014049 106 143 C105.64386903 141.33805547 105.30791692 139.671549 105 138 C104.34 137.67 103.68 137.34 103 137 C103.185625 136.443125 103.37125 135.88625 103.5625 135.3125 C104.07551165 132.600867 103.6640724 130.65628961 103 128 C101.68 127.67 100.36 127.34 99 127 C99.66 126.34 100.32 125.68 101 125 C100.46890625 123.9378125 99.9378125 122.875625 99.390625 121.78125 C95.92708333 114.85416667 92.46354167 107.92708333 89 101 C88.34 101 87.68 101 87 101 C86.93296875 100.33742188 86.8659375 99.67484375 86.796875 98.9921875 C85.69563316 94.85713237 83.55945583 91.69597938 81.25 88.125 C80.81945312 87.44308594 80.38890625 86.76117188 79.9453125 86.05859375 C75.0027935 78.11408494 75.0027935 78.11408494 69 71 C68.11056472 69.84430065 67.23761425 68.67585406 66.375 67.5 C60.52150244 59.64809286 54.38500554 52.1812897 47.6875 45.03125 C46 43 46 43 46 41 C45.4534375 40.7834375 44.906875 40.566875 44.34375 40.34375 C40.64871257 38.22526187 37.97210915 35.05233308 35.06640625 31.98828125 C32.52270381 29.36002361 30.31554805 27.51630097 27 26 C25.88485721 24.61451956 24.77094359 23.22802721 23.6640625 21.8359375 C17.07541477 14.56677217 7.80105677 7.40052838 -1 3 C-0.67 2.01 -0.34 1.02 0 0 Z M105 135 C106 137 106 137 106 137 Z M106 138 C107 140 107 140 107 140 Z M-200 537 C-200 537.33 -200 537.66 -200 538 C-197.69 538 -195.38 538 -193 538 C-193 537.67 -193 537.34 -193 537 C-195.31 537 -197.62 537 -200 537 Z M-191 537 C-191 537.33 -191 537.66 -191 538 C-189.02 538 -187.04 538 -185 538 C-185 537.67 -185 537.34 -185 537 C-186.98 537 -188.96 537 -191 537 Z " fill="#FCFCFC" transform="translate(593,184)"/>
<path d="M0 0 C6.27 0 12.54 0 19 0 C19 0.66 19 1.32 19 2 C19.60585938 1.98839844 20.21171875 1.97679687 20.8359375 1.96484375 C21.67382812 1.95582031 22.51171875 1.94679688 23.375 1.9375 C24.18710937 1.92589844 24.99921875 1.91429687 25.8359375 1.90234375 C33.81261535 2.14853751 41.07333458 3.29730496 48.6875 5.6875 C49.9883252 6.09005005 49.9883252 6.09005005 51.31542969 6.50073242 C76.20106784 14.34571658 97.27601293 26.85570293 116 45 C117.15628906 46.08667969 117.15628906 46.08667969 118.3359375 47.1953125 C120 49 120 49 120 51 C120.66 51 121.32 51 122 51 C123.29345703 52.35424805 123.29345703 52.35424805 124.7578125 54.26171875 C125.56665894 55.31178101 125.56665894 55.31178101 126.3918457 56.38305664 C126.96378662 57.14352295 127.53572754 57.90398926 128.125 58.6875 C128.71176514 59.46407959 129.29853027 60.24065918 129.90307617 61.04077148 C139.59939431 74.02216642 149.89705066 89.15591408 153.234375 105.27734375 C153.48703125 105.84582031 153.7396875 106.41429687 154 107 C156.01623575 107.81723904 156.01623575 107.81723904 158 108 C157.34 108.33 156.68 108.66 156 109 C156.25394531 110.05574219 156.50789063 111.11148438 156.76953125 112.19921875 C167.49380814 157.8401106 163.97334521 203.97827092 139.56640625 244.9609375 C132.4852748 256.36091869 124.04301814 266.48506564 114.31762695 275.71142578 C112.84775732 277.10940531 111.41940142 278.55080605 110 280 C110 280.66 110 281.32 110 282 C109.18595703 282.11021484 109.18595703 282.11021484 108.35546875 282.22265625 C105.07231995 283.3061498 102.98223346 285.24633591 100.3125 287.4375 C86.77380486 298.13909196 72.10907254 305.02783895 56 311 C54.89809326 311.42176514 54.89809326 311.42176514 53.77392578 311.85205078 C46.57039918 314.60599777 40.15536829 315.43233249 32.5 316.0625 C30.96085937 316.19881836 30.96085937 316.19881836 29.390625 316.33789062 C17.69511112 317.31496559 6.25454157 317.02905861 -5.4375 316.125 C-6.58154297 316.04636719 -7.72558594 315.96773437 -8.90429688 315.88671875 C-10.00708984 315.80292969 -11.10988281 315.71914063 -12.24609375 315.6328125 C-13.72613892 315.52283936 -13.72613892 315.52283936 -15.23608398 315.41064453 C-18.10146426 314.9849251 -20.3535343 314.15495022 -23 313 C-27.54865446 311.16059507 -27.54865446 311.16059507 -32 312 C-32 311.34 -32 310.68 -32 310 C-32.66 310 -33.32 310 -34 310 C-34.33 310.66 -34.66 311.32 -35 312 C-35.99 311.34 -36.98 310.68 -38 310 C-37.34 309.67 -36.68 309.34 -36 309 C-36.5561499 308.82984375 -37.1122998 308.6596875 -37.68530273 308.484375 C-43.09812066 306.76416831 -48.06230774 304.6848559 -53.0625 302 C-53.78348877 301.61626221 -54.50447754 301.23252441 -55.24731445 300.8371582 C-62.6231545 296.81594165 -69.4603733 292.08916771 -76.28808594 287.21142578 C-80.06221056 284.54068899 -83.7943807 281.94105506 -88 280 C-88 278.68 -88 277.36 -88 276 C-89.32 275.34 -90.64 274.68 -92 274 C-92 273.34 -92 272.68 -92 272 C-93.32 271.34 -94.64 270.68 -96 270 C-96 269.34 -96 268.68 -96 268 C-96.804375 267.731875 -97.60875 267.46375 -98.4375 267.1875 C-99.283125 266.795625 -100.12875 266.40375 -101 266 C-101.495 264.515 -101.495 264.515 -102 263 C-102.66 263.33 -103.32 263.66 -104 264 C-104.36544922 262.69095703 -104.36544922 262.69095703 -104.73828125 261.35546875 C-106.1019361 257.72890678 -107.7868695 255.3411784 -110.1875 252.3125 C-117.02777588 243.45569486 -122.55380088 234.36218891 -127.24829102 224.21777344 C-128.09309132 222.44220236 -129.03976719 220.71589428 -130 219 C-130.99 218.67 -131.98 218.34 -133 218 C-134.125 212.25 -134.125 212.25 -133 210 C-133.40679888 208.02323856 -133.40679888 208.02323856 -134.1796875 205.82421875 C-134.44910156 204.99599609 -134.71851563 204.16777344 -134.99609375 203.31445312 C-135.28613281 202.44755859 -135.57617188 201.58066406 -135.875 200.6875 C-139.31308527 190.27120056 -139.31308527 190.27120056 -140 186 C-140.66 186 -141.32 186 -142 186 C-142.38218767 184.34385343 -142.71395102 182.67542976 -143 181 C-142.67 180.67 -142.34 180.34 -142 180 C-142.06485257 177.17301765 -142.19176086 174.38209223 -142.375 171.5625 C-142.41882813 170.77294922 -142.46265625 169.98339844 -142.5078125 169.16992188 C-142.67772007 164.94989189 -142.67772007 164.94989189 -144 161 C-144.09505069 159.56365857 -144.13072867 158.12307525 -144.1328125 156.68359375 C-144.13410156 155.83732422 -144.13539063 154.99105469 -144.13671875 154.11914062 C-144.13285156 153.23419922 -144.12898437 152.34925781 -144.125 151.4375 C-144.12886719 150.54869141 -144.13273438 149.65988281 -144.13671875 148.74414062 C-144.13542969 147.89916016 -144.13414062 147.05417969 -144.1328125 146.18359375 C-144.13168457 145.40556396 -144.13055664 144.62753418 -144.12939453 143.82592773 C-144 142 -144 142 -143 141 C-142.76270022 139.65424077 -142.58015504 138.29872954 -142.421875 136.94140625 C-140.05168203 117.88793865 -135.41814613 101.26905904 -127 84 C-126.44441406 82.84757812 -125.88882813 81.69515625 -125.31640625 80.5078125 C-115.55137777 61.3524329 -100.86990145 46.18986302 -85 32 C-84.34 31.34 -83.68 30.68 -83 30 C-79.63433477 27.91057695 -76.18181381 25.97296196 -72.74267578 24.00732422 C-71.024662 23.01425545 -69.32268403 21.99361042 -67.62109375 20.97265625 C-47.1355586 8.83049037 -23.8697819 1.6472446 0 2 C0 1.34 0 0.68 0 0 Z M-87 278 C-86 280 -86 280 -86 280 Z " fill="#FDFEFE" transform="translate(360,357)"/>
<path d="M0 0 C3.96 0 7.92 0 12 0 C12 0.33 12 0.66 12 1 C12.81863525 1.06993164 13.63727051 1.13986328 14.48071289 1.21191406 C31.1987208 2.6659588 47.66671773 4.44139866 64.15356445 7.68041992 C66.01613539 8.05684796 66.01613539 8.05684796 68 8 C68 8.66 68 9.32 68 10 C68.97582031 10.103125 69.95164062 10.20625 70.95703125 10.3125 C75.42785154 10.95807345 79.47481874 12.40888573 83.6875 14 C84.50331543 14.30542725 85.31913086 14.61085449 86.15966797 14.92553711 C92.38989138 17.30000118 98.52840762 19.86439446 104.625 22.5625 C105.42897217 22.91376953 106.23294434 23.26503906 107.0612793 23.62695312 C113.45142692 26.51800258 119.07624877 30.21260929 124.78125 34.26538086 C128.05319088 36.56516161 128.05319088 36.56516161 132 37 C132 37.99 132 38.98 132 40 C132.72316406 40.25007813 133.44632813 40.50015625 134.19140625 40.7578125 C138.90688826 42.84338034 142.49882674 46.32421757 146.39941406 49.64648438 C148.0312793 51.02645096 149.6816142 52.38144663 151.3359375 53.734375 C193.21358981 88.32895734 220.81686762 141.5271618 226.5625 195.4296875 C228.72521957 220.23891729 226.33149462 244.91344918 218.953125 268.71875 C217.86052688 271.91067385 217.86052688 271.91067385 218 275 C217.34 275 216.68 275 216 275 C216 276.98 216 278.96 216 281 C215.34 281 214.68 281 214 281 C213.82911865 281.61238525 213.6582373 282.22477051 213.48217773 282.85571289 C205.96172326 308.95405956 190.56301321 331.9833005 172.12890625 351.66015625 C169.98887598 353.92249582 169.98887598 353.92249582 168.33984375 356.30859375 C167.89769531 356.86675781 167.45554687 357.42492187 167 358 C166.34 358 165.68 358 165 358 C165 358.66 165 359.32 165 360 C162.539881 362.54694673 159.70911763 364.72332368 157 367 C156.18660156 367.72316406 155.37320313 368.44632813 154.53515625 369.19140625 C115.79047449 402.93318793 66.1454118 418.92190198 15.30249023 420.57128906 C11.20117187 420.62821156 11.20117187 420.62821156 8 423 C5.375 422.625 5.375 422.625 3 422 C3 421.67 3 421.34 3 421 C-1.01804691 420.15901344 -4.01803543 419.94595055 -8 421 C-8.495 419.515 -8.495 419.515 -9 418 C-4.89167036 415.19157153 -0.76817108 414.03478304 4 412.875 C24.89866166 407.39974465 46.03586526 397.43216978 63 384 C63.83789062 383.35289062 64.67578125 382.70578125 65.5390625 382.0390625 C80.65871165 370.37356309 80.65871165 370.37356309 93 356 C93.66 356 94.32 356 95 356 C95.25523437 355.43539063 95.51046875 354.87078125 95.7734375 354.2890625 C97.60806063 350.86521169 100.0937915 348.02762758 102.5390625 345.0234375 C104.19512542 343.14570006 104.19512542 343.14570006 104 341 C104.70511719 340.34128906 105.41023437 339.68257812 106.13671875 339.00390625 C110.00277403 335.27383603 112.2938845 330.63113557 114.8125 325.9375 C115.33730957 324.96304932 115.86211914 323.98859863 116.40283203 322.98461914 C131.02902984 295.29883589 139.16943649 264.34474475 140 233 C140.02046387 232.30455078 140.04092773 231.60910156 140.06201172 230.89257812 C141.01299107 194.14233464 132.6227908 157.34887996 115 125 C114.67 124.67 114.34 124.34 114 124 C113.01 124.495 113.01 124.495 112 125 C111.61781233 123.34385343 111.28604898 121.67542976 111 120 C111.33 119.67 111.66 119.34 112 119 C111.01 118.67 110.02 118.34 109 118 C108.896875 117.278125 108.79375 116.55625 108.6875 115.8125 C107.93206053 112.72206579 106.84468685 110.58256159 105 108 C104.34 108 103.68 108 103 108 C102.91621094 107.28457031 102.83242188 106.56914062 102.74609375 105.83203125 C101.83513413 102.37420024 100.32114565 100.44443637 98.0625 97.6875 C97.35222656 96.80449219 96.64195312 95.92148437 95.91015625 95.01171875 C95.27980469 94.34785156 94.64945313 93.68398438 94 93 C93.34 93 92.68 93 92 93 C91.77699219 92.29617188 91.55398438 91.59234375 91.32421875 90.8671875 C89.71033522 87.3728202 87.43982784 84.87385331 84.8125 82.125 C84.31564697 81.59688721 83.81879395 81.06877441 83.30688477 80.5246582 C82.3197369 79.47911251 81.32918682 78.43676662 80.33496094 77.39794922 C79.23518437 76.24628122 78.15061079 75.08011492 77.0703125 73.91015625 C73.11971966 69.74218629 68.75038108 66.61239424 63.94140625 63.48046875 C63.30074219 62.99191406 62.66007813 62.50335938 62 62 C62 61.34 62 60.68 62 60 C61.46117187 59.75121094 60.92234375 59.50242187 60.3671875 59.24609375 C56.39074724 57.1528851 52.77526091 54.5073716 49.0703125 51.97265625 C46.12309575 50.07908824 43.1588596 48.507433 40 47 C39.34 46.67 38.68 46.34 38 46 C37.34 46 36.68 46 36 46 C36 45.01 36 44.02 36 43 C35.16210938 42.74089844 34.32421875 42.48179687 33.4609375 42.21484375 C29.71989793 40.90167975 26.19108329 39.27953667 22.625 37.5625 C13.21032071 32.7817951 13.21032071 32.7817951 3 31 C2.67 30.67 2.34 30.34 2 30 C0.515 30.495 0.515 30.495 -1 31 C-1.34933594 30.54753906 -1.69867188 30.09507812 -2.05859375 29.62890625 C-4.7649524 27.35817877 -7.6967984 26.73124395 -11.0625 25.9375 C-11.7642334 25.76831055 -12.4659668 25.59912109 -13.18896484 25.42480469 C-28.70987048 21.87071246 -44.55908368 21.10838773 -60.37890625 22.77734375 C-64.58550693 23.13468539 -68.78209937 23.08234513 -73 23 C-69.51734157 18.8741065 -65.5374777 17.1407703 -60.6875 15.0625 C-59.89657959 14.71695068 -59.10565918 14.37140137 -58.29077148 14.01538086 C-50.99615792 10.88536301 -43.58005949 8.34548986 -36 6 C-35.01 5.67 -34.02 5.34 -33 5 C-31.43881572 4.93259135 -29.8749748 4.91485544 -28.3125 4.9375 C-27.10013672 4.95103516 -27.10013672 4.95103516 -25.86328125 4.96484375 C-24.94095703 4.98224609 -24.94095703 4.98224609 -24 5 C-23.67 4.34 -23.34 3.68 -23 3 C-20.43204018 2.70968286 -17.95151565 2.53165075 -15.375 2.4375 C-10.18272501 2.21278828 -5.1361335 1.81558025 0 1 C0 0.67 0 0.34 0 0 Z " fill="#FCFCFC" transform="translate(428,280)"/>
<path d="M0 0 C1.10169226 3.30507679 0.94120828 3.91214799 -0.109375 7.0703125 C-0.36831543 7.8742041 -0.62725586 8.6780957 -0.89404297 9.50634766 C-1.17650879 10.37050293 -1.45897461 11.2346582 -1.75 12.125 C-6.43215643 27.36299552 -8.26654083 41.19950438 -8.3125 57.125 C-8.31626648 57.84584778 -8.32003296 58.56669556 -8.32391357 59.30938721 C-8.36095283 73.31381144 -7.01991586 86.72987394 -3.125 100.25 C-2.73235962 101.65922729 -2.73235962 101.65922729 -2.33178711 103.09692383 C-0.69584991 108.8740934 1.11862304 114.52736737 3.43359375 120.07421875 C4 122 4 122 3 125 C1.0625 124.375 1.0625 124.375 -1 123 C-2.40540541 117.81081081 -2.40540541 117.81081081 -1 115 C-1.40679888 113.02323856 -1.40679888 113.02323856 -2.1796875 110.82421875 C-2.44910156 109.99599609 -2.71851563 109.16777344 -2.99609375 108.31445312 C-3.28613281 107.44755859 -3.57617188 106.58066406 -3.875 105.6875 C-7.31308527 95.27120056 -7.31308527 95.27120056 -8 91 C-8.66 91 -9.32 91 -10 91 C-10.38218767 89.34385343 -10.71395102 87.67542976 -11 86 C-10.505 85.505 -10.505 85.505 -10 85 C-10.06485257 82.17301765 -10.19176086 79.38209223 -10.375 76.5625 C-10.41882813 75.77294922 -10.46265625 74.98339844 -10.5078125 74.16992188 C-10.67772007 69.94989189 -10.67772007 69.94989189 -12 66 C-12.09505069 64.56365857 -12.13072867 63.12307525 -12.1328125 61.68359375 C-12.13410156 60.83732422 -12.13539063 59.99105469 -12.13671875 59.11914062 C-12.13285156 58.23419922 -12.12898437 57.34925781 -12.125 56.4375 C-12.12886719 55.54869141 -12.13273438 54.65988281 -12.13671875 53.74414062 C-12.13542969 52.89916016 -12.13414062 52.05417969 -12.1328125 51.18359375 C-12.13168457 50.40556396 -12.13055664 49.62753418 -12.12939453 48.82592773 C-12 47 -12 47 -11 46 C-10.76270022 44.65424077 -10.58015504 43.29872954 -10.421875 41.94140625 C-9.28733042 32.84614053 -7.98989061 23.96036747 -5.5 15.125 C-5.29858398 14.40771729 -5.09716797 13.69043457 -4.88964844 12.95141602 C-3.57193024 8.47106837 -1.91299733 4.25975569 0 0 Z " fill="#C5C6C6" transform="translate(228,452)"/>
<path d="M0 0 C3.96 0 7.92 0 12 0 C12 0.33 12 0.66 12 1 C12.86052979 1.07516846 13.72105957 1.15033691 14.60766602 1.2277832 C17.87931507 1.51759852 21.15011725 1.81492672 24.4206543 2.11694336 C25.82143464 2.24483861 27.22247233 2.36995347 28.6237793 2.49194336 C38.59155949 3.36228852 48.22405159 4.84139855 58 7 C58 7.33 58 7.66 58 8 C53.2054228 7.6139959 48.42646506 7.20759975 43.66503906 6.51464844 C32.84738879 4.94280362 22.16109562 4.62760508 11.23828125 4.62939453 C8.26764325 4.62502595 5.2985018 4.58857355 2.328125 4.55078125 C-10.57641616 4.47579914 -22.47228902 5.9512679 -35 9 C-36.42646509 9.33606241 -37.85297667 9.67192756 -39.27954102 10.00756836 C-47.04147485 11.88019353 -54.06248229 14.56249174 -61.26953125 17.92578125 C-62.62111328 18.45751953 -62.62111328 18.45751953 -64 19 C-64.66 18.67 -65.32 18.34 -66 18 C-56.36730347 12.67368545 -46.46111473 9.29390997 -36 6 C-35.01 5.67 -34.02 5.34 -33 5 C-31.43881572 4.93259135 -29.8749748 4.91485544 -28.3125 4.9375 C-27.10013672 4.95103516 -27.10013672 4.95103516 -25.86328125 4.96484375 C-24.94095703 4.98224609 -24.94095703 4.98224609 -24 5 C-23.67 4.34 -23.34 3.68 -23 3 C-20.43204018 2.70968286 -17.95151565 2.53165075 -15.375 2.4375 C-10.18272501 2.21278828 -5.1361335 1.81558025 0 1 C0 0.67 0 0.34 0 0 Z " fill="#C9CAC9" transform="translate(428,280)"/>
<path d="M0 0 C2.14599243 0.14347318 4.29178669 0.28991125 6.4375 0.4375 C7.63246094 0.51871094 8.82742188 0.59992187 10.05859375 0.68359375 C12.69158087 0.89496338 15.31976104 1.178063 17.9375 1.53125 C25.10774498 2.35177916 32.35625188 2.10466041 39.5625 2.0625 C41.06314955 2.0574746 42.56380072 2.05291353 44.06445312 2.04882812 C47.70966977 2.03790576 51.35482422 2.02069856 55 2 C55 2.33 55 2.66 55 3 C64.70226636 3.30267035 74.17632849 2.65496151 83.82641602 1.71142578 C89.25086471 1.19065643 94.5502956 0.8969323 100 1 C100 1.33 100 1.66 100 2 C98.08428078 2.31825658 96.16734583 2.62919439 94.25 2.9375 C93.18265625 3.11152344 92.1153125 3.28554688 91.015625 3.46484375 C78.13829732 5.27271175 65.22736668 5.23909561 52.25 5.25 C51.20451996 5.25167175 50.15903992 5.25334351 49.08187866 5.25506592 C9.72438705 5.25884437 9.72438705 5.25884437 0 0 Z M34 3 C34 3.33 34 3.66 34 4 C36.31 4 38.62 4 41 4 C41 3.67 41 3.34 41 3 C38.69 3 36.38 3 34 3 Z M43 3 C43 3.33 43 3.66 43 4 C44.98 4 46.96 4 49 4 C49 3.67 49 3.34 49 3 C47.02 3 45.04 3 43 3 Z " fill="#C9CACA" transform="translate(359,718)"/>
<path d="M0 0 C4.07562427 1.69817678 7.20081956 4.51679688 10.5 7.375 C11.11222412 7.90230713 11.72444824 8.42961426 12.35522461 8.97290039 C18.535485 14.35998081 24.28334325 20.12999031 30 26 C30.84433594 26.84175781 31.68867187 27.68351562 32.55859375 28.55078125 C46.23120937 42.26714924 57.52729968 57.75904037 68 74 C67.67 74.66 67.34 75.32 67 76 C66.67725098 75.52578613 66.35450195 75.05157227 66.02197266 74.56298828 C64.55854161 72.41546505 63.09181324 70.27021436 61.625 68.125 C61.11710938 67.37863281 60.60921875 66.63226563 60.0859375 65.86328125 C59.59609375 65.14785156 59.10625 64.43242187 58.6015625 63.6953125 C58.15119629 63.03547363 57.70083008 62.37563477 57.23681641 61.69580078 C55.96957814 59.86649295 55.96957814 59.86649295 54 58 C53.11056472 56.84430065 52.23761425 55.67585406 51.375 54.5 C45.52150244 46.64809286 39.38500554 39.1812897 32.6875 32.03125 C31 30 31 30 31 28 C30.4534375 27.7834375 29.906875 27.566875 29.34375 27.34375 C25.64871257 25.22526187 22.97210915 22.05233308 20.06640625 18.98828125 C17.52098274 16.35824532 15.31276416 14.52344035 12 13 C10.79544465 11.56755579 9.59428768 10.13144557 8.4375 8.66015625 C6.3180701 6.21244509 3.86315742 4.23638162 1.35546875 2.19921875 C0.90816406 1.80347656 0.46085938 1.40773437 0 1 C0 0.67 0 0.34 0 0 Z " fill="#C6C6C6" transform="translate(608,197)"/>
<path d="M0 0 C6.27 0 12.54 0 19 0 C19 0.66 19 1.32 19 2 C19.92619141 1.96519531 19.92619141 1.96519531 20.87109375 1.9296875 C26.87882303 1.80166892 32.20249382 2.43159253 38 4 C38 4.33 38 4.66 38 5 C37.33677734 4.92998779 36.67355469 4.85997559 35.99023438 4.7878418 C27.58254156 3.98633298 19.2378949 3.81379754 10.80029297 3.81469727 C8.50339407 3.81250324 6.20697129 3.7942491 3.91015625 3.77539062 C-3.73480236 3.74729627 -10.97549617 4.0271947 -18.50195312 5.5690918 C-21.05088721 6.00877794 -23.41886088 6.07334099 -26 6 C-19.10396152 0.15404011 -8.56579809 1.8675392 0 2 C0 1.34 0 0.68 0 0 Z " fill="#C5C6C5" transform="translate(360,357)"/>
<path d="M0 0 C2 0 2 0 3.41015625 1.3984375 C4.22806641 2.37683594 4.22806641 2.37683594 5.0625 3.375 C5.69027344 4.11105469 6.31804687 4.84710937 6.96484375 5.60546875 C7.63644531 6.39566406 8.30804688 7.18585937 9 8 C18.29180354 18.66836702 28.15007706 28.90312138 39 38 C40.33408315 39.14496025 41.66744606 40.29076036 43 41.4375 C43.99 42.283125 44.98 43.12875 46 44 C43 44 43 44 40 43 C38.52734375 41.46875 38.52734375 41.46875 36.9375 39.5 C34.3150888 36.40968971 31.61163829 33.66927931 28.5625 31 C7.12554081 12.06182746 7.12554081 12.06182746 0 1 C0 0.67 0 0.34 0 0 Z " fill="#C2C3C3" transform="translate(250,683)"/>
<path d="M0 0 C12.87 0 25.74 0 39 0 C39 0.33 39 0.66 39 1 C38.25314941 1.0501123 37.50629883 1.10022461 36.73681641 1.15185547 C33.36547942 1.3834019 29.99531318 1.62901854 26.625 1.875 C24.8615625 1.99294922 24.8615625 1.99294922 23.0625 2.11328125 C21.38027344 2.23896484 21.38027344 2.23896484 19.6640625 2.3671875 C18.10872803 2.47716064 18.10872803 2.47716064 16.52197266 2.58935547 C13.83585452 2.77462799 13.83585452 2.77462799 12 5 C9.375 4.625 9.375 4.625 7 4 C7 3.67 7 3.34 7 3 C4.69 2.34 2.38 1.68 0 1 C0 0.67 0 0.34 0 0 Z " fill="#D8D8D8" transform="translate(424,698)"/>
<path d="M0 0 C0.99 0.33 1.98 0.66 3 1 C2.01 1.495 2.01 1.495 1 2 C2.02996094 1.83757812 3.05992187 1.67515625 4.12109375 1.5078125 C10.41503788 0.72366714 16.73008081 0.85520088 23.0625 0.875 C24.92358398 0.86919922 24.92358398 0.86919922 26.82226562 0.86328125 C32.64621764 0.86951341 38.26790416 0.92682901 44 2 C44 2.33 44 2.66 44 3 C43.23969482 2.99476318 42.47938965 2.98952637 41.69604492 2.98413086 C38.1932053 2.96312074 34.690379 2.95026426 31.1875 2.9375 C29.99189453 2.92912109 28.79628906 2.92074219 27.56445312 2.91210938 C21.09174616 2.89447257 14.74975819 3.10852584 8.3112793 3.77514648 C5.63656749 4.03535664 2.99889131 4.10143321 0.3125 4.0625 C-0.51636719 4.05347656 -1.34523438 4.04445313 -2.19921875 4.03515625 C-2.79347656 4.02355469 -3.38773437 4.01195312 -4 4 C-2.68 2.68 -1.36 1.36 0 0 Z " fill="#BBBCBC" transform="translate(359,299)"/>
<path d="M0 0 C2.97 0 5.94 0 9 0 C9 0.66 9 1.32 9 2 C10.43085938 2.14308594 10.43085938 2.14308594 11.890625 2.2890625 C16.74211246 2.98527294 21.17670733 4.66443304 25.75 6.375 C27.02423828 6.83132813 27.02423828 6.83132813 28.32421875 7.296875 C29.14019531 7.59851563 29.95617187 7.90015625 30.796875 8.2109375 C31.53260742 8.48212402 32.26833984 8.75331055 33.02636719 9.03271484 C35.14688049 10.0719867 36.43753106 11.2470011 38 13 C31.75853812 11.25177726 25.6588127 9.19159948 19.5625 7 C13.11321958 4.68560363 6.65901142 2.6395838 0 1 C0 0.67 0 0.34 0 0 Z " fill="#C5C7C7" transform="translate(487,288)"/>
<path d="M0 0 C0.66 0 1.32 0 2 0 C0.59742396 3.17478244 -1.06319299 5.30973272 -3.51953125 7.75 C-4.21240234 8.4409375 -4.90527344 9.131875 -5.61914062 9.84375 C-6.34294922 10.5553125 -7.06675781 11.266875 -7.8125 12 C-8.52470703 12.7115625 -9.23691406 13.423125 -9.97070312 14.15625 C-13.50043216 17.65659184 -17.02350232 21.0000489 -21 24 C-21.66 23.67 -22.32 23.34 -23 23 C-22.5875 22.62302979 -22.175 22.24605957 -21.75 21.85766602 C-11.1013997 12.13971812 -11.1013997 12.13971812 -1.41796875 1.4765625 C-0.95003906 0.98929688 -0.48210938 0.50203125 0 0 Z " fill="#CFCFCF" transform="translate(521,636)"/>
<path d="M0 0 C8.69651012 2.57132391 17.347852 5.28412724 26 8 C22.84808349 8.89677959 21.15393112 8.8410483 18 8 C17.01 8.495 17.01 8.495 16 9 C16 8.34 16 7.68 16 7 C15.34 7 14.68 7 14 7 C13.67 7.66 13.34 8.32 13 9 C12.01 8.34 11.02 7.68 10 7 C10.66 6.67 11.32 6.34 12 6 C11.38511719 5.81824219 10.77023437 5.63648438 10.13671875 5.44921875 C9.32847656 5.19785156 8.52023437 4.94648437 7.6875 4.6875 C6.88699219 4.44386719 6.08648437 4.20023438 5.26171875 3.94921875 C2.90035427 2.95817977 1.66120007 1.91925057 0 0 Z " fill="#CFD0CF" transform="translate(312,660)"/>
<path d="M0 0 C0.33 0.66 0.66 1.32 1 2 C1.804375 2.309375 2.60875 2.61875 3.4375 2.9375 C6 4 6 4 8 7 C7.34 7 6.68 7 6 7 C6.433125 7.54269531 6.86625 8.08539062 7.3125 8.64453125 C8.1478125 9.71767578 8.1478125 9.71767578 9 10.8125 C9.8353125 11.87404297 9.8353125 11.87404297 10.6875 12.95703125 C12 15 12 15 12 18 C0 4.89320388 0 4.89320388 0 0 Z " fill="#D4D5D5" transform="translate(237,665)"/>
<path d="M0 0 C2 2 2 2 2.23046875 4.57421875 C2.07023411 16.18394649 2.07023411 16.18394649 1 21 C0.34 21.33 -0.32 21.66 -1 22 C-1.02887814 18.52085059 -1.04675687 15.04173169 -1.0625 11.5625 C-1.07087891 10.56927734 -1.07925781 9.57605469 -1.08789062 8.55273438 C-1.09111328 7.60849609 -1.09433594 6.66425781 -1.09765625 5.69140625 C-1.10289307 4.81685791 -1.10812988 3.94230957 -1.11352539 3.04125977 C-1 1 -1 1 0 0 Z " fill="#D8D8D9" transform="translate(217,498)"/>
<path d="M0 0 C0 0.33 0 0.66 0 1 C-3.39499304 1.50581854 -6.79111482 2.00362244 -10.1875 2.5 C-11.62706055 2.71462891 -11.62706055 2.71462891 -13.09570312 2.93359375 C-14.49272461 3.13662109 -14.49272461 3.13662109 -15.91796875 3.34375 C-17.19837036 3.53227539 -17.19837036 3.53227539 -18.50463867 3.72460938 C-21.02469675 4.00272556 -23.46685782 4.047608 -26 4 C-19.10396152 -1.84595989 -8.56579809 -0.1324608 0 0 Z " fill="#BDBEBF" transform="translate(360,359)"/>
<path d="M0 0 C0.80308594 0.10957031 1.60617187 0.21914063 2.43359375 0.33203125 C3.30886719 0.44804688 4.18414062 0.5640625 5.0859375 0.68359375 C9.37248776 1.3930088 13.62709586 2.21446363 17.87109375 3.14453125 C17.87109375 3.47453125 17.87109375 3.80453125 17.87109375 4.14453125 C16.79730469 4.07234375 15.72351563 4.00015625 14.6171875 3.92578125 C13.18099733 3.83191261 11.74479897 3.7381693 10.30859375 3.64453125 C9.60412109 3.59683594 8.89964844 3.54914062 8.17382812 3.5 C3.7284924 3.21320415 -0.67435284 3.09770283 -5.12890625 3.14453125 C-3.4638409 1.07256891 -2.71176853 0.18410172 0 0 Z " fill="#CCCCCD" transform="translate(437.12890625,796.85546875)"/>
<path d="M0 0 C0.99 0.33 1.98 0.66 3 1 C2.01 1.495 2.01 1.495 1 2 C1.65226562 1.91621094 2.30453125 1.83242188 2.9765625 1.74609375 C7.88249144 1.17445896 12.13127185 0.84688018 17 2 C17 2.33 17 2.66 17 3 C9.97360585 3.74805717 3.06608191 4.13794954 -4 4 C-2.68 2.68 -1.36 1.36 0 0 Z " fill="#D7D8D8" transform="translate(359,299)"/>
<path d="M0 0 C2.79387762 0.61620855 5.58480926 1.24249695 8.375 1.875 C9.1690625 2.04902344 9.963125 2.22304687 10.78125 2.40234375 C11.54179688 2.57636719 12.30234375 2.75039062 13.0859375 2.9296875 C13.7876709 3.08679199 14.4894043 3.24389648 15.21240234 3.40576172 C17 4 17 4 19 6 C13.58201328 5.30834212 8.3177215 4.24200752 3 3 C3.33 3.66 3.66 4.32 4 5 C1.525 4.01 1.525 4.01 -1 3 C-0.67 2.01 -0.34 1.02 0 0 Z " fill="#C8C8C8" transform="translate(593,184)"/>
<path d="M0 0 C2.97 0.495 2.97 0.495 6 1 C6.33 2.65 6.66 4.3 7 6 C2.32307692 4.52307692 2.32307692 4.52307692 0.6875 1.875 C0.460625 1.25625 0.23375 0.6375 0 0 Z " fill="#E9E9E9" transform="translate(595,186)"/>
<path d="M0 0 C1.98 1.65 3.96 3.3 6 5 C5.67 5.99 5.34 6.98 5 8 C3 6 3 6 2 4 C1.01 4.495 1.01 4.495 0 5 C0 3.35 0 1.7 0 0 Z " fill="#D6D6D7" transform="translate(256,616)"/>
<path d="M0 0 C2.64 0 5.28 0 8 0 C8 0.33 8 0.66 8 1 C5.36 1 2.72 1 0 1 C0 0.67 0 0.34 0 0 Z " fill="#F9F9F8" transform="translate(415,720)"/>
<path d="M0 0 C0.33 0.66 0.66 1.32 1 2 C-0.98 2.33 -2.96 2.66 -5 3 C-3 1 -3 1 0 0 Z " fill="#FDFCFB" transform="translate(534,696)"/>
<path d="M0 0 C0.33 0.99 0.66 1.98 1 3 C0.01 3.33 -0.98 3.66 -2 4 C-1.34 2.68 -0.68 1.36 0 0 Z " fill="#F3F3F2" transform="translate(682,748)"/>
<path d="M0 0 C1.32 0 2.64 0 4 0 C4 0.66 4 1.32 4 2 C2.68 2 1.36 2 0 2 C0 1.34 0 0.68 0 0 Z " fill="#FAF9F8" transform="translate(356,714)"/>
<path d="M0 0 C1.32 0.33 2.64 0.66 4 1 C2.68 1.33 1.36 1.66 0 2 C0 1.34 0 0.68 0 0 Z " fill="#FAFAF9" transform="translate(329,669)"/>
<path d="M0 0 C0.33 1.32 0.66 2.64 1 4 C0.01 4.495 0.01 4.495 -1 5 C-0.67 3.35 -0.34 1.7 0 0 Z " fill="#FCFCFB" transform="translate(556,570)"/>
<path d="M0 0 C0.33 0.99 0.66 1.98 1 3 C0.34 3.66 -0.32 4.32 -1 5 C-0.67 3.35 -0.34 1.7 0 0 Z " fill="#FCFCFC" transform="translate(564,539)"/>
<path d="M0 0 C0.33 0 0.66 0 1 0 C1 1.98 1 3.96 1 6 C0.67 6 0.34 6 0 6 C0 4.02 0 2.04 0 0 Z " fill="#F4F5F4" transform="translate(820,491)"/>
<path d="M0 0 C0.33 0 0.66 0 1 0 C1 1.98 1 3.96 1 6 C0.67 6 0.34 6 0 6 C0 4.02 0 2.04 0 0 Z " fill="#F9F9F9" transform="translate(655,474)"/>
<path d="M0 0 C0.33 0.99 0.66 1.98 1 3 C0.01 3.495 0.01 3.495 -1 4 C-0.67 2.68 -0.34 1.36 0 0 Z " fill="#FCFCFC" transform="translate(563,464)"/>
<path d="M0 0 C0.99 0.33 1.98 0.66 3 1 C2.01 1.66 1.02 2.32 0 3 C0 2.01 0 1.02 0 0 Z " fill="#FCFCFB" transform="translate(528,384)"/>
<path d="M0 0 C0.66 0.66 1.32 1.32 2 2 C1.67 2.99 1.34 3.98 1 5 C0.67 3.35 0.34 1.7 0 0 Z " fill="#FBFBFA" transform="translate(705,343)"/>
<path d="M0 0 C1.32 0.33 2.64 0.66 4 1 C2.68 1.33 1.36 1.66 0 2 C0 1.34 0 0.68 0 0 Z " fill="#FAFAFA" transform="translate(418,307)"/>
<path d="M0 0 C0.66 1.32 1.32 2.64 2 4 C1.01 4.495 1.01 4.495 0 5 C0 3.35 0 1.7 0 0 Z " fill="#FAFAFA" transform="translate(684,291)"/>
<path d="M0 0 C1.32 0.33 2.64 0.66 4 1 C3.01 1.33 2.02 1.66 1 2 C0.67 1.34 0.34 0.68 0 0 Z " fill="#F5F6F5" transform="translate(515,806)"/>
<path d="M0 0 C1.65 0 3.3 0 5 0 C5 0.33 5 0.66 5 1 C3.35 1 1.7 1 0 1 C0 0.67 0 0.34 0 0 Z " fill="#F5F6F6" transform="translate(488,806)"/>
<path d="M0 0 C0.99 0.33 1.98 0.66 3 1 C2.01 1.33 1.02 1.66 0 2 C0 1.34 0 0.68 0 0 Z " fill="#FCFCFB" transform="translate(500,693)"/>
<path d="M0 0 C1.485 0.99 1.485 0.99 3 2 C2.01 2.33 1.02 2.66 0 3 C0 2.01 0 1.02 0 0 Z " fill="#FBFBFB" transform="translate(516,565)"/>
<path d="M0 0 C0.66 0 1.32 0 2 0 C1.67 1.32 1.34 2.64 1 4 C0.67 2.68 0.34 1.36 0 0 Z " fill="#F5F7F6" transform="translate(216,533)"/>
<path d="M0 0 C0.33 0 0.66 0 1 0 C1 1.65 1 3.3 1 5 C0.67 5 0.34 5 0 5 C0 3.35 0 1.7 0 0 Z " fill="#F8F8F8" transform="translate(216,493)"/>
<path d="M0 0 C0.33 0 0.66 0 1 0 C1 1.65 1 3.3 1 5 C0.67 5 0.34 5 0 5 C0 3.35 0 1.7 0 0 Z " fill="#F4F5F5" transform="translate(820,483)"/>
<path d="M0 0 C1.65 0 3.3 0 5 0 C5 0.33 5 0.66 5 1 C3.35 1 1.7 1 0 1 C0 0.67 0 0.34 0 0 Z " fill="#F8F8F8" transform="translate(353,357)"/>
<path d="M0 0 C1.65 0 3.3 0 5 0 C5 0.33 5 0.66 5 1 C3.35 1 1.7 1 0 1 C0 0.67 0 0.34 0 0 Z " fill="#F9F8F8" transform="translate(362,356)"/>
<path d="M0 0 C1.32 0.33 2.64 0.66 4 1 C3.01 1.33 2.02 1.66 1 2 C0.67 1.34 0.34 0.68 0 0 Z " fill="#F3F5F4" transform="translate(419,280)"/>
<path d="M0 0 C0.99 0.33 1.98 0.66 3 1 C2.01 1 1.02 1 0 1 C0 0.67 0 0.34 0 0 Z " fill="#F7F7F6" transform="translate(424,797)"/>
<path d="M0 0 C0.66 0.66 1.32 1.32 2 2 C1.01 1.67 0.02 1.34 -1 1 C-0.67 0.67 -0.34 0.34 0 0 Z " fill="#FDFCFB" transform="translate(465,714)"/>
<path d="M0 0 C0.66 0.66 1.32 1.32 2 2 C1.01 1.67 0.02 1.34 -1 1 C-0.67 0.67 -0.34 0.34 0 0 Z " fill="#FBFAFB" transform="translate(474,713)"/>
<path d="M0 0 C4 1 4 1 4 1 Z " fill="#FAFAF9" transform="translate(481,712)"/>
<path d="M0 0 C4 1 4 1 4 1 Z " fill="#F9F9F9" transform="translate(426,701)"/>
<path d="M0 0 C1.485 0.99 1.485 0.99 3 2 C2.01 2 1.02 2 0 2 C0 1.34 0 0.68 0 0 Z " fill="#FAFAF9" transform="translate(292,651)"/>
<path d="M0 0 C0.66 0.66 1.32 1.32 2 2 C1.01 2.495 1.01 2.495 0 3 C0 2.01 0 1.02 0 0 Z " fill="#FDFDFE" transform="translate(547,592)"/>
<path d="M0 0 C0.33 0.99 0.66 1.98 1 3 C0.34 2.67 -0.32 2.34 -1 2 C-0.67 1.34 -0.34 0.68 0 0 Z " fill="#FBFCFB" transform="translate(705,521)"/>
<path d="M0 0 C1 4 1 4 1 4 Z " fill="#F5F5F5" transform="translate(819,510)"/>
<path d="M0 0 C1 4 1 4 1 4 Z " fill="#FAFAFA" transform="translate(524,508)"/>
<path d="M0 0 C0 3 0 3 0 3 Z " fill="#FAFBFA" transform="translate(715,480)"/>
<path d="M0 0 C0.99 0.495 0.99 0.495 2 1 C1.67 1.66 1.34 2.32 1 3 C0.67 2.01 0.34 1.02 0 0 Z " fill="#FCFCFD" transform="translate(563,469)"/>
<path d="M0 0 C0.33 0.99 0.66 1.98 1 3 C0.34 2.67 -0.32 2.34 -1 2 C-0.67 1.34 -0.34 0.68 0 0 Z " fill="#FCFCFC" transform="translate(561,455)"/>
<path d="M0 0 C0.66 0 1.32 0 2 0 C2 0.66 2 1.32 2 2 C1.34 2 0.68 2 0 2 C0 1.34 0 0.68 0 0 Z " fill="#FBFCFB" transform="translate(555,438)"/>
<path d="M0 0 C0.99 0.495 0.99 0.495 2 1 C1.67 1.66 1.34 2.32 1 3 C0.67 2.01 0.34 1.02 0 0 Z " fill="#FDFDFD" transform="translate(544,410)"/>
<path d="M0 0 C1 4 1 4 1 4 Z " fill="#FBFBFA" transform="translate(716,393)"/>
<path d="M0 0 C1 4 1 4 1 4 Z " fill="#FCFCFC" transform="translate(714,379)"/>
<path d="M0 0 C4 1 4 1 4 1 Z " fill="#F7F9F8" transform="translate(324,362)"/>
<path d="M0 0 C0.99 0.495 0.99 0.495 2 1 C1.67 1.66 1.34 2.32 1 3 C0.67 2.01 0.34 1.02 0 0 Z " fill="#FCFBFB" transform="translate(504,354)"/>
<path d="M0 0 C1.485 0.99 1.485 0.99 3 2 C2.01 2 1.02 2 0 2 C0 1.34 0 0.68 0 0 Z " fill="#FAFBFA" transform="translate(479,334)"/>
<path d="M0 0 C0.99 0 1.98 0 3 0 C2.67 0.66 2.34 1.32 2 2 C1.34 1.34 0.68 0.68 0 0 Z " fill="#FBFCFA" transform="translate(447,317)"/>
<path d="M0 0 C4 1 4 1 4 1 Z " fill="#F5F4F4" transform="translate(399,283)"/>
<path d="M0 0 C0.99 0.495 0.99 0.495 2 1 C1.67 1.66 1.34 2.32 1 3 C0.67 2.01 0.34 1.02 0 0 Z " fill="#FAFCFC" transform="translate(665,260)"/>
<path d="M0 0 C0.33 0.66 0.66 1.32 1 2 C0.01 1.67 -0.98 1.34 -2 1 C-1.34 0.67 -0.68 0.34 0 0 Z " fill="#F9FAF9" transform="translate(660,253)"/>
<path d="M0 0 C3 1 3 1 3 1 Z " fill="#F8F8F8" transform="translate(499,806)"/>
<path d="M0 0 C3 1 3 1 3 1 Z " fill="#F5F4F6" transform="translate(483,806)"/>
<path d="M0 0 C3 1 3 1 3 1 Z " fill="#F7F7F7" transform="translate(472,805)"/>
<path d="M0 0 C3 1 3 1 3 1 Z " fill="#F5F6F6" transform="translate(461,804)"/>
<path d="M0 0 C3 1 3 1 3 1 Z " fill="#F5F5F4" transform="translate(563,799)"/>
<path d="M0 0 C3 1 3 1 3 1 Z " fill="#F7F7F7" transform="translate(392,787)"/>
<path d="M0 0 C0.99 0.495 0.99 0.495 2 1 C1.01 1.495 1.01 1.495 0 2 C0 1.34 0 0.68 0 0 Z " fill="#F6F6F7" transform="translate(344,764)"/>
<path d="M0 0 C3 1 3 1 3 1 Z " fill="#FBFBFB" transform="translate(425,720)"/>
<path d="M0 0 C3 1 3 1 3 1 Z " fill="#F9FAF9" transform="translate(351,714)"/>
<path d="M0 0 C3 1 3 1 3 1 Z " fill="#F7F8F8" transform="translate(341,712)"/>
<path d="M0 0 C3 1 3 1 3 1 Z " fill="#FDFDFD" transform="translate(420,670)"/>
<path d="" fill="#F4F4F3" transform="translate(0,0)"/>
<path d="M0 0 C0.99 0.495 0.99 0.495 2 1 C1.01 1.495 1.01 1.495 0 2 C0 1.34 0 0.68 0 0 Z " fill="#F6F8F6" transform="translate(772,654)"/>
<path d="M0 0 C0.33 0.66 0.66 1.32 1 2 C0.34 1.67 -0.32 1.34 -1 1 C-0.67 0.67 -0.34 0.34 0 0 Z " fill="#F5F5F4" transform="translate(781,640)"/>
<path d="M0 0 C0.66 0 1.32 0 2 0 C1.67 0.66 1.34 1.32 1 2 C0.67 1.34 0.34 0.68 0 0 Z " fill="#FBFBFB" transform="translate(477,630)"/>
<path d="" fill="#F5F5F4" transform="translate(0,0)"/>
<path d="" fill="#F5F6F5" transform="translate(0,0)"/>
<path d="M0 0 C0.33 0.66 0.66 1.32 1 2 C0.34 1.67 -0.32 1.34 -1 1 C-0.67 0.67 -0.34 0.34 0 0 Z " fill="#FCFDFB" transform="translate(539,609)"/>
<path d="M0 0 C0.66 0.66 1.32 1.32 2 2 C1.34 2 0.68 2 0 2 C0 1.34 0 0.68 0 0 Z " fill="#FCFCFC" transform="translate(672,587)"/>
<path d="" fill="#FCFCFB" transform="translate(0,0)"/>
<path d="M0 0 C0.99 0.495 0.99 0.495 2 1 C1.01 1.495 1.01 1.495 0 2 C0 1.34 0 0.68 0 0 Z " fill="#F6F6F6" transform="translate(812,558)"/>
<path d="M0 0 C0.99 0.495 0.99 0.495 2 1 C1.01 1.495 1.01 1.495 0 2 C0 1.34 0 0.68 0 0 Z " fill="#F5F6F3" transform="translate(813,550)"/>
<path d="" fill="#F6F7F6" transform="translate(0,0)"/>
<path d="" fill="#F7F7F6" transform="translate(0,0)"/>
<path d="" fill="#FBFAFA" transform="translate(0,0)"/>
<path d="" fill="#FBF9FB" transform="translate(0,0)"/>
<path d="" fill="#FBFBFA" transform="translate(0,0)"/>
<path d="M0 0 C0.66 0 1.32 0 2 0 C1.67 0.66 1.34 1.32 1 2 C0.67 1.34 0.34 0.68 0 0 Z " fill="#FBFCFA" transform="translate(548,419)"/>
<path d="" fill="#F3F3F2" transform="translate(0,0)"/>
<path d="M0 0 C0.66 0.66 1.32 1.32 2 2 C1.34 2 0.68 2 0 2 C0 1.34 0 0.68 0 0 Z " fill="#F4F5F3" transform="translate(804,389)"/>
<path d="" fill="#FAFAFA" transform="translate(0,0)"/>
<path d="M0 0 C0.66 0.66 1.32 1.32 2 2 C1.34 2 0.68 2 0 2 C0 1.34 0 0.68 0 0 Z " fill="#FBFCFB" transform="translate(713,376)"/>
<path d="M0 0 C0.66 0.66 1.32 1.32 2 2 C1.34 2 0.68 2 0 2 C0 1.34 0 0.68 0 0 Z " fill="#FAFBFB" transform="translate(436,371)"/>
<path d="M0 0 C0.66 0.66 1.32 1.32 2 2 C1.34 2 0.68 2 0 2 C0 1.34 0 0.68 0 0 Z " fill="#FCFBFB" transform="translate(504,357)"/>
<path d="M0 0 C0.66 0 1.32 0 2 0 C1.67 0.66 1.34 1.32 1 2 C0.67 1.34 0.34 0.68 0 0 Z " fill="#FAFAFA" transform="translate(367,355)"/>
<path d="" fill="#FAFCFA" transform="translate(0,0)"/>
<path d="M0 0 C0.66 0 1.32 0 2 0 C1.67 0.66 1.34 1.32 1 2 C0.67 1.34 0.34 0.68 0 0 Z " fill="#FBFCFB" transform="translate(415,306)"/>
<path d="M0 0 C3 1 3 1 3 1 Z " fill="#F5F4F3" transform="translate(371,303)"/>
<path d="" fill="#FAFAFB" transform="translate(0,0)"/>
<path d="M0 0 C3 1 3 1 3 1 Z " fill="#F4F5F4" transform="translate(396,284)"/>
<path d="M0 0 C3 1 3 1 3 1 Z " fill="#F7F7F8" transform="translate(407,282)"/>
<path d="M0 0 C3 1 3 1 3 1 Z " fill="#F5F6F5" transform="translate(445,280)"/>
<path d="M0 0 C3 1 3 1 3 1 Z " fill="#F5F7F6" transform="translate(441,280)"/>
<path d="M0 0 C0.33 0.66 0.66 1.32 1 2 C0.34 1.67 -0.32 1.34 -1 1 C-0.67 0.67 -0.34 0.34 0 0 Z " fill="#FBFCFB" transform="translate(676,277)"/>
<path d="" fill="#F6F5F5" transform="translate(0,0)"/>
<path d="M0 0 C2 1 2 1 2 1 Z " fill="#F6F8F7" transform="translate(480,806)"/>
<path d="" fill="#F7F7F7" transform="translate(0,0)"/>
<path d="M0 0 C2 1 2 1 2 1 Z " fill="#F6F4F4" transform="translate(537,804)"/>
<path d="M0 0 C2 1 2 1 2 1 Z " fill="#F7F7F6" transform="translate(455,803)"/>
<path d="M0 0 C2 1 2 1 2 1 Z " fill="#F5F5F5" transform="translate(429,798)"/>
<path d="M0 0 C2 1 2 1 2 1 Z " fill="#F7F6F5" transform="translate(582,795)"/>
<path d="" fill="#F3F4F4" transform="translate(0,0)"/>
<path d="M0 0 C2 1 2 1 2 1 Z " fill="#F4F5F5" transform="translate(405,791)"/>
<path d="M0 0 C2 1 2 1 2 1 Z " fill="#F4F7F6" transform="translate(403,790)"/>
<path d="M0 0 C2 1 2 1 2 1 Z " fill="#F4F5F4" transform="translate(601,789)"/>
<path d="M0 0 C2 1 2 1 2 1 Z " fill="#F5F6F5" transform="translate(399,789)"/>
<path d="M0 0 C2 1 2 1 2 1 Z " fill="#F4F6F5" transform="translate(392,789)"/>
<path d="M0 0 C2 1 2 1 2 1 Z " fill="#F5F6F6" transform="translate(604,788)"/>
<path d="M0 0 C2 1 2 1 2 1 Z " fill="#F4F6F4" transform="translate(620,782)"/>
<path d="M0 0 C2 1 2 1 2 1 Z " fill="#F6F7F4" transform="translate(636,775)"/>
<path d="M0 0 C2 1 2 1 2 1 Z " fill="#F6F7F7" transform="translate(355,770)"/>
<path d="M0 0 C2 1 2 1 2 1 Z " fill="#F5F5F5" transform="translate(344,767)"/>
<path d="M0 0 C2 1 2 1 2 1 Z " fill="#F4F4F3" transform="translate(684,747)"/>
<path d="" fill="#F2F3F1" transform="translate(0,0)"/>
<path d="M0 0 C2 1 2 1 2 1 Z " fill="#F6F7F5" transform="translate(701,734)"/>
<path d="M0 0 C2 1 2 1 2 1 Z " fill="#F9FBF9" transform="translate(460,716)"/>
<path d="M0 0 C2 1 2 1 2 1 Z " fill="#FCFBFB" transform="translate(364,716)"/>
<path d="M0 0 C2 1 2 1 2 1 Z " fill="#FCFDFA" transform="translate(478,712)"/>
<path d="M0 0 C2 1 2 1 2 1 Z " fill="#FBFAFA" transform="translate(497,708)"/>
<path d="M0 0 C2 1 2 1 2 1 Z " fill="#FAFBF9" transform="translate(506,706)"/>
<path d="" fill="#FCFBFA" transform="translate(0,0)"/>
<path d="M0 0 C2 1 2 1 2 1 Z " fill="#FBFDFB" transform="translate(513,704)"/>
<path d="M0 0 C2 1 2 1 2 1 Z " fill="#FCFCFC" transform="translate(460,700)"/>
<path d="M0 0 C2 1 2 1 2 1 Z " fill="#FBFBF9" transform="translate(470,699)"/>
<path d="M0 0 C2 1 2 1 2 1 Z " fill="#F9FAF8" transform="translate(492,695)"/>
<path d="M0 0 C2 1 2 1 2 1 Z " fill="#FCFCFB" transform="translate(496,694)"/>
<path d="" fill="#FEFDFD" transform="translate(0,0)"/>
<path d="M0 0 C2 1 2 1 2 1 Z " fill="#F7FAF9" transform="translate(554,688)"/>
<path d="M0 0 C2 1 2 1 2 1 Z " fill="#FAFAFA" transform="translate(569,680)"/>
<path d="" fill="#F5F6F6" transform="translate(0,0)"/>
<path d="M0 0 C2 1 2 1 2 1 Z " fill="#FDFCFB" transform="translate(579,674)"/>
<path d="M0 0 C2 1 2 1 2 1 Z " fill="#FAFAFA" transform="translate(588,669)"/>
<path d="M0 0 C2 1 2 1 2 1 Z " fill="#F8FAF9" transform="translate(313,663)"/>
<path d="" fill="#FCFDFC" transform="translate(0,0)"/>
<path d="M0 0 C2 1 2 1 2 1 Z " fill="#F9FBFB" transform="translate(291,654)"/>
<path d="M0 0 C2 1 2 1 2 1 Z " fill="#F7F8F9" transform="translate(616,649)"/>
<path d="" fill="#FCFBFC" transform="translate(0,0)"/>
<path d="" fill="#F3F5F3" transform="translate(0,0)"/>
<path d="M0 0 C2 1 2 1 2 1 Z " fill="#FAFAF9" transform="translate(586,646)"/>
<path d="M0 0 C2 1 2 1 2 1 Z " fill="#FCFCFA" transform="translate(283,645)"/>
<path d="" fill="#F6F5F5" transform="translate(0,0)"/>
<path d="" fill="#F6F5F4" transform="translate(0,0)"/>
<path d="" fill="#F5F4F4" transform="translate(0,0)"/>
<path d="M0 0 C2 1 2 1 2 1 Z " fill="#FBFBFA" transform="translate(500,601)"/>
<path d="" fill="#FCFDFC" transform="translate(0,0)"/>
<path d="" fill="#F4F7F7" transform="translate(0,0)"/>
<path d="" fill="#FCFDFC" transform="translate(0,0)"/>
<path d="" fill="#FAFAFA" transform="translate(0,0)"/>
<path d="" fill="#F8F8F7" transform="translate(0,0)"/>
<path d="" fill="#F6F5F5" transform="translate(0,0)"/>
<path d="" fill="#F4F5F5" transform="translate(0,0)"/>
<path d="M0 0 C2 1 2 1 2 1 Z " fill="#FBFAFB" transform="translate(680,575)"/>
<path d="" fill="#FCFCFC" transform="translate(0,0)"/>
<path d="" fill="#FDFDFC" transform="translate(0,0)"/>
<path d="" fill="#F7F8F7" transform="translate(0,0)"/>
<path d="" fill="#FBFBFB" transform="translate(0,0)"/>
<path d="" fill="#FBFAFB" transform="translate(0,0)"/>
<path d="" fill="#F8F8F7" transform="translate(0,0)"/>
<path d="" fill="#FDFBFB" transform="translate(0,0)"/>
<path d="" fill="#F4F4F3" transform="translate(0,0)"/>
<path d="" fill="#FAFBFA" transform="translate(0,0)"/>
<path d="" fill="#FCFAFA" transform="translate(0,0)"/>
<path d="" fill="#FAFAFB" transform="translate(0,0)"/>
<path d="M0 0 C2 1 2 1 2 1 Z " fill="#FEFDFD" transform="translate(564,478)"/>
<path d="" fill="#F5F5F5" transform="translate(0,0)"/>
<path d="M0 0 C2 1 2 1 2 1 Z " fill="#FCFCFD" transform="translate(564,476)"/>
<path d="" fill="#F6F6F6" transform="translate(0,0)"/>
<path d="" fill="#F7F7F6" transform="translate(0,0)"/>
<path d="M0 0 C2 1 2 1 2 1 Z " fill="#FDFDFD" transform="translate(561,462)"/>
<path d="" fill="#F4F4F5" transform="translate(0,0)"/>
<path d="" fill="#F6F6F7" transform="translate(0,0)"/>
<path d="" fill="#F6F6F5" transform="translate(0,0)"/>
<path d="" fill="#FCFDFE" transform="translate(0,0)"/>
<path d="" fill="#FCFCFB" transform="translate(0,0)"/>
<path d="" fill="#F6F6F5" transform="translate(0,0)"/>
<path d="" fill="#F2F1F1" transform="translate(0,0)"/>
<path d="M0 0 C2 1 2 1 2 1 Z " fill="#FCFDFC" transform="translate(547,417)"/>
<path d="" fill="#FCFCFD" transform="translate(0,0)"/>
<path d="" fill="#F5F5F3" transform="translate(0,0)"/>
<path d="" fill="#FCFDFC" transform="translate(0,0)"/>
<path d="" fill="#FBFCFB" transform="translate(0,0)"/>
<path d="" fill="#FAFBFA" transform="translate(0,0)"/>
<path d="" fill="#F6F7F6" transform="translate(0,0)"/>
<path d="M0 0 C2 1 2 1 2 1 Z " fill="#F7F6F6" transform="translate(798,375)"/>
<path d="M0 0 C2 1 2 1 2 1 Z " fill="#FAFAFA" transform="translate(430,369)"/>
<path d="M0 0 C2 1 2 1 2 1 Z " fill="#FCFCFC" transform="translate(614,368)"/>
<path d="M0 0 C2 1 2 1 2 1 Z " fill="#F8F9F8" transform="translate(414,363)"/>
<path d="M0 0 C2 1 2 1 2 1 Z " fill="#F9FAFB" transform="translate(406,361)"/>
<path d="" fill="#F8F9F7" transform="translate(0,0)"/>
<path d="M0 0 C2 1 2 1 2 1 Z " fill="#FBFBFC" transform="translate(402,360)"/>
<path d="M0 0 C2 1 2 1 2 1 Z " fill="#F6F6F6" transform="translate(333,360)"/>
<path d="" fill="#F3F4F4" transform="translate(0,0)"/>
<path d="M0 0 C2 1 2 1 2 1 Z " fill="#FAFBF9" transform="translate(708,358)"/>
<path d="M0 0 C2 1 2 1 2 1 Z " fill="#FBFBFB" transform="translate(506,357)"/>
<path d="" fill="#FAF9FA" transform="translate(0,0)"/>
<path d="M0 0 C2 1 2 1 2 1 Z " fill="#FBFBFB" transform="translate(484,338)"/>
<path d="" fill="#FBFBFA" transform="translate(0,0)"/>
<path d="" fill="#FAFBFA" transform="translate(0,0)"/>
<path d="M0 0 C2 1 2 1 2 1 Z " fill="#FAFCFA" transform="translate(554,314)"/>
<path d="" fill="#F5F6F4" transform="translate(0,0)"/>
<path d="" fill="#FCFDFC" transform="translate(0,0)"/>
<path d="M0 0 C2 1 2 1 2 1 Z " fill="#F6F8F8" transform="translate(399,303)"/>
<path d="M0 0 C2 1 2 1 2 1 Z " fill="#F9FAF8" transform="translate(396,303)"/>
<path d="M0 0 C2 1 2 1 2 1 Z " fill="#FAFAFA" transform="translate(391,303)"/>
<path d="M0 0 C2 1 2 1 2 1 Z " fill="#F2F3F4" transform="translate(368,303)"/>
<path d="" fill="#FBFCFC" transform="translate(0,0)"/>
<path d="M0 0 C2 1 2 1 2 1 Z " fill="#F7F9F8" transform="translate(380,302)"/>
<path d="" fill="#F7F9F7" transform="translate(0,0)"/>
<path d="M0 0 C2 1 2 1 2 1 Z " fill="#F8F8F8" transform="translate(479,284)"/>
<path d="" fill="#F7F8F7" transform="translate(0,0)"/>
<path d="" fill="#F7F8F8" transform="translate(0,0)"/>
<path d="M0 0 C2 1 2 1 2 1 Z " fill="#F6F7F6" transform="translate(458,281)"/>
<path d="M0 0 C2 1 2 1 2 1 Z " fill="#F5F6F6" transform="translate(425,280)"/>
<path d="" fill="#F6F5F5" transform="translate(0,0)"/>
<path d="" fill="#F7F6F6" transform="translate(0,0)"/>
<path d="" fill="#F9F8FA" transform="translate(0,0)"/>
<path d="M0 0 C2 1 2 1 2 1 Z " fill="#F6F7F5" transform="translate(716,252)"/>
<path d="" fill="#FBFBFA" transform="translate(0,0)"/>
<path d="" fill="#F5F3F4" transform="translate(0,0)"/>
<path d="M0 0 C2 1 2 1 2 1 Z " fill="#F2F2F3" transform="translate(672,217)"/>
<path d="M0 0 C2 1 2 1 2 1 Z " fill="#EFEFED" transform="translate(631,195)"/>
<path d="M0 0 C2 1 2 1 2 1 Z " fill="#E1E0E0" transform="translate(594,190)"/>
<path d="M0 0 C2 1 2 1 2 1 Z " fill="#E5E7E6" transform="translate(614,186)"/>
<path d="" fill="#F5F4F4" transform="translate(0,0)"/>
<path d="" fill="#F7F7F6" transform="translate(0,0)"/>
<path d="" fill="#F7F6F8" transform="translate(0,0)"/>
<path d="" fill="#F7F5F6" transform="translate(0,0)"/>
<path d="" fill="#F9F9FA" transform="translate(0,0)"/>
<path d="" fill="#F6F6F5" transform="translate(0,0)"/>
<path d="" fill="#F9F9F8" transform="translate(0,0)"/>
<path d="" fill="#F6F6F7" transform="translate(0,0)"/>
<path d="" fill="#F6F7F6" transform="translate(0,0)"/>
<path d="" fill="#F5F6F6" transform="translate(0,0)"/>
<path d="" fill="#F6F7F6" transform="translate(0,0)"/>
<path d="" fill="#F7F8F8" transform="translate(0,0)"/>
<path d="" fill="#F6F6F4" transform="translate(0,0)"/>
<path d="" fill="#F7F8F7" transform="translate(0,0)"/>
<path d="" fill="#F7F9F7" transform="translate(0,0)"/>
<path d="" fill="#F4F6F5" transform="translate(0,0)"/>
<path d="" fill="#F8F8F8" transform="translate(0,0)"/>
<path d="" fill="#F2F5F4" transform="translate(0,0)"/>
<path d="" fill="#F6F7F5" transform="translate(0,0)"/>
<path d="" fill="#F7F8F6" transform="translate(0,0)"/>
<path d="" fill="#F8F9F9" transform="translate(0,0)"/>
<path d="" fill="#F5F6F5" transform="translate(0,0)"/>
<path d="" fill="#F4F3F3" transform="translate(0,0)"/>
<path d="" fill="#F5F3F4" transform="translate(0,0)"/>
<path d="" fill="#F5F4F4" transform="translate(0,0)"/>
<path d="" fill="#F3F4F2" transform="translate(0,0)"/>
<path d="" fill="#F6F6F4" transform="translate(0,0)"/>
<path d="" fill="#F5F6F3" transform="translate(0,0)"/>
<path d="" fill="#F5F5F5" transform="translate(0,0)"/>
<path d="" fill="#F7F9F7" transform="translate(0,0)"/>
<path d="" fill="#F6F7F7" transform="translate(0,0)"/>
<path d="" fill="#F7F4F7" transform="translate(0,0)"/>
<path d="" fill="#F4F7F5" transform="translate(0,0)"/>
<path d="" fill="#F6F6F5" transform="translate(0,0)"/>
<path d="" fill="#F5F6F5" transform="translate(0,0)"/>
<path d="" fill="#F7F5F6" transform="translate(0,0)"/>
<path d="" fill="#F5F5F5" transform="translate(0,0)"/>
<path d="" fill="#F7F8F7" transform="translate(0,0)"/>
<path d="" fill="#F3F3F2" transform="translate(0,0)"/>
<path d="" fill="#F6F6F5" transform="translate(0,0)"/>
<path d="" fill="#F6F8F8" transform="translate(0,0)"/>
<path d="" fill="#F5F8F5" transform="translate(0,0)"/>
<path d="" fill="#F8F9F7" transform="translate(0,0)"/>
<path d="" fill="#F6F7F5" transform="translate(0,0)"/>
<path d="" fill="#F3F3F2" transform="translate(0,0)"/>
<path d="" fill="#F3F6F5" transform="translate(0,0)"/>
<path d="" fill="#F3F3F4" transform="translate(0,0)"/>
<path d="" fill="#F5F4F5" transform="translate(0,0)"/>
<path d="" fill="#F4F3F4" transform="translate(0,0)"/>
<path d="" fill="#F5F5F5" transform="translate(0,0)"/>
<path d="" fill="#F4F6F6" transform="translate(0,0)"/>
<path d="" fill="#F7F5F7" transform="translate(0,0)"/>
<path d="" fill="#F3F2F2" transform="translate(0,0)"/>
<path d="" fill="#F3F4F3" transform="translate(0,0)"/>
<path d="" fill="#F5F6F6" transform="translate(0,0)"/>
<path d="" fill="#F5F6F5" transform="translate(0,0)"/>
<path d="" fill="#F6F7F6" transform="translate(0,0)"/>
<path d="" fill="#F4F5F4" transform="translate(0,0)"/>
<path d="" fill="#F5F5F5" transform="translate(0,0)"/>
<path d="" fill="#FBFBFA" transform="translate(0,0)"/>
<path d="" fill="#FCFCFB" transform="translate(0,0)"/>
<path d="" fill="#FBFCFB" transform="translate(0,0)"/>
<path d="" fill="#FBF9FA" transform="translate(0,0)"/>
<path d="" fill="#F3F4F3" transform="translate(0,0)"/>
<path d="" fill="#F4F4F1" transform="translate(0,0)"/>
<path d="" fill="#FCFCFD" transform="translate(0,0)"/>
<path d="" fill="#F7F7F5" transform="translate(0,0)"/>
<path d="" fill="#FAFCFB" transform="translate(0,0)"/>
<path d="" fill="#FDFDFC" transform="translate(0,0)"/>
<path d="" fill="#FAFAFB" transform="translate(0,0)"/>
<path d="" fill="#F6F8F6" transform="translate(0,0)"/>
<path d="" fill="#F1F1F1" transform="translate(0,0)"/>
<path d="" fill="#F6F9F9" transform="translate(0,0)"/>
<path d="" fill="#F1F2F2" transform="translate(0,0)"/>
<path d="" fill="#F4F7F7" transform="translate(0,0)"/>
<path d="" fill="#F4F4F5" transform="translate(0,0)"/>
<path d="" fill="#FDFBF9" transform="translate(0,0)"/>
<path d="" fill="#FAFAFA" transform="translate(0,0)"/>
<path d="" fill="#F6F6F5" transform="translate(0,0)"/>
<path d="" fill="#F5F4F3" transform="translate(0,0)"/>
<path d="" fill="#F6F7F4" transform="translate(0,0)"/>
<path d="" fill="#FCFDFD" transform="translate(0,0)"/>
<path d="" fill="#F4F5F3" transform="translate(0,0)"/>
<path d="" fill="#FBFAFA" transform="translate(0,0)"/>
<path d="" fill="#FAFBFA" transform="translate(0,0)"/>
<path d="" fill="#F4F5F6" transform="translate(0,0)"/>
<path d="" fill="#F9FAFA" transform="translate(0,0)"/>
<path d="" fill="#F8F8F9" transform="translate(0,0)"/>
<path d="" fill="#FBFAFC" transform="translate(0,0)"/>
<path d="" fill="#FBFAFB" transform="translate(0,0)"/>
<path d="" fill="#FBF9FB" transform="translate(0,0)"/>
<path d="" fill="#FAFBF8" transform="translate(0,0)"/>
<path d="" fill="#FAFBFA" transform="translate(0,0)"/>
<path d="" fill="#FCFCFB" transform="translate(0,0)"/>
<path d="" fill="#F4F4F3" transform="translate(0,0)"/>
<path d="" fill="#FAFCFB" transform="translate(0,0)"/>
<path d="" fill="#FDFCFC" transform="translate(0,0)"/>
<path d="" fill="#F8F7F8" transform="translate(0,0)"/>
<path d="" fill="#FDFDFB" transform="translate(0,0)"/>
<path d="" fill="#FCFCFC" transform="translate(0,0)"/>
<path d="" fill="#F9F7F8" transform="translate(0,0)"/>
<path d="" fill="#FBFDFA" transform="translate(0,0)"/>
<path d="" fill="#F3F4F3" transform="translate(0,0)"/>
<path d="" fill="#FDFCFB" transform="translate(0,0)"/>
<path d="" fill="#FAFCFA" transform="translate(0,0)"/>
<path d="" fill="#F5F7F5" transform="translate(0,0)"/>
<path d="" fill="#F6F7F7" transform="translate(0,0)"/>
<path d="" fill="#FCFDFC" transform="translate(0,0)"/>
<path d="" fill="#FFFEFD" transform="translate(0,0)"/>
<path d="" fill="#F8F9F8" transform="translate(0,0)"/>
<path d="" fill="#FCFAF9" transform="translate(0,0)"/>
<path d="" fill="#F8F9F9" transform="translate(0,0)"/>
<path d="" fill="#FAFAFA" transform="translate(0,0)"/>
<path d="" fill="#FAF9FC" transform="translate(0,0)"/>
<path d="" fill="#FFFFFF" transform="translate(0,0)"/>
<path d="" fill="#FCFAFC" transform="translate(0,0)"/>
<path d="" fill="#FBFAF9" transform="translate(0,0)"/>
<path d="" fill="#F7F9F9" transform="translate(0,0)"/>
<path d="" fill="#F4F3F2" transform="translate(0,0)"/>
<path d="" fill="#FCF9FD" transform="translate(0,0)"/>
<path d="" fill="#FAFBFC" transform="translate(0,0)"/>
<path d="" fill="#FDFEFD" transform="translate(0,0)"/>
<path d="" fill="#F9FAF8" transform="translate(0,0)"/>
<path d="" fill="#F9F8F7" transform="translate(0,0)"/>
<path d="" fill="#F9F8FA" transform="translate(0,0)"/>
<path d="" fill="#FBFAFB" transform="translate(0,0)"/>
<path d="" fill="#F4F5F3" transform="translate(0,0)"/>
<path d="" fill="#ECECEE" transform="translate(0,0)"/>
<path d="" fill="#FCFBFB" transform="translate(0,0)"/>
<path d="" fill="#FCFEFB" transform="translate(0,0)"/>
<path d="" fill="#FFFEFC" transform="translate(0,0)"/>
<path d="" fill="#FCFCFA" transform="translate(0,0)"/>
<path d="" fill="#EEEEED" transform="translate(0,0)"/>
<path d="" fill="#F7F7F7" transform="translate(0,0)"/>
<path d="" fill="#FCFEFD" transform="translate(0,0)"/>
<path d="" fill="#FCFDFD" transform="translate(0,0)"/>
<path d="" fill="#FCFDFB" transform="translate(0,0)"/>
<path d="" fill="#FBFBFC" transform="translate(0,0)"/>
<path d="" fill="#F7F8F9" transform="translate(0,0)"/>
<path d="" fill="#FCFCFD" transform="translate(0,0)"/>
<path d="" fill="#F4F5F3" transform="translate(0,0)"/>
<path d="" fill="#F8F9F7" transform="translate(0,0)"/>
<path d="" fill="#FAFBFA" transform="translate(0,0)"/>
<path d="" fill="#F4F5F5" transform="translate(0,0)"/>
<path d="" fill="#F3F4F2" transform="translate(0,0)"/>
<path d="" fill="#FAF9F9" transform="translate(0,0)"/>
<path d="" fill="#F6F9F9" transform="translate(0,0)"/>
<path d="" fill="#EEEDEC" transform="translate(0,0)"/>
<path d="" fill="#E6E7E8" transform="translate(0,0)"/>
<path d="" fill="#FCFBFB" transform="translate(0,0)"/>
<path d="" fill="#F2F2F3" transform="translate(0,0)"/>
<path d="" fill="#FDFAF9" transform="translate(0,0)"/>
<path d="" fill="#FAFBF9" transform="translate(0,0)"/>
<path d="" fill="#FDFEFD" transform="translate(0,0)"/>
<path d="" fill="#FCFCF9" transform="translate(0,0)"/>
<path d="" fill="#F0F0F0" transform="translate(0,0)"/>
<path d="" fill="#FBFBFA" transform="translate(0,0)"/>
<path d="" fill="#FEFEFB" transform="translate(0,0)"/>
<path d="" fill="#FCFDFD" transform="translate(0,0)"/>
<path d="" fill="#F4F5F5" transform="translate(0,0)"/>
<path d="" fill="#FBFAFB" transform="translate(0,0)"/>
<path d="" fill="#EAECEB" transform="translate(0,0)"/>
<path d="" fill="#F4F4F2" transform="translate(0,0)"/>
<path d="" fill="#FBFDFA" transform="translate(0,0)"/>
<path d="" fill="#FFFEFF" transform="translate(0,0)"/>
<path d="" fill="#F5F5F4" transform="translate(0,0)"/>
<path d="" fill="#FAFBF9" transform="translate(0,0)"/>
<path d="" fill="#FDFCFC" transform="translate(0,0)"/>
<path d="" fill="#FAFAFB" transform="translate(0,0)"/>
<path d="" fill="#FCFEFE" transform="translate(0,0)"/>
<path d="" fill="#FBFDFB" transform="translate(0,0)"/>
<path d="" fill="#FAFCFC" transform="translate(0,0)"/>
<path d="" fill="#FEFEFC" transform="translate(0,0)"/>
<path d="" fill="#FAF9F7" transform="translate(0,0)"/>
<path d="" fill="#F7F9F8" transform="translate(0,0)"/>
<path d="" fill="#FCFDFB" transform="translate(0,0)"/>
<path d="" fill="#FEFDFB" transform="translate(0,0)"/>
<path d="" fill="#FCFBFB" transform="translate(0,0)"/>
<path d="" fill="#FDFDFD" transform="translate(0,0)"/>
<path d="" fill="#F8F6F7" transform="translate(0,0)"/>
<path d="" fill="#F9FBF9" transform="translate(0,0)"/>
<path d="" fill="#F4F5F4" transform="translate(0,0)"/>
<path d="" fill="#FCFDFB" transform="translate(0,0)"/>
<path d="" fill="#FAF9FB" transform="translate(0,0)"/>
<path d="" fill="#F5F8F5" transform="translate(0,0)"/>
<path d="" fill="#FBFBFB" transform="translate(0,0)"/>
<path d="" fill="#F9FAFB" transform="translate(0,0)"/>
<path d="" fill="#FDFBFC" transform="translate(0,0)"/>
<path d="" fill="#FCF7FA" transform="translate(0,0)"/>
<path d="" fill="#FBFDFA" transform="translate(0,0)"/>
<path d="" fill="#FCF9F9" transform="translate(0,0)"/>
<path d="" fill="#FDFCFB" transform="translate(0,0)"/>
<path d="" fill="#FCFBFB" transform="translate(0,0)"/>
<path d="" fill="#FCFDFD" transform="translate(0,0)"/>
<path d="" fill="#FAFBF9" transform="translate(0,0)"/>
<path d="" fill="#FEFEFE" transform="translate(0,0)"/>
<path d="" fill="#F4F2F3" transform="translate(0,0)"/>
<path d="" fill="#FEFDFC" transform="translate(0,0)"/>
<path d="" fill="#F3F5F3" transform="translate(0,0)"/>
<path d="" fill="#F9F8F7" transform="translate(0,0)"/>
<path d="" fill="#FAFAF8" transform="translate(0,0)"/>
<path d="" fill="#F7FAF9" transform="translate(0,0)"/>
<path d="" fill="#F3F1F2" transform="translate(0,0)"/>
<path d="" fill="#FAFCFA" transform="translate(0,0)"/>
<path d="" fill="#FBFDFC" transform="translate(0,0)"/>
<path d="" fill="#F8F9F9" transform="translate(0,0)"/>
<path d="" fill="#F2F1F1" transform="translate(0,0)"/>
<path d="" fill="#FEFCFC" transform="translate(0,0)"/>
<path d="" fill="#FCFBFA" transform="translate(0,0)"/>
<path d="" fill="#FEFCFC" transform="translate(0,0)"/>
<path d="" fill="#FDFDFE" transform="translate(0,0)"/>
<path d="" fill="#FEFDFE" transform="translate(0,0)"/>
<path d="" fill="#FBFBFB" transform="translate(0,0)"/>
<path d="" fill="#FEFEFE" transform="translate(0,0)"/>
<path d="" fill="#F6F5F6" transform="translate(0,0)"/>
<path d="" fill="#FCFBFB" transform="translate(0,0)"/>
<path d="" fill="#FAFAFA" transform="translate(0,0)"/>
<path d="" fill="#F5F6F6" transform="translate(0,0)"/>
<path d="" fill="#F2F1F1" transform="translate(0,0)"/>
<path d="" fill="#FBF9FA" transform="translate(0,0)"/>
<path d="" fill="#F9F8F7" transform="translate(0,0)"/>
<path d="" fill="#F8F8F7" transform="translate(0,0)"/>
<path d="" fill="#F8F8F8" transform="translate(0,0)"/>
<path d="" fill="#F4F5F3" transform="translate(0,0)"/>
<path d="" fill="#FCFCFB" transform="translate(0,0)"/>
<path d="" fill="#FDFDFD" transform="translate(0,0)"/>
<path d="" fill="#F4F5F4" transform="translate(0,0)"/>
<path d="" fill="#F7F8F8" transform="translate(0,0)"/>
<path d="" fill="#FBFCF8" transform="translate(0,0)"/>
<path d="" fill="#F6F6F6" transform="translate(0,0)"/>
<path d="" fill="#F9F9F8" transform="translate(0,0)"/>
<path d="" fill="#FDFEFC" transform="translate(0,0)"/>
<path d="" fill="#F9FBFA" transform="translate(0,0)"/>
<path d="" fill="#FBFBF9" transform="translate(0,0)"/>
<path d="" fill="#F9F9F8" transform="translate(0,0)"/>
<path d="" fill="#FCFCFD" transform="translate(0,0)"/>
<path d="" fill="#FDFDFB" transform="translate(0,0)"/>
<path d="" fill="#FEFEFB" transform="translate(0,0)"/>
<path d="" fill="#FDFCFC" transform="translate(0,0)"/>
<path d="" fill="#FDFCFC" transform="translate(0,0)"/>
<path d="" fill="#FBFAFA" transform="translate(0,0)"/>
<path d="" fill="#FDFEFB" transform="translate(0,0)"/>
<path d="" fill="#FDFDFD" transform="translate(0,0)"/>
<path d="" fill="#FAFAFC" transform="translate(0,0)"/>
<path d="" fill="#FCFEFD" transform="translate(0,0)"/>
<path d="" fill="#F9FAFA" transform="translate(0,0)"/>
<path d="" fill="#FCFBFA" transform="translate(0,0)"/>
<path d="" fill="#F6F6F5" transform="translate(0,0)"/>
<path d="" fill="#F6F8F5" transform="translate(0,0)"/>
<path d="" fill="#FCFCFD" transform="translate(0,0)"/>
<path d="" fill="#FCFEFB" transform="translate(0,0)"/>
<path d="" fill="#F7F8F8" transform="translate(0,0)"/>
<path d="" fill="#FCFAFA" transform="translate(0,0)"/>
<path d="" fill="#F5F6F6" transform="translate(0,0)"/>
<path d="" fill="#FDFEFD" transform="translate(0,0)"/>
<path d="" fill="#FCFCFB" transform="translate(0,0)"/>
<path d="" fill="#F5F3F2" transform="translate(0,0)"/>
<path d="" fill="#FCFCFB" transform="translate(0,0)"/>
<path d="" fill="#FCFDFD" transform="translate(0,0)"/>
<path d="" fill="#F4F3F5" transform="translate(0,0)"/>
<path d="" fill="#F9F9F9" transform="translate(0,0)"/>
<path d="" fill="#F4F4F4" transform="translate(0,0)"/>
<path d="" fill="#FBFEFD" transform="translate(0,0)"/>
<path d="" fill="#FFFFFE" transform="translate(0,0)"/>
<path d="" fill="#FCFBFB" transform="translate(0,0)"/>
<path d="" fill="#FDFDFC" transform="translate(0,0)"/>
<path d="" fill="#FDFCFA" transform="translate(0,0)"/>
<path d="" fill="#F5F6F5" transform="translate(0,0)"/>
<path d="" fill="#FCFBFC" transform="translate(0,0)"/>
<path d="" fill="#F6F6F6" transform="translate(0,0)"/>
<path d="" fill="#FBFBFC" transform="translate(0,0)"/>
<path d="" fill="#FBFBFB" transform="translate(0,0)"/>
<path d="" fill="#FDFDFC" transform="translate(0,0)"/>
<path d="" fill="#FDFDFA" transform="translate(0,0)"/>
<path d="" fill="#FCFCFC" transform="translate(0,0)"/>
<path d="" fill="#FBFCFA" transform="translate(0,0)"/>
<path d="" fill="#F9F8F8" transform="translate(0,0)"/>
<path d="" fill="#FEFCFF" transform="translate(0,0)"/>
<path d="" fill="#FEFEFC" transform="translate(0,0)"/>
<path d="" fill="#FDFDFB" transform="translate(0,0)"/>
<path d="" fill="#F7F8F7" transform="translate(0,0)"/>
<path d="" fill="#FEFDFC" transform="translate(0,0)"/>
<path d="" fill="#F7F9F8" transform="translate(0,0)"/>
<path d="" fill="#F3F4F4" transform="translate(0,0)"/>
<path d="" fill="#FBFBFC" transform="translate(0,0)"/>
<path d="" fill="#F7F5F5" transform="translate(0,0)"/>
<path d="" fill="#FBFCFC" transform="translate(0,0)"/>
<path d="" fill="#FCFDFA" transform="translate(0,0)"/>
<path d="" fill="#FFFEFD" transform="translate(0,0)"/>
<path d="" fill="#FBFCFB" transform="translate(0,0)"/>
<path d="" fill="#FDFCFB" transform="translate(0,0)"/>
<path d="" fill="#FDFEFC" transform="translate(0,0)"/>
<path d="" fill="#FBFCFB" transform="translate(0,0)"/>
<path d="" fill="#FCFCFA" transform="translate(0,0)"/>
<path d="" fill="#FDFCFC" transform="translate(0,0)"/>
<path d="" fill="#FCFCFC" transform="translate(0,0)"/>
<path d="" fill="#F9F9F8" transform="translate(0,0)"/>
<path d="" fill="#FAF8F9" transform="translate(0,0)"/>
<path d="" fill="#FBFAFA" transform="translate(0,0)"/>
<path d="" fill="#F4F3F4" transform="translate(0,0)"/>
<path d="" fill="#F9F8F7" transform="translate(0,0)"/>
<path d="" fill="#FAFBFC" transform="translate(0,0)"/>
<path d="" fill="#FCFCFB" transform="translate(0,0)"/>
<path d="" fill="#FCFBFD" transform="translate(0,0)"/>
<path d="" fill="#F5F5F5" transform="translate(0,0)"/>
<path d="" fill="#F5F3F3" transform="translate(0,0)"/>
<path d="" fill="#F6F7F7" transform="translate(0,0)"/>
<path d="" fill="#F2F4F3" transform="translate(0,0)"/>
<path d="" fill="#FDFCFC" transform="translate(0,0)"/>
<path d="" fill="#FCFCFC" transform="translate(0,0)"/>
<path d="" fill="#FCFCFC" transform="translate(0,0)"/>
<path d="" fill="#F9F9F9" transform="translate(0,0)"/>
<path d="" fill="#F3F4F2" transform="translate(0,0)"/>
<path d="" fill="#FCFDFD" transform="translate(0,0)"/>
<path d="" fill="#F8F6F7" transform="translate(0,0)"/>
<path d="" fill="#FBFBFC" transform="translate(0,0)"/>
<path d="" fill="#F3F3F3" transform="translate(0,0)"/>
<path d="" fill="#F4F6F6" transform="translate(0,0)"/>
<path d="" fill="#F6F5F6" transform="translate(0,0)"/>
<path d="" fill="#FCFEFB" transform="translate(0,0)"/>
<path d="" fill="#F7F6F7" transform="translate(0,0)"/>
<path d="" fill="#FDFDFC" transform="translate(0,0)"/>
<path d="" fill="#FCFCFA" transform="translate(0,0)"/>
<path d="" fill="#FAFBFA" transform="translate(0,0)"/>
<path d="" fill="#FCFBFB" transform="translate(0,0)"/>
<path d="" fill="#FCFBFC" transform="translate(0,0)"/>
<path d="" fill="#F7F7F7" transform="translate(0,0)"/>
<path d="" fill="#FCFBFB" transform="translate(0,0)"/>
<path d="" fill="#FAFAF8" transform="translate(0,0)"/>
<path d="" fill="#FDFDFD" transform="translate(0,0)"/>
<path d="" fill="#F3F1F2" transform="translate(0,0)"/>
<path d="" fill="#F7F6F7" transform="translate(0,0)"/>
<path d="" fill="#FBFBFD" transform="translate(0,0)"/>
<path d="" fill="#F8F7F7" transform="translate(0,0)"/>
<path d="" fill="#FBFBFD" transform="translate(0,0)"/>
<path d="" fill="#FDFDFC" transform="translate(0,0)"/>
<path d="" fill="#F9F9FA" transform="translate(0,0)"/>
<path d="" fill="#F5F6F4" transform="translate(0,0)"/>
<path d="" fill="#FEFDFC" transform="translate(0,0)"/>
<path d="" fill="#F7F7F7" transform="translate(0,0)"/>
<path d="" fill="#FBFCFA" transform="translate(0,0)"/>
<path d="" fill="#FCFCFA" transform="translate(0,0)"/>
<path d="" fill="#FAFBFB" transform="translate(0,0)"/>
<path d="" fill="#F5F7F7" transform="translate(0,0)"/>
<path d="" fill="#FAFBF9" transform="translate(0,0)"/>
<path d="" fill="#FEFDFE" transform="translate(0,0)"/>
<path d="" fill="#F5F4F5" transform="translate(0,0)"/>
<path d="" fill="#FCFDFC" transform="translate(0,0)"/>
<path d="" fill="#FEFEFD" transform="translate(0,0)"/>
<path d="" fill="#F1F2F1" transform="translate(0,0)"/>
<path d="" fill="#FDFDFB" transform="translate(0,0)"/>
<path d="" fill="#FCFBFB" transform="translate(0,0)"/>
<path d="" fill="#FAFBFC" transform="translate(0,0)"/>
<path d="" fill="#FCFBFB" transform="translate(0,0)"/>
<path d="" fill="#F6F5F5" transform="translate(0,0)"/>
<path d="" fill="#F3F2F1" transform="translate(0,0)"/>
<path d="" fill="#FAFAFA" transform="translate(0,0)"/>
<path d="" fill="#F6F6F5" transform="translate(0,0)"/>
<path d="" fill="#F4F6F4" transform="translate(0,0)"/>
<path d="" fill="#FCFEFE" transform="translate(0,0)"/>
<path d="" fill="#FCFCFD" transform="translate(0,0)"/>
<path d="" fill="#F5F4F4" transform="translate(0,0)"/>
<path d="" fill="#FEFEFD" transform="translate(0,0)"/>
<path d="" fill="#F7F7F5" transform="translate(0,0)"/>
<path d="" fill="#F3F4F3" transform="translate(0,0)"/>
<path d="" fill="#FEFFFC" transform="translate(0,0)"/>
<path d="" fill="#F5F6F4" transform="translate(0,0)"/>
<path d="" fill="#F9F9F9" transform="translate(0,0)"/>
<path d="" fill="#FAFBFB" transform="translate(0,0)"/>
<path d="" fill="#FAFBFB" transform="translate(0,0)"/>
<path d="" fill="#FAFBFD" transform="translate(0,0)"/>
<path d="" fill="#F7F6F6" transform="translate(0,0)"/>
<path d="" fill="#F9FAFB" transform="translate(0,0)"/>
<path d="" fill="#FDFCFC" transform="translate(0,0)"/>
<path d="" fill="#FDFCFC" transform="translate(0,0)"/>
<path d="" fill="#FCFCFA" transform="translate(0,0)"/>
<path d="" fill="#F7F8F8" transform="translate(0,0)"/>
<path d="" fill="#FAFBFB" transform="translate(0,0)"/>
<path d="" fill="#F8FBF9" transform="translate(0,0)"/>
<path d="" fill="#F4F3F3" transform="translate(0,0)"/>
<path d="" fill="#FCFEFA" transform="translate(0,0)"/>
<path d="" fill="#F5F3F2" transform="translate(0,0)"/>
<path d="" fill="#FEFEFC" transform="translate(0,0)"/>
<path d="" fill="#F9F9F8" transform="translate(0,0)"/>
<path d="" fill="#F7F9F7" transform="translate(0,0)"/>
<path d="" fill="#FBF9F9" transform="translate(0,0)"/>
<path d="" fill="#FDFDFA" transform="translate(0,0)"/>
<path d="" fill="#FAFBFA" transform="translate(0,0)"/>
<path d="" fill="#FDFDFE" transform="translate(0,0)"/>
<path d="" fill="#FCFAFB" transform="translate(0,0)"/>
<path d="" fill="#FCFBFB" transform="translate(0,0)"/>
<path d="" fill="#FDFCF9" transform="translate(0,0)"/>
<path d="" fill="#FDFDFD" transform="translate(0,0)"/>
<path d="" fill="#F9FAF9" transform="translate(0,0)"/>
<path d="" fill="#FAFBFA" transform="translate(0,0)"/>
<path d="" fill="#FDFEFC" transform="translate(0,0)"/>
<path d="" fill="#FBFDFC" transform="translate(0,0)"/>
<path d="" fill="#F7F6F7" transform="translate(0,0)"/>
<path d="" fill="#FBFBFA" transform="translate(0,0)"/>
<path d="" fill="#FDFDFD" transform="translate(0,0)"/>
<path d="" fill="#F9F6F7" transform="translate(0,0)"/>
<path d="" fill="#FBFCF9" transform="translate(0,0)"/>
<path d="" fill="#FBFCFB" transform="translate(0,0)"/>
<path d="" fill="#FDFDFE" transform="translate(0,0)"/>
<path d="" fill="#F7F5F5" transform="translate(0,0)"/>
<path d="" fill="#FCFDFB" transform="translate(0,0)"/>
<path d="" fill="#FDFDFC" transform="translate(0,0)"/>
<path d="" fill="#FBFCFA" transform="translate(0,0)"/>
<path d="" fill="#F7F7F7" transform="translate(0,0)"/>
<path d="" fill="#FCFDFC" transform="translate(0,0)"/>
<path d="" fill="#FBFDFB" transform="translate(0,0)"/>
<path d="" fill="#FBFCFB" transform="translate(0,0)"/>
<path d="" fill="#F7F9F7" transform="translate(0,0)"/>
<path d="" fill="#F6F9F8" transform="translate(0,0)"/>
<path d="" fill="#FEFDFC" transform="translate(0,0)"/>
<path d="" fill="#F5F4F3" transform="translate(0,0)"/>
<path d="" fill="#FBFBFC" transform="translate(0,0)"/>
<path d="" fill="#FDFBFA" transform="translate(0,0)"/>
<path d="" fill="#F3F5F4" transform="translate(0,0)"/>
<path d="" fill="#F7F4F5" transform="translate(0,0)"/>
<path d="" fill="#F9FAFC" transform="translate(0,0)"/>
<path d="" fill="#F7F8F8" transform="translate(0,0)"/>
<path d="" fill="#FCFBF9" transform="translate(0,0)"/>
<path d="" fill="#F7F7F7" transform="translate(0,0)"/>
<path d="" fill="#F6F6F7" transform="translate(0,0)"/>
<path d="" fill="#FEFCFC" transform="translate(0,0)"/>
<path d="" fill="#F6F7F6" transform="translate(0,0)"/>
<path d="" fill="#F8F8F7" transform="translate(0,0)"/>
<path d="" fill="#FCF9FB" transform="translate(0,0)"/>
<path d="" fill="#FBFCFC" transform="translate(0,0)"/>
<path d="" fill="#FBFDFB" transform="translate(0,0)"/>
<path d="" fill="#FBFAFA" transform="translate(0,0)"/>
<path d="" fill="#F9F9F8" transform="translate(0,0)"/>
<path d="" fill="#F8F9FB" transform="translate(0,0)"/>
<path d="" fill="#F9F9F9" transform="translate(0,0)"/>
<path d="" fill="#F8F7F6" transform="translate(0,0)"/>
<path d="" fill="#F7F9F8" transform="translate(0,0)"/>
<path d="" fill="#FBFBFB" transform="translate(0,0)"/>
<path d="" fill="#FBFBFC" transform="translate(0,0)"/>
<path d="" fill="#FBFBFB" transform="translate(0,0)"/>
<path d="" fill="#F9FCF9" transform="translate(0,0)"/>
<path d="" fill="#F9F8F9" transform="translate(0,0)"/>
<path d="" fill="#F9FAFA" transform="translate(0,0)"/>
<path d="" fill="#F9FAF9" transform="translate(0,0)"/>
<path d="" fill="#FAFBFA" transform="translate(0,0)"/>
<path d="" fill="#FCFAFB" transform="translate(0,0)"/>
<path d="" fill="#FAFAFA" transform="translate(0,0)"/>
<path d="" fill="#FBFBF9" transform="translate(0,0)"/>
<path d="" fill="#FAFBFB" transform="translate(0,0)"/>
<path d="" fill="#F6F7F5" transform="translate(0,0)"/>
<path d="" fill="#F9FAF8" transform="translate(0,0)"/>
<path d="" fill="#FCFBFC" transform="translate(0,0)"/>
<path d="" fill="#FAF8FB" transform="translate(0,0)"/>
<path d="" fill="#F7F7F4" transform="translate(0,0)"/>
<path d="" fill="#FCFBFB" transform="translate(0,0)"/>
<path d="" fill="#FAF8FA" transform="translate(0,0)"/>
<path d="" fill="#FCFCFC" transform="translate(0,0)"/>
<path d="" fill="#FAFBFC" transform="translate(0,0)"/>
<path d="" fill="#FBFBFA" transform="translate(0,0)"/>
<path d="" fill="#FAFCF9" transform="translate(0,0)"/>
<path d="" fill="#FBFCFB" transform="translate(0,0)"/>
<path d="" fill="#FAFAFC" transform="translate(0,0)"/>
<path d="" fill="#FBFBFA" transform="translate(0,0)"/>
<path d="" fill="#FCFBFC" transform="translate(0,0)"/>
<path d="" fill="#FCFBFA" transform="translate(0,0)"/>
<path d="" fill="#F4F4F3" transform="translate(0,0)"/>
<path d="" fill="#F6F6F6" transform="translate(0,0)"/>
<path d="" fill="#FBFAFB" transform="translate(0,0)"/>
<path d="" fill="#FDFDFC" transform="translate(0,0)"/>
<path d="" fill="#FBFAFC" transform="translate(0,0)"/>
<path d="" fill="#FCFBFA" transform="translate(0,0)"/>
<path d="" fill="#FDFCFB" transform="translate(0,0)"/>
<path d="" fill="#F5F4F3" transform="translate(0,0)"/>
<path d="" fill="#F9F9F9" transform="translate(0,0)"/>
<path d="" fill="#FBFBFB" transform="translate(0,0)"/>
<path d="" fill="#F9FAF9" transform="translate(0,0)"/>
<path d="" fill="#F5F7F4" transform="translate(0,0)"/>
<path d="" fill="#FAF9F9" transform="translate(0,0)"/>
<path d="" fill="#FCFBFC" transform="translate(0,0)"/>
<path d="" fill="#FEFCFD" transform="translate(0,0)"/>
<path d="" fill="#FBFDFB" transform="translate(0,0)"/>
<path d="" fill="#FBF9FB" transform="translate(0,0)"/>
<path d="" fill="#F5F4F4" transform="translate(0,0)"/>
<path d="" fill="#FAFDFC" transform="translate(0,0)"/>
<path d="" fill="#F9FCFB" transform="translate(0,0)"/>
<path d="" fill="#FAFAFA" transform="translate(0,0)"/>
<path d="" fill="#FBFCFB" transform="translate(0,0)"/>
<path d="" fill="#FAFBFA" transform="translate(0,0)"/>
<path d="" fill="#FAFCF9" transform="translate(0,0)"/>
<path d="" fill="#F4F2F3" transform="translate(0,0)"/>
<path d="" fill="#F9FAF9" transform="translate(0,0)"/>
<path d="" fill="#F8FAFB" transform="translate(0,0)"/>
<path d="" fill="#FAFBFA" transform="translate(0,0)"/>
<path d="" fill="#FAFAFA" transform="translate(0,0)"/>
<path d="" fill="#FCFAFC" transform="translate(0,0)"/>
<path d="" fill="#FBFCFD" transform="translate(0,0)"/>
<path d="" fill="#FCFBFC" transform="translate(0,0)"/>
<path d="" fill="#FAFAF8" transform="translate(0,0)"/>
<path d="" fill="#FBFBFB" transform="translate(0,0)"/>
<path d="" fill="#F4F5F2" transform="translate(0,0)"/>
<path d="" fill="#FAFAF8" transform="translate(0,0)"/>
<path d="" fill="#F4F3F3" transform="translate(0,0)"/>
<path d="" fill="#F9F8F7" transform="translate(0,0)"/>
<path d="" fill="#F3F5F5" transform="translate(0,0)"/>
<path d="" fill="#F7F6F5" transform="translate(0,0)"/>
<path d="" fill="#F7F9F7" transform="translate(0,0)"/>
<path d="" fill="#FAFBFA" transform="translate(0,0)"/>
<path d="" fill="#F5F6F8" transform="translate(0,0)"/>
<path d="" fill="#FCFCF8" transform="translate(0,0)"/>
<path d="" fill="#F5F6F5" transform="translate(0,0)"/>
<path d="" fill="#F6F6F6" transform="translate(0,0)"/>
<path d="" fill="#FAF8F9" transform="translate(0,0)"/>
<path d="" fill="#E8E8EA" transform="translate(0,0)"/>
<path d="" fill="#FAFAFB" transform="translate(0,0)"/>
<path d="" fill="#FAFCFB" transform="translate(0,0)"/>
<path d="" fill="#F6F9F9" transform="translate(0,0)"/>
<path d="" fill="#EEEDED" transform="translate(0,0)"/>
<path d="" fill="#FBFBFB" transform="translate(0,0)"/>
<path d="" fill="#FAFCF9" transform="translate(0,0)"/>
<path d="" fill="#F8F8F7" transform="translate(0,0)"/>
<path d="" fill="#FBFBFA" transform="translate(0,0)"/>
<path d="" fill="#F7F8F8" transform="translate(0,0)"/>
<path d="" fill="#F8F7F5" transform="translate(0,0)"/>
<path d="" fill="#F6F9F8" transform="translate(0,0)"/>
<path d="" fill="#F7F7F6" transform="translate(0,0)"/>
<path d="" fill="#F9F9F7" transform="translate(0,0)"/>
<path d="" fill="#F9FAFA" transform="translate(0,0)"/>
<path d="" fill="#F7F6F4" transform="translate(0,0)"/>
<path d="" fill="#F7F7F7" transform="translate(0,0)"/>
<path d="" fill="#F6F8F8" transform="translate(0,0)"/>
<path d="" fill="#F8FAFA" transform="translate(0,0)"/>
<path d="" fill="#F5F6F7" transform="translate(0,0)"/>
<path d="" fill="#F6F4F5" transform="translate(0,0)"/>
<path d="" fill="#F9FAF9" transform="translate(0,0)"/>
<path d="" fill="#F3F5F4" transform="translate(0,0)"/>
<path d="" fill="#FCFDFC" transform="translate(0,0)"/>
<path d="" fill="#FAFBFB" transform="translate(0,0)"/>
<path d="" fill="#FAFCF9" transform="translate(0,0)"/>
<path d="" fill="#F6F6F5" transform="translate(0,0)"/>
<path d="" fill="#F9FAF8" transform="translate(0,0)"/>
<path d="" fill="#F9FAF9" transform="translate(0,0)"/>
<path d="" fill="#F4F4F3" transform="translate(0,0)"/>
<path d="" fill="#F7F8F6" transform="translate(0,0)"/>
<path d="" fill="#F5F4F4" transform="translate(0,0)"/>
<path d="" fill="#F4F4F2" transform="translate(0,0)"/>
<path d="" fill="#F4F4F5" transform="translate(0,0)"/>
<path d="" fill="#F9FAF9" transform="translate(0,0)"/>
<path d="" fill="#F4F3F3" transform="translate(0,0)"/>
<path d="" fill="#F9FAF9" transform="translate(0,0)"/>
<path d="" fill="#FAFCFA" transform="translate(0,0)"/>
<path d="" fill="#FAFBFA" transform="translate(0,0)"/>
<path d="" fill="#FBFCF9" transform="translate(0,0)"/>
<path d="" fill="#FAFCFB" transform="translate(0,0)"/>
<path d="" fill="#F4F5F4" transform="translate(0,0)"/>
<path d="" fill="#F8F9F8" transform="translate(0,0)"/>
<path d="" fill="#F5F5F5" transform="translate(0,0)"/>
<path d="" fill="#FAFAF9" transform="translate(0,0)"/>
<path d="" fill="#F9FAF9" transform="translate(0,0)"/>
<path d="" fill="#F9F9F8" transform="translate(0,0)"/>
<path d="" fill="#F6F7F6" transform="translate(0,0)"/>
<path d="" fill="#F5F7F6" transform="translate(0,0)"/>
<path d="" fill="#F4F2F3" transform="translate(0,0)"/>
<path d="" fill="#F5F4F3" transform="translate(0,0)"/>
<path d="" fill="#FAF9F7" transform="translate(0,0)"/>
<path d="" fill="#F3F3F4" transform="translate(0,0)"/>
<path d="" fill="#F9F9F9" transform="translate(0,0)"/>
<path d="" fill="#F6F6F7" transform="translate(0,0)"/>
<path d="" fill="#F8F8F7" transform="translate(0,0)"/>
<path d="" fill="#F5F6F4" transform="translate(0,0)"/>
<path d="" fill="#F7F8F9" transform="translate(0,0)"/>
<path d="" fill="#F9F9FA" transform="translate(0,0)"/>
<path d="" fill="#F2F3F2" transform="translate(0,0)"/>
<path d="" fill="#F7F8F6" transform="translate(0,0)"/>
<path d="" fill="#F7F6F6" transform="translate(0,0)"/>
<path d="" fill="#F5F6F5" transform="translate(0,0)"/>
<path d="" fill="#F7F8F7" transform="translate(0,0)"/>
<path d="" fill="#F6F3F4" transform="translate(0,0)"/>
<path d="" fill="#F7F8F7" transform="translate(0,0)"/>
<path d="" fill="#F5F5F3" transform="translate(0,0)"/>
<path d="" fill="#F3F2EE" transform="translate(0,0)"/>
<path d="" fill="#F3F5F1" transform="translate(0,0)"/>
<path d="" fill="#F3F2F2" transform="translate(0,0)"/>
<path d="" fill="#F0F1EF" transform="translate(0,0)"/>
<path d="" fill="#EFF0F0" transform="translate(0,0)"/>
<path d="" fill="#EFEFEE" transform="translate(0,0)"/>
<path d="" fill="#EEEEEC" transform="translate(0,0)"/>
<path d="" fill="#EFEFEE" transform="translate(0,0)"/>
<path d="" fill="#F0F0ED" transform="translate(0,0)"/>
<path d="" fill="#ECEBEB" transform="translate(0,0)"/>
<path d="" fill="#E9E9EB" transform="translate(0,0)"/>
<path d="" fill="#E7E8E6" transform="translate(0,0)"/>
<path d="" fill="#E3E6E3" transform="translate(0,0)"/>
</svg>
