<?xml version="1.0" encoding="UTF-8"?>
<svg version="1.1" xmlns="http://www.w3.org/2000/svg" width="1024" height="1024">
<path d="M0 0 C-0.33 0.66 -0.66 1.32 -1 2 C-0.38688965 2.10884521 0.2262207 2.21769043 0.85791016 2.32983398 C6.89432165 3.46043599 12.59359259 5.00144558 18.375 7.0625 C19.23440186 7.36776611 20.09380371 7.67303223 20.97924805 7.98754883 C30.56558201 11.46817113 39.82131842 15.56349493 49 20 C49.90089355 20.4340918 50.80178711 20.86818359 51.72998047 21.31542969 C77.2760629 33.7741056 100.60976153 50.07466288 122.0690918 68.66333008 C124.85324535 71.09254339 124.85324535 71.09254339 128 73 C128 73.66 128 74.32 128 75 C128.87724731 75.38937744 128.87724731 75.38937744 129.7722168 75.78662109 C132.15870354 77.08643908 133.73302211 78.48956722 135.64453125 80.4140625 C136.32193359 81.09339844 136.99933594 81.77273437 137.69726562 82.47265625 C138.39529297 83.18292969 139.09332031 83.89320313 139.8125 84.625 C140.49892578 85.31207031 141.18535156 85.99914062 141.89257812 86.70703125 C149.04384565 93.91918941 155.5753312 101.62686935 162.08007812 109.41796875 C164.0459797 111.75685878 166.01261626 114.01223666 168.20703125 116.140625 C170.05608764 118.05816496 170.84908819 119.61718629 172 122 C173.5989161 124.33709165 175.21677916 126.64354726 176.875 128.9375 C177.30941406 129.54529297 177.74382813 130.15308594 178.19140625 130.77929688 C180.13166435 133.47992639 182.09652285 136.11944703 184.1875 138.70703125 C185.75479096 140.68978942 186.95606047 142.52257192 188.125 144.75 C189.73580052 147.74078511 191.39758929 150.68426337 193.15625 153.58984375 C218 194.71435013 218 194.71435013 218 206 C218.66 206.33 219.32 206.66 220 207 C220.73510742 208.90063477 220.73510742 208.90063477 221.41796875 211.37890625 C221.67497559 212.28785645 221.93198242 213.19680664 222.19677734 214.13330078 C222.46184082 215.07931152 222.7269043 216.02532227 223 217 C223.53374204 218.76033798 224.07151826 220.51945773 224.61328125 222.27734375 C233.92642897 253.07147506 240.31221823 284.74540679 241 317 C241.02046387 317.66515625 241.04092773 318.3303125 241.06201172 319.015625 C243.67720193 409.61791725 206.48699382 494.75036924 145 560 C138.47749565 566.84376203 138.47749565 566.84376203 136 569 C135.34 569 134.68 569 134 569 C134 569.66 134 570.32 134 571 C131.57997483 573.58239107 128.72451318 575.74862949 126 578 C125.49549316 578.42071777 124.99098633 578.84143555 124.47119141 579.27490234 C109.30142686 591.87796261 93.17459893 603.29435456 76 613 C74.79053711 613.69174316 74.79053711 613.69174316 73.55664062 614.39746094 C39.14697869 634 39.14697869 634 31 634 C30.67 634.99 30.34 635.98 30 637 C30 636.34 30 635.68 30 635 C28.61554688 635.54527344 28.61554688 635.54527344 27.203125 636.1015625 C-48.81658614 665.59760688 -131.97100906 664.30275439 -207.96069336 635.57666016 C-209.23891968 635.09398682 -209.23891968 635.09398682 -210.54296875 634.6015625 C-211.28571045 634.31619629 -212.02845215 634.03083008 -212.79370117 633.73681641 C-215.17457891 632.94169756 -217.53166161 632.44434974 -220 632 C-220 631.34 -220 630.68 -220 630 C-220.5256958 629.8450708 -221.0513916 629.6901416 -221.59301758 629.53051758 C-227.98293697 627.53710799 -233.77364019 624.80321857 -239.6875 621.6875 C-240.68426758 621.16333496 -241.68103516 620.63916992 -242.70800781 620.09912109 C-263.18163725 609.15298378 -283.76730727 596.17149779 -300.69921875 580.16015625 C-302.66504138 578.31448576 -304.66873396 576.5523514 -306.7109375 574.79296875 C-311.30119592 570.79042553 -315.6341974 566.55743069 -319.9375 562.25 C-320.72946777 561.45795166 -321.52143555 560.66590332 -322.33740234 559.84985352 C-327.25017267 554.88899817 -331.84025633 549.86552102 -336.13671875 544.359375 C-337.97653775 542.02970902 -339.92213378 539.86584455 -341.9375 537.6875 C-347.18160746 531.88190224 -351.54595887 525.41637483 -356 519 C-355.01 518.67 -354.02 518.34 -353 518 C-351.0390625 519.23046875 -351.0390625 519.23046875 -348.625 521.1875 C-340.78444516 527.11446296 -332.25350187 531.77613015 -323.66503906 536.52587891 C-321.98141876 537.45714488 -320.30067169 538.39364164 -318.62402344 539.33740234 C-300.89468401 549.29912768 -282.02040518 556.92892876 -262.6875 563.1875 C-261.34594849 563.62485474 -261.34594849 563.62485474 -259.97729492 564.07104492 C-255.52224104 565.45338081 -251.72277618 566.34669646 -247 566 C-246.67 566.66 -246.34 567.32 -246 568 C-243.77031623 568.80110743 -243.77031623 568.80110743 -241.0234375 569.40234375 C-239.44695435 569.77613159 -239.44695435 569.77613159 -237.83862305 570.1574707 C-236.12412964 570.54358521 -236.12412964 570.54358521 -234.375 570.9375 C-232.60733276 571.33618286 -232.60733276 571.33618286 -230.80395508 571.74291992 C-192.36972323 580.15855344 -152.51281354 579.8831565 -114 572 C-112.85096191 571.76684082 -111.70192383 571.53368164 -110.51806641 571.29345703 C-54.67250701 559.70652934 -2.82317765 534.79203929 40 497 C40.90234375 496.20851563 41.8046875 495.41703125 42.734375 494.6015625 C50.70510843 487.52451736 58.07712829 480.0997599 65 472 C65.78890625 471.11183594 66.5778125 470.22367188 67.390625 469.30859375 C79.58123116 455.44766746 89.88624063 440.02722583 99 424 C99.4017041 423.30197266 99.8034082 422.60394531 100.21728516 421.88476562 C135.67234164 360.1551014 148.27494488 285.55684978 134.38037109 215.5012207 C133.99406098 212.96094658 133.93393696 210.56525659 134 208 C133.34 208 132.68 208 132 208 C131.95101563 207.40574219 131.90203125 206.81148437 131.8515625 206.19921875 C130.99940613 196.50298551 130.99940613 196.50298551 129 187 C128.34 186.67 127.68 186.34 127 186 C126.54296875 184.20703125 126.54296875 184.20703125 126.1875 181.8125 C125.14385775 175.94095173 123.13182228 170.55517368 121.0234375 165.00390625 C120 162 120 162 120 159 C119.34 159.99 118.68 160.98 118 162 C117.34 161.67 116.68 161.34 116 161 C116.61488281 160.06607422 116.61488281 160.06607422 117.2421875 159.11328125 C118.44287593 154.18055611 116.19713862 150.66701751 114.125 146.1875 C113.70516846 145.24970703 113.28533691 144.31191406 112.8527832 143.34570312 C111.59120403 140.55266536 110.30196151 137.77441189 109 135 C108.49170654 133.90872803 108.49170654 133.90872803 107.97314453 132.79541016 C97.04892612 109.56509666 83.38958122 87.76177381 67 68 C66.41734375 67.24589844 65.8346875 66.49179688 65.234375 65.71484375 C59.00698657 57.66895323 52.03659794 50.33441246 45 43 C44.46262207 42.43925781 43.92524414 41.87851563 43.37158203 41.30078125 C36.65406709 34.33228223 29.65279373 27.94363779 22 22 C21.35337402 21.49291504 20.70674805 20.98583008 20.04052734 20.46337891 C12.22149794 14.33874235 4.45289435 8.35375492 -4.09375 3.26953125 C-6 2 -6 2 -7 0 C-2.25 -1.125 -2.25 -1.125 0 0 Z " fill="#0C0D0C" transform="translate(596,154)"/>
<path d="M0 0 C0.86383301 0.22042969 1.72766602 0.44085938 2.61767578 0.66796875 C23.17285931 6.04224464 41.82841555 14.47684199 59 27 C60.27037109 27.92425781 60.27037109 27.92425781 61.56640625 28.8671875 C69.46445328 34.82849604 76.76564308 41.56432166 83.625 48.6875 C84.98621473 50.11564313 84.98621473 50.11564313 87 51 C88.01241622 52.65915375 89.00943582 54.32770805 90 56 C91.2154288 57.62394231 92.432224 59.24697143 93.66674805 60.85644531 C122.18339506 98.26677461 132.67867066 145.50538428 126.875 191.875 C123.8353156 213.57554074 116.67682376 235.03096615 104.70581055 253.45849609 C103.75173139 254.94002177 102.86806421 256.46649098 102 258 C102.33 258.66 102.66 259.32 103 260 C102.12988281 260.33451172 102.12988281 260.33451172 101.2421875 260.67578125 C98.32846899 262.39660107 97.05298669 264.40804837 95.125 267.1875 C72.68076609 298.29467245 37.55864778 321.39182972 -0.31640625 328.44140625 C-2.13978516 328.71791016 -2.13978516 328.71791016 -4 329 C-4.6997998 329.10683105 -5.39959961 329.21366211 -6.12060547 329.32373047 C-18.05866415 331.04303573 -29.90923724 331.10246413 -41.9375 330.75 C-42.64130798 330.73134888 -43.34511597 330.71269775 -44.07025146 330.69348145 C-50.77637899 330.50189459 -56.66083184 330.3193149 -63 328 C-64.32386092 327.64520466 -65.65303099 327.30918316 -66.98828125 327 C-67.69090088 326.8359668 -68.39352051 326.67193359 -69.11743164 326.50292969 C-70.20399048 326.25397949 -70.20399048 326.25397949 -71.3125 326 C-72.06072021 325.82629883 -72.80894043 325.65259766 -73.57983398 325.47363281 C-78.71316527 324.28520168 -83.85198249 323.12320382 -89 322 C-89 321.34 -89 320.68 -89 320 C-89.52464844 319.88785156 -90.04929687 319.77570313 -90.58984375 319.66015625 C-125.64021295 310.73718372 -155.33659583 278.34744682 -173.24658203 248.66430664 C-179.97453407 237.15360956 -190 219.5283204 -190 206 C-190.99 206 -191.98 206 -193 206 C-192.80664062 205.35933594 -192.61328125 204.71867188 -192.4140625 204.05859375 C-191.84641763 199.86551887 -192.62264669 196.19859217 -193.375 192.0625 C-200.79296347 148.08606796 -193.49335909 102.83482426 -167.984375 65.7578125 C-154.45445517 46.95441998 -138.15139589 30.59664854 -118 19 C-117.23300781 18.55769043 -116.46601563 18.11538086 -115.67578125 17.65966797 C-81.63376352 -1.67935113 -38.54446845 -10.19866957 0 0 Z " fill="#0C0D0C" transform="translate(401,350)"/>
<path d="M0 0 C0.495 0.99 0.495 0.99 1 2 C1.51820313 1.66484375 2.03640625 1.3296875 2.5703125 0.984375 C5.86633631 -0.35099156 8.33211586 -0.02989521 11.875 0.25 C12.57133545 0.30446289 13.2676709 0.35892578 13.98510742 0.41503906 C15.51409277 0.5371577 17.04265336 0.66468342 18.57080078 0.796875 C21.04467564 1.00373569 23.51930964 1.17560574 25.99609375 1.34375 C43.39655264 2.62205187 63.06007917 4.14246219 79.16113281 11.21923828 C82.01551882 12.43117754 84.94983007 13.41017008 87.875 14.4375 C101.02413197 19.20671527 113.51192107 25.73896532 126 32 C126.66 32.33 127.32 32.66 128 33 C129.59418327 34.13068925 131.17532923 35.27979087 132.75 36.4375 C135.92754715 38.76991075 139.10820037 41.08644606 142.34765625 43.33203125 C163.54092776 58.06757763 182.09914196 75.88749559 197 97 C197.45455566 97.64179199 197.90911133 98.28358398 198.37744141 98.94482422 C221.17898852 131.44309977 234.34240036 167.57740861 239 207 C239.13148438 208.09441406 239.26296875 209.18882812 239.3984375 210.31640625 C243.78491365 255.78163874 234.01516003 302.44584383 209.00390625 340.8046875 C206.91876509 343.8501476 206.91876509 343.8501476 206 347 C204.86779643 348.13220357 203.73100876 349.26011626 202.57421875 350.3671875 C200.64634326 352.36682014 198.96546446 354.50293647 197.25 356.6875 C193.70143601 361.19041264 189.95669857 365.45539094 186.078125 369.67578125 C184.63286867 371.29218635 183.2425801 372.95874155 181.8984375 374.66015625 C179.83919514 377.19819364 177.55764526 378.98080638 175 381 C174.34 381.99 173.68 382.98 173 384 C171.81430254 384.9884246 170.58796325 385.92909538 169.3359375 386.83203125 C166.64626144 388.79691167 163.97815271 390.77565072 161.3515625 392.82421875 C118.12576174 426.19028824 65.56354774 442.4757721 11 442 C11 441.34 11 440.68 11 440 C11.65782471 439.71914551 12.31564941 439.43829102 12.9934082 439.14892578 C59.18394485 419.90263243 59.18394485 419.90263243 95 386 C95 385.34 95 384.68 95 384 C95.7425 383.79375 96.485 383.5875 97.25 383.375 C100.83286531 381.58356735 101.88806031 379.36590389 104 376 C104.73863281 375.278125 105.47726562 374.55625 106.23828125 373.8125 C130.02481775 349.5885873 143.73592361 313.68561469 150.4375 281.0625 C150.60161377 280.26457031 150.76572754 279.46664063 150.93481445 278.64453125 C151.87693817 273.68454251 152.14356004 269.04757092 152 264 C152.66 264 153.32 264 154 264 C154 248.16 154 232.32 154 216 C153.34 216 152.68 216 152 216 C151.97421875 215.19820312 151.9484375 214.39640625 151.921875 213.5703125 C151.41390867 203.38789643 149.40849696 193.8804387 147 184 C146.34 184.33 145.68 184.66 145 185 C144.61936779 182.6739143 144.28730055 180.33944736 144 178 C144.33 177.67 144.66 177.34 145 177 C138.97802263 159.2456421 132.24219314 142.35430335 123 126 C122.58766113 125.25717773 122.17532227 124.51435547 121.75048828 123.74902344 C121.11796143 122.66282715 121.11796143 122.66282715 120.47265625 121.5546875 C120.0950415 120.89710449 119.71742676 120.23952148 119.32836914 119.56201172 C117.68252676 117.62668742 116.46940457 117.37176642 114 117 C114.0928125 116.30390625 114.185625 115.6078125 114.28125 114.890625 C113.89842319 110.95601607 111.9254934 108.70527453 109.5 105.75 C109.05092285 105.18369873 108.6018457 104.61739746 108.13916016 104.03393555 C104.72740308 99.77255569 101.13494605 95.68722514 97.3984375 91.70703125 C96 90 96 90 96 88 C95.34 88 94.68 88 94 88 C94 87.34 94 86.68 94 86 C93.34 86 92.68 86 92 86 C90.66015625 84.6015625 90.66015625 84.6015625 89.0625 82.625 C58.11433744 46.57133608 6.26962446 23.89428898 -40.52734375 20.26953125 C-51.33081756 19.62683167 -62.18399433 19.84115672 -73 20 C-70.46941723 14.93883445 -59.20204092 12.74722225 -54 11 C-36.65861418 5.65208963 -18.27071147 1.01535088 0 2 C0 1.34 0 0.68 0 0 Z M115 114 C116 116 116 116 116 116 Z " fill="#0C0D0C" transform="translate(424,264)"/>
<path d="M0 0 C0.33 0 0.66 0 1 0 C4.08217459 21.63507015 5.11564904 43.20125897 3 65 C2.34 65 1.68 65 1 65 C0.67 65.99 0.34 66.98 0 68 C0 45.56 0 23.12 0 0 Z " fill="#151514" transform="translate(660,456)"/>
<path d="M0 0 C0.66 0.33 1.32 0.66 2 1 C6.18087142 13.54261427 3.32673448 31.03024121 1.625 43.9375 C1.49899414 44.89495117 1.37298828 45.85240234 1.24316406 46.83886719 C0.63989222 50.9805315 0.03552026 54.30110591 -2 58 C-2.86205171 53.19193691 -2.96000723 49.30415117 -2.125 44.5 C0.17837187 29.68371611 0.13320625 14.9539385 0 0 Z " fill="#1D1D1C" transform="translate(526,499)"/>
<path d="M0 0 C0 0.66 0 1.32 0 2 C0.58722839 1.97272324 1.17445679 1.94544647 1.77947998 1.91734314 C7.9445548 1.63250183 14.11004722 1.35852278 20.27587891 1.09057617 C22.57059725 0.98946666 24.86519924 0.88567669 27.15966797 0.77905273 C30.47595973 0.62542721 33.79256366 0.48175435 37.109375 0.33984375 C38.11925476 0.29093491 39.12913452 0.24202606 40.1696167 0.19163513 C47.18957792 -0.09569985 54.01402276 0.26974619 61 1 C61 1.33 61 1.66 61 2 C57.10842038 2.2909303 53.21642218 2.57540925 49.32397461 2.85449219 C47.36613744 2.99611993 45.40864762 3.1425241 43.45117188 3.2890625 C31.36075763 4.15046606 19.41397723 4.11670299 7.3125 3.5625 C6.35794922 3.52318359 5.40339844 3.48386719 4.41992188 3.44335938 C-1.74749232 3.17046494 -7.86447534 2.68209693 -14 2 C-14 1.67 -14 1.34 -14 1 C-12.22932584 0.83165067 -10.45845388 0.66538091 -8.6875 0.5 C-7.70136719 0.4071875 -6.71523438 0.314375 -5.69921875 0.21875 C-3 0 -3 0 0 0 Z " fill="#151413" transform="translate(483,808)"/>
<path d="M0 0 C0.33 0.66 0.66 1.32 1 2 C1.50789063 1.66355469 2.01578125 1.32710938 2.5390625 0.98046875 C5.97656536 -0.38907604 8.69836245 0.01273486 12.375 0.3125 C13.07238281 0.36591553 13.76976562 0.41933105 14.48828125 0.47436523 C15.93622765 0.58580867 17.38382887 0.70182536 18.83105469 0.82226562 C22.21863488 1.09986112 25.60919393 1.32769876 29 1.5625 C31.00005383 1.70759319 33.00007582 1.85313057 35 2 C35 2.33 35 2.66 35 3 C26.47238671 3.72355507 17.99591167 4.10605848 9.4375 4.125 C8.59348633 4.12951172 7.74947266 4.13402344 6.87988281 4.13867188 C2.47339003 4.1281174 -1.6621869 3.8858419 -6 3 C-6 3.66 -6 4.32 -6 5 C-12.93 4.505 -12.93 4.505 -20 4 C-20 3.67 -20 3.34 -20 3 C-13.30324864 1.96973056 -6.7685324 1.89847201 0 2 C0 1.34 0 0.68 0 0 Z " fill="#201F1E" transform="translate(424,264)"/>
<path d="M0 0 C0.33 0 0.66 0 1 0 C1.41015625 2.05859375 1.41015625 2.05859375 1 5 C-0.90647372 7.63895691 -3.21362691 9.81833858 -5.5625 12.0625 C-6.47612305 12.97999023 -6.47612305 12.97999023 -7.40820312 13.91601562 C-11.33321198 17.75795551 -15.17054261 20.40728147 -20 23 C-21.35147138 24.31494512 -22.69112542 25.64264858 -24 27 C-24.66 27 -25.32 27 -26 27 C-26.66 28.32 -27.32 29.64 -28 31 C-29.32 30.67 -30.64 30.34 -32 30 C-31.32195312 29.45472656 -30.64390625 28.90945313 -29.9453125 28.34765625 C-17.51380639 18.6309939 -17.51380639 18.6309939 -7 7 C-7 6.34 -7 5.68 -7 5 C-6.21625 4.731875 -5.4325 4.46375 -4.625 4.1875 C-1.71885077 3.15185568 -1.71885077 3.15185568 0 0 Z " fill="#161615" transform="translate(526,643)"/>
<path d="M0 0 C-9.85068082 5.03479242 -20.76003043 4.15348783 -31.5625 3.75 C-32.73619141 3.72292969 -33.90988281 3.69585938 -35.11914062 3.66796875 C-36.23611328 3.62800781 -37.35308594 3.58804688 -38.50390625 3.546875 C-39.51267822 3.51432617 -40.5214502 3.48177734 -41.56079102 3.44824219 C-42.36572998 3.30032227 -43.17066895 3.15240234 -44 3 C-44.66 2.01 -45.32 1.02 -46 0 C-45.0934668 0.00523682 -44.18693359 0.01047363 -43.25292969 0.01586914 C-39.83104798 0.0330963 -36.40921357 0.04553905 -32.98730469 0.05493164 C-31.51724512 0.05990456 -30.04719035 0.06668527 -28.57714844 0.07543945 C-20.41438264 0.1227679 -12.35882246 0.01736897 -4.23144531 -0.88110352 C-2 -1 -2 -1 0 0 Z " fill="#151514" transform="translate(394,677)"/>
<path d="M0 0 C0.33 0 0.66 0 1 0 C2.73246934 21.55910647 3.42764808 42.43231644 2 64 C1.67 64 1.34 64 1 64 C0.3795998 49.71594531 -0.14583379 35.46152122 0.03710938 21.16186523 C0.04548828 20.27442627 0.05386719 19.3869873 0.0625 18.47265625 C0.07410156 17.70187744 0.08570313 16.93109863 0.09765625 16.13696289 C-0.00174362 13.96184518 -0.45458566 12.10070379 -1 10 C-0.91760895 8.245868 -0.76901219 6.49388075 -0.5625 4.75 C-0.46066406 3.85796875 -0.35882812 2.9659375 -0.25390625 2.046875 C-0.17011719 1.37140625 -0.08632813 0.6959375 0 0 Z " fill="#2E2E2D" transform="translate(834,443)"/>
<path d="M0 0 C0.33 1.32 0.66 2.64 1 4 C0.236875 4.53625 -0.52625 5.0725 -1.3125 5.625 C-4.11807314 7.78512427 -4.11807314 7.78512427 -5.25 10.6875 C-9.06773774 17.91393214 -16.11379521 23.24508481 -22.2734375 28.4921875 C-23.92296942 29.93272895 -25.47079574 31.43326925 -27 33 C-27.66 32.67 -28.32 32.34 -29 32 C-28.14277344 31.154375 -27.28554688 30.30875 -26.40234375 29.4375 C-16.95159692 20.07799794 -8.37980425 10.33699209 0 0 Z " fill="#1B1B1A" transform="translate(670,615)"/>
<path d="M0 0 C3.15765714 1.39720114 5.28706899 3.04044675 7.71484375 5.484375 C8.74448242 6.51691406 8.74448242 6.51691406 9.79492188 7.5703125 C10.50197266 8.28960937 11.20902344 9.00890625 11.9375 9.75 C12.64068359 10.45382812 13.34386719 11.15765625 14.06835938 11.8828125 C16.06923349 13.90056372 18.04167254 15.94099396 20 18 C20.54543457 18.56525391 21.09086914 19.13050781 21.65283203 19.71289062 C23.06640625 21.265625 23.06640625 21.265625 25 24 C24.8125 26.375 24.8125 26.375 24 28 C22.82739389 26.71372289 21.6620717 25.42080217 20.5 24.125 C19.8503125 23.40570313 19.200625 22.68640625 18.53125 21.9453125 C17 20 17 20 17 18 C16.34 18 15.68 18 15 18 C15 17.34 15 16.68 15 16 C14.34 16 13.68 16 13 16 C11.51953125 14.4609375 11.51953125 14.4609375 9.8125 12.375 C6.49442504 8.45744091 2.9733949 5.24358767 -1 2 C-0.67 1.34 -0.34 0.68 0 0 Z " fill="#1A1A19" transform="translate(503,334)"/>
<path d="M0 0 C14.52 0 29.04 0 44 0 C44 0.33 44 0.66 44 1 C35.83118818 2.07651009 27.66395083 2.32434799 19.4375 2.5625 C18.03319297 2.60579176 16.62889594 2.64940904 15.22460938 2.69335938 C11.81649049 2.79876511 8.4083068 2.90088982 5 3 C5 2.34 5 1.68 5 1 C3.35 1 1.7 1 0 1 C0 0.67 0 0.34 0 0 Z " fill="#2B2A28" transform="translate(400,732)"/>
<path d="M0 0 C2.82102127 0.34001662 3.82024089 0.79178888 5.70751953 2.9777832 C6.26036621 3.82687256 6.81321289 4.67596191 7.3828125 5.55078125 C7.99253906 6.47697266 8.60226562 7.40316406 9.23046875 8.35742188 C9.85566406 9.33259766 10.48085938 10.30777344 11.125 11.3125 C11.75792969 12.27607422 12.39085937 13.23964844 13.04296875 14.23242188 C18.04463882 21.89421583 18.04463882 21.89421583 20 26 C19.34 26.66 18.68 27.32 18 28 C17.66790527 27.47156494 17.33581055 26.94312988 16.99365234 26.39868164 C15.45535093 23.95249959 13.91518424 21.50749697 12.375 19.0625 C11.59189453 17.81629883 11.59189453 17.81629883 10.79296875 16.54492188 C7.27983313 10.97161412 3.6818461 5.46330461 0 0 Z " fill="#1C1B1A" transform="translate(673,234)"/>
<path d="M0 0 C0.66 0.33 1.32 0.66 2 1 C-3 6 -3 6 -4.9375 7.875 C-6.61050275 9.5986998 -8.1045764 11.33488301 -9.625 13.1875 C-13.62904247 17.93456066 -18.32805234 21.92820372 -23 26 C-23 22.38462432 -22.4082652 21.99712389 -20 19.453125 C-19.03900391 18.4321875 -19.03900391 18.4321875 -18.05859375 17.390625 C-17.37925781 16.68421875 -16.69992188 15.9778125 -16 15.25 C-15.35160156 14.5590625 -14.70320312 13.868125 -14.03515625 13.15625 C-9.59359484 8.47721897 -4.92653029 4.16331117 0 0 Z " fill="#1A1A19" transform="translate(264,382)"/>
<path d="M0 0 C0.99 0.66 1.98 1.32 3 2 C-0.91265461 4.15321008 -4.83077505 6.29627584 -8.75 8.4375 C-10.41675781 9.35499023 -10.41675781 9.35499023 -12.1171875 10.29101562 C-13.18710937 10.87431641 -14.25703125 11.45761719 -15.359375 12.05859375 C-16.34389648 12.59798584 -17.32841797 13.13737793 -18.34277344 13.69311523 C-20.60833272 14.80736908 -22.53554913 15.5270504 -25 16 C-23.98992724 13.3924752 -23.31481637 12.19558554 -20.90625 10.69921875 C-20.1121875 10.36535156 -19.318125 10.03148437 -18.5 9.6875 C-17.7059375 9.34074219 -16.911875 8.99398437 -16.09375 8.63671875 C-14 8 -14 8 -12 9 C-11.67 8.01 -11.34 7.02 -11 6 C-8.49609375 4.39453125 -8.49609375 4.39453125 -5.4375 2.8125 C-3.91962891 2.01779297 -3.91962891 2.01779297 -2.37109375 1.20703125 C-1.58863281 0.80871094 -0.80617188 0.41039062 0 0 Z " fill="#20201F" transform="translate(671,764)"/>
<path d="M0 0 C-4.05677268 2.70451512 -8.29492916 3.79111458 -12.9375 5.1875 C-13.84435547 5.47302734 -14.75121094 5.75855469 -15.68554688 6.05273438 C-16.56146484 6.31763672 -17.43738281 6.58253906 -18.33984375 6.85546875 C-19.13769287 7.09934326 -19.93554199 7.34321777 -20.75756836 7.59448242 C-23.19103991 8.03454734 -24.67577323 7.77739889 -27 7 C-23.09210187 4.39473458 -19.07565626 3.23256675 -14.625 1.8125 C-13.77421875 1.52697266 -12.9234375 1.24144531 -12.046875 0.94726562 C-4.3026624 -1.53160616 -4.3026624 -1.53160616 0 0 Z " fill="#1F1F1E" transform="translate(613,793)"/>
<path d="M0 0 C-0.33 0.66 -0.66 1.32 -1 2 C-0.31292969 2.12117187 0.37414062 2.24234375 1.08203125 2.3671875 C1.98308594 2.53476563 2.88414062 2.70234375 3.8125 2.875 C4.70582031 3.03742188 5.59914063 3.19984375 6.51953125 3.3671875 C9 4 9 4 12 6 C10.35 6.33 8.7 6.66 7 7 C6.67 7.99 6.34 8.98 6 10 C-3.59453303 3.84965831 -3.59453303 3.84965831 -7 0 C-2.25 -1.125 -2.25 -1.125 0 0 Z " fill="#222321" transform="translate(596,154)"/>
<path d="M0 0 C-3.48913436 1.9962709 -6.95816025 2.79109218 -10.875 3.625 C-12.06867187 3.88539063 -13.26234375 4.14578125 -14.4921875 4.4140625 C-17.74466875 4.95735001 -20.71170995 5.11061526 -24 5 C-24.33 4.34 -24.66 3.68 -25 3 C-22.14887045 2.29702308 -19.29528536 1.61240956 -16.4375 0.9375 C-15.63763672 0.73833984 -14.83777344 0.53917969 -14.01367188 0.33398438 C-8.93939604 -0.84656143 -5.1055481 -1.08964047 0 0 Z " fill="#1A1A19" transform="translate(582,802)"/>
<path d="M0 0 C0.33 0.99 0.66 1.98 1 3 C-3.08512464 7.74401571 -7.00920165 12.18350714 -12 16 C-12.66 16.99 -13.32 17.98 -14 19 C-14.66 18.01 -15.32 17.02 -16 16 C-10.72 10.72 -5.44 5.44 0 0 Z " fill="#181818" transform="translate(611,629)"/>
<path d="M0 0 C2.94545056 2.43319829 3.32286717 4.32413607 4 8 C4.66 8.33 5.32 8.66 6 9 C6.8515625 11.1796875 6.8515625 11.1796875 7.625 13.875 C7.88539063 14.75929688 8.14578125 15.64359375 8.4140625 16.5546875 C9 19 9 19 9 22 C6 21 6 21 5.0168457 19.05053711 C4.73929443 18.2178833 4.46174316 17.38522949 4.17578125 16.52734375 C3.86962891 15.62822266 3.56347656 14.72910156 3.24804688 13.80273438 C2.93931641 12.85720703 2.63058594 11.91167969 2.3125 10.9375 C1.99216797 9.98810547 1.67183594 9.03871094 1.34179688 8.06054688 C0.55053177 5.71037143 -0.22949395 3.35704662 -1 1 C-0.67 0.67 -0.34 0.34 0 0 Z " fill="#171716" transform="translate(810,352)"/>
<path d="M0 0 C1.1673418 3.5020254 0.79056598 4.29616038 -0.43359375 7.66796875 C-0.75263672 8.56064453 -1.07167969 9.45332031 -1.40039062 10.37304688 C-1.74263672 11.30181641 -2.08488281 12.23058594 -2.4375 13.1875 C-2.77587891 14.12787109 -3.11425781 15.06824219 -3.46289062 16.03710938 C-4.30048809 18.36114742 -5.14645283 20.68178235 -6 23 C-7.37199503 20.77003649 -8.07642051 19.54714783 -7.70800781 16.90942383 C-7.45889648 16.18263428 -7.20978516 15.45584473 -6.953125 14.70703125 C-6.685 13.91232422 -6.416875 13.11761719 -6.140625 12.29882812 C-5.84671875 11.47833984 -5.5528125 10.65785156 -5.25 9.8125 C-4.83234375 8.56436523 -4.83234375 8.56436523 -4.40625 7.29101562 C-2.28086515 1.14043257 -2.28086515 1.14043257 0 0 Z " fill="#1F1F1E" transform="translate(820,579)"/>
<path d="M0 0 C4.84015316 1.76534644 9.2835127 4.19536725 13.8125 6.625 C14.60076172 7.04523437 15.38902344 7.46546875 16.20117188 7.8984375 C18.13535326 8.9300009 20.06823983 9.96391172 22 11 C21.67 11.66 21.34 12.32 21 13 C18.0625 12.1875 18.0625 12.1875 15 11 C14.67 10.01 14.34 9.02 14 8 C13.154375 7.9175 12.30875 7.835 11.4375 7.75 C7.19789991 6.82499634 4.61021896 5.40681264 1 3 C0.67 2.01 0.34 1.02 0 0 Z " fill="#1C1C1B" transform="translate(266,688)"/>
<path d="M0 0 C5.04424468 0.44508041 7.44443409 2.60980925 11 6 C11 6.66 11 7.32 11 8 C11.5775 8.061875 12.155 8.12375 12.75 8.1875 C15.88690987 9.32027301 17.09167504 11.34197595 19 14 C18.67 14.66 18.34 15.32 18 16 C17.05640625 15.12988281 17.05640625 15.12988281 16.09375 14.2421875 C11.36052495 9.9224068 6.62215082 5.81022588 1.3984375 2.09375 C0.93695312 1.7328125 0.47546875 1.371875 0 1 C0 0.67 0 0.34 0 0 Z " fill="#1E1E1D" transform="translate(609,168)"/>
<path d="M0 0 C6.573451 4.10257935 12.33268868 8.72122776 18 14 C17.01 14.495 17.01 14.495 16 15 C10.36917548 12.29720423 5.19341771 8.66389872 1 4 C0.2734375 1.78125 0.2734375 1.78125 0 0 Z " fill="#1B1C1A" transform="translate(571,311)"/>
<path d="M0 0 C0 3 0 3 -2.5546875 5.69921875 C-3.65375073 6.70381044 -4.76090687 7.69960277 -5.875 8.6875 C-6.43058594 9.19861328 -6.98617188 9.70972656 -7.55859375 10.23632812 C-11.72928488 14 -11.72928488 14 -14 14 C-14.66 15.32 -15.32 16.64 -16 18 C-17.32 17.67 -18.64 17.34 -20 17 C-19.31035156 16.443125 -18.62070312 15.88625 -17.91015625 15.3125 C-11.80242122 10.35258349 -5.83030237 5.28326166 0 0 Z " fill="#282726" transform="translate(514,656)"/>
<path d="M0 0 C4.99264057 4.81433198 8.8564045 9.82923847 12 16 C11.67 16.66 11.34 17.32 11 18 C5.72570086 13.17778365 0.69254161 7.38711053 0 0 Z " fill="#1A1A19" transform="translate(774,286)"/>
<path d="M0 0 C2.2578125 -0.33203125 2.2578125 -0.33203125 5 0 C7.0546875 2.30078125 7.0546875 2.30078125 8.875 5.3125 C9.49117187 6.29863281 10.10734375 7.28476562 10.7421875 8.30078125 C12 11 12 11 11 14 C8.94889465 11.43611831 6.90774755 8.87699674 4.9375 6.25 C3.12556871 3.75711364 3.12556871 3.75711364 0 3 C0 2.01 0 1.02 0 0 Z " fill="#161615" transform="translate(538,378)"/>
<path d="M0 0 C-0.66 0.66 -1.32 1.32 -2 2 C4.93 2.495 4.93 2.495 12 3 C12 3.33 12 3.66 12 4 C-0.375 4.495 -0.375 4.495 -13 5 C-11.5977422 2.1954844 -9.93929378 1.9557882 -7.0625 0.8125 C-6.16660156 0.44769531 -5.27070313 0.08289063 -4.34765625 -0.29296875 C-2 -1 -2 -1 0 0 Z " fill="#31312F" transform="translate(364,279)"/>
<path d="M0 0 C6.4188547 1.73624758 12.13784836 3.85180745 18 7 C17.01 7.66 16.02 8.32 15 9 C15 8.34 15 7.68 15 7 C13.989375 6.896875 12.97875 6.79375 11.9375 6.6875 C7.71206877 5.94972629 4.78838078 4.969958 1 3 C0.67 2.01 0.34 1.02 0 0 Z " fill="#20201E" transform="translate(516,281)"/>
<path d="M0 0 C0.99 0 1.98 0 3 0 C5.15305957 3.85756507 6.39253254 6.55129785 6 11 C6.66 11 7.32 11 8 11 C8.625 12.875 8.625 12.875 9 15 C8.34 15.66 7.68 16.32 7 17 C6.01934513 14.72979898 5.0404231 12.45887746 4.0625 10.1875 C3.78470703 9.54490234 3.50691406 8.90230469 3.22070312 8.24023438 C2.0481189 5.51362285 0.93910451 2.81731354 0 0 Z " fill="#1D1D1C" transform="translate(555,404)"/>
<path d="M0 0 C1.08667969 0.11085938 2.17335938 0.22171875 3.29296875 0.3359375 C4.12441406 0.43132813 4.95585937 0.52671875 5.8125 0.625 C6.1425 1.615 6.4725 2.605 6.8125 3.625 C2.46714058 4.90304689 -0.00383353 4.19387493 -4.1875 2.625 C-5.84838045 2.26393903 -7.51368981 1.92037827 -9.1875 1.625 C-5.54331659 -0.80445561 -4.25826636 -0.4578781 0 0 Z " fill="#1C1D1C" transform="translate(342.1875,675.375)"/>
<path d="M0 0 C0.33 0 0.66 0 1 0 C2.18396883 8.02350304 3.28545428 15.86455314 3 24 C2.67 24 2.34 24 2 24 C-0.15758273 18.75044832 -0.24042211 14.19189716 -0.125 8.625 C-0.11597656 7.79355469 -0.10695313 6.96210938 -0.09765625 6.10546875 C-0.0742622 4.07018663 -0.03839725 2.03505436 0 0 Z " fill="#2A2A29" transform="translate(660,456)"/>
<path d="M0 0 C1.94113934 0.92994117 3.8777951 1.8692453 5.8125 2.8125 C6.89144531 3.33457031 7.97039063 3.85664063 9.08203125 4.39453125 C11.56579702 5.76110117 13.1799378 6.87340101 15 9 C9.14727744 8.54979057 4.91779881 5.96160773 0 3 C0 2.01 0 1.02 0 0 Z " fill="#1E1E1D" transform="translate(656,180)"/>
<path d="M0 0 C5.29540989 0.33096312 9.24413757 3.47229743 13 7 C13.33 7.99 13.66 8.98 14 10 C10.67312232 8.45315734 7.75296022 6.54045021 4.75 4.4375 C3.85796875 3.81746094 2.9659375 3.19742187 2.046875 2.55859375 C1.37140625 2.04425781 0.6959375 1.52992188 0 1 C0 0.67 0 0.34 0 0 Z " fill="#1C1C1B" transform="translate(479,317)"/>
<path d="M0 0 C0.66 0.33 1.32 0.66 2 1 C3.3734635 1.15004973 4.7528526 1.24838006 6.1328125 1.31640625 C6.93847656 1.35830078 7.74414062 1.40019531 8.57421875 1.44335938 C9.41597656 1.48267578 10.25773437 1.52199219 11.125 1.5625 C12.39923828 1.62727539 12.39923828 1.62727539 13.69921875 1.69335938 C15.79928223 1.79954236 17.89961948 1.90028497 20 2 C20 2.33 20 2.66 20 3 C12.08 3.33 4.16 3.66 -4 4 C-4 3.34 -4 2.68 -4 2 C-2.125 0.9375 -2.125 0.9375 0 0 Z " fill="#373735" transform="translate(439,702)"/>
<path d="M0 0 C0.33 0.66 0.66 1.32 1 2 C-0.07518118 4.44332726 -1.19808566 6.76754523 -2.4375 9.125 C-2.77587891 9.78371094 -3.11425781 10.44242188 -3.46289062 11.12109375 C-4.30149926 12.75106547 -5.14984811 14.37601909 -6 16 C-6.66 15.01 -7.32 14.02 -8 13 C-7.01 12.67 -6.02 12.34 -5 12 C-4.87625 10.9275 -4.7525 9.855 -4.625 8.75 C-4.10280215 5.6168129 -3.70882871 3.61350274 -2 1 C-1.34 0.67 -0.68 0.34 0 0 Z " fill="#1F1F1E" transform="translate(806,616)"/>
<path d="M0 0 C1.28583984 0.27263672 1.28583984 0.27263672 2.59765625 0.55078125 C3.45230469 0.71964844 4.30695313 0.88851562 5.1875 1.0625 C7.84121577 1.92191822 9.538897 3.07669863 11.66015625 4.86328125 C5.80736125 4.34845206 0.33039255 3.40970933 -5.33984375 1.86328125 C-2.33984375 -0.13671875 -2.33984375 -0.13671875 0 0 Z " fill="#262625" transform="translate(432.33984375,800.13671875)"/>
<path d="M0 0 C4.22489602 0.53280216 6.54080716 1.87678199 9.8125 4.5625 C10.60269531 5.20316406 11.39289063 5.84382813 12.20703125 6.50390625 C12.79871094 6.99761719 13.39039063 7.49132812 14 8 C13.01 8.33 12.02 8.66 11 9 C8.30078125 7.3828125 8.30078125 7.3828125 5.3125 5.125 C4.31863281 4.38507813 3.32476562 3.64515625 2.30078125 2.8828125 C1.54152344 2.26148438 0.78226562 1.64015625 0 1 C0 0.67 0 0.34 0 0 Z " fill="#1B1B1A" transform="translate(455,376)"/>
<path d="M0 0 C2.70108504 0.090916 5.36930311 0.23740766 8.0625 0.4375 C9.20041992 0.51581055 9.20041992 0.51581055 10.36132812 0.59570312 C12.24121722 0.72575835 14.12065685 0.86228038 16 1 C16 1.33 16 1.66 16 2 C8.97195301 2.85373239 2.07721931 3.12109311 -5 3 C-4.360625 2.690625 -3.72125 2.38125 -3.0625 2.0625 C-1.06389179 1.1654837 -1.06389179 1.1654837 0 0 Z " fill="#333331" transform="translate(528,808)"/>
<path d="M0 0 C-4.9476205 2.88611196 -10.33165837 4 -16 4 C-16 3.34 -16 2.68 -16 2 C-14.27507022 1.46530198 -12.544802 0.94780825 -10.8125 0.4375 C-9.36810547 0.00244141 -9.36810547 0.00244141 -7.89453125 -0.44140625 C-4.87247412 -1.02461026 -2.94070045 -0.81178385 0 0 Z " fill="#1F1E1D" transform="translate(506,696)"/>
<path d="M0 0 C4.22903599 1.30898733 8.16449568 2.77005563 12 5 C12.33 5.99 12.66 6.98 13 8 C8.0276578 6.50829734 3.58154261 4.39542583 -1 2 C-0.67 1.34 -0.34 0.68 0 0 Z " fill="#202020" transform="translate(453,301)"/>
<path d="M0 0 C1.66946444 0.31902567 3.33543915 0.65630525 5 1 C7.43505237 1.21698487 9.87301384 1.40290745 12.3125 1.5625 C13.56675781 1.64628906 14.82101562 1.73007812 16.11328125 1.81640625 C17.54220703 1.90728516 17.54220703 1.90728516 19 2 C19 2.33 19 2.66 19 3 C11.08 3 3.16 3 -5 3 C-3.68 2.34 -2.36 1.68 -1 1 C-0.67 0.67 -0.34 0.34 0 0 Z " fill="#010201" transform="translate(363,279)"/>
<path d="M0 0 C0.33 0.99 0.66 1.98 1 3 C-0.65234375 5.48046875 -0.65234375 5.48046875 -2.9375 8.1875 C-3.68902344 9.08855469 -4.44054687 9.98960937 -5.21484375 10.91796875 C-5.80394531 11.60503906 -6.39304687 12.29210937 -7 13 C-7.66 12.01 -8.32 11.02 -9 10 C-6.03 6.7 -3.06 3.4 0 0 Z " fill="#191818" transform="translate(493,617)"/>
<path d="M0 0 C3.26008643 3.16952847 6.22237877 6.39937989 9 10 C8.67 10.66 8.34 11.32 8 12 C4.83769026 9.60690073 2.04092395 7.43734561 0 4 C0 2.68 0 1.36 0 0 Z " fill="#1F1F1E" transform="translate(613,352)"/>
<path d="M0 0 C3.99455527 0.61454696 6.74466336 2.70646737 10 5 C8.68 5.99 7.36 6.98 6 8 C3.33264727 5.51047079 1.44253657 3.36591866 0 0 Z " fill="#262525" transform="translate(240,672)"/>
<path d="M0 0 C1.92536938 1.60558484 2.91074167 2.47769478 3.34057617 4.99291992 C3.3170105 6.10050659 3.3170105 6.10050659 3.29296875 7.23046875 C3.28330078 8.03291016 3.27363281 8.83535156 3.26367188 9.66210938 C3.23853516 10.49548828 3.21339844 11.32886719 3.1875 12.1875 C3.16719727 13.4549707 3.16719727 13.4549707 3.14648438 14.74804688 C3.11115799 16.83230384 3.05735139 18.91623277 3 21 C2.67 21 2.34 21 2 21 C0.79556805 13.94546999 -0.28100502 7.16562789 0 0 Z " fill="#30302F" transform="translate(206,524)"/>
<path d="M0 0 C4.8274799 1.41292095 8.7162359 3.42974154 13 6 C13 6.33 13 6.66 13 7 C7.90546328 7.6175196 5.11633454 5.77060979 1 3 C0.67 2.01 0.34 1.02 0 0 Z " fill="#1F1F1E" transform="translate(433,362)"/>
<path d="M0 0 C3.59634744 3.49359465 6.83451967 7.11098131 10 11 C6.77788109 10.41861767 5.06332259 9.49498087 2.75 7.1875 C2.22921875 6.68605469 1.7084375 6.18460938 1.171875 5.66796875 C0 4 0 4 0 0 Z " fill="#1C1C1B" transform="translate(741,245)"/>
<path d="M0 0 C0.515625 0.391875 1.03125 0.78375 1.5625 1.1875 C-0.1390625 1.5896875 -0.1390625 1.5896875 -1.875 2 C-3.050625 2.391875 -4.22625 2.78375 -5.4375 3.1875 C-5.7675 4.1775 -6.0975 5.1675 -6.4375 6.1875 C-6.4375 5.5275 -6.4375 4.8675 -6.4375 4.1875 C-7.7575 4.5175 -9.0775 4.8475 -10.4375 5.1875 C-9.4375 2.1875 -9.4375 2.1875 -6.125 0.375 C-2.4375 -0.8125 -2.4375 -0.8125 0 0 Z " fill="#232322" transform="translate(632.4375,784.8125)"/>
<path d="M0 0 C0 0.99 0 1.98 0 3 C-1.32 2.34 -2.64 1.68 -4 1 C-3.01 2.485 -3.01 2.485 -2 4 C-2.375 6.1875 -2.375 6.1875 -3 8 C-7 2.25 -7 2.25 -7 0 C-4.3333581 -1.33332095 -2.83319697 -0.67102033 0 0 Z " fill="#161615" transform="translate(253,679)"/>
<path d="M0 0 C-5.27377728 2.92987626 -10.02749309 3.11710798 -16 3 C-10.75710949 -1.46616599 -6.61351571 -1.16709101 0 0 Z " fill="#2A2A29" transform="translate(406,676)"/>
<path d="M0 0 C0.66 0 1.32 0 2 0 C1.71682074 1.60568666 1.42312209 3.20952047 1.125 4.8125 C0.96257813 5.70582031 0.80015625 6.59914063 0.6328125 7.51953125 C0 10 0 10 -2 13 C-3.71050559 8.02398374 -2.00885647 4.57383705 0 0 Z " fill="#212121" transform="translate(823,566)"/>
<path d="M0 0 C1.25955231 3.77865693 0.48087189 5.03411786 -0.9375 8.6875 C-1.31777344 9.68136719 -1.69804688 10.67523437 -2.08984375 11.69921875 C-2.39019531 12.45847656 -2.69054687 13.21773437 -3 14 C-4.11328125 12.29296875 -4.11328125 12.29296875 -5 10 C-4.35546875 7.67578125 -4.35546875 7.67578125 -3.1875 5.3125 C-2.80980469 4.52488281 -2.43210937 3.73726562 -2.04296875 2.92578125 C-1 1 -1 1 0 0 Z " fill="#1E1E1D" transform="translate(653,558)"/>
<path d="M0 0 C1.21065165 3.63195496 0.62784815 5.06531629 -0.4375 8.6875 C-0.86869141 10.17830078 -0.86869141 10.17830078 -1.30859375 11.69921875 C-1.53675781 12.45847656 -1.76492188 13.21773437 -2 14 C-4 11 -4 11 -3.828125 8.80859375 C-3.63734375 8.02613281 -3.4465625 7.24367188 -3.25 6.4375 C-3.06953125 5.65246094 -2.8890625 4.86742187 -2.703125 4.05859375 C-2 2 -2 2 0 0 Z " fill="#20201F" transform="translate(657,544)"/>
<path d="M0 0 C0 0.66 0 1.32 0 2 C2.31 2 4.62 2 7 2 C7 2.33 7 2.66 7 3 C-0.07721931 3.12109311 -6.97195301 2.85373239 -14 2 C-14 1.67 -14 1.34 -14 1 C-12.22932584 0.83165067 -10.45845388 0.66538091 -8.6875 0.5 C-7.70136719 0.4071875 -6.71523438 0.314375 -5.69921875 0.21875 C-3 0 -3 0 0 0 Z " fill="#363533" transform="translate(483,808)"/>
<path d="M0 0 C-1.16290805 3.48872415 -2.13967609 4.09976864 -5.0625 6.1875 C-5.79597656 6.71730469 -6.52945313 7.24710938 -7.28515625 7.79296875 C-7.85105469 8.19128906 -8.41695312 8.58960938 -9 9 C-9.66 8.67 -10.32 8.34 -11 8 C-3.21621622 0 -3.21621622 0 0 0 Z " fill="#1F1E1D" transform="translate(588,653)"/>
<path d="M0 0 C0.33 0.66 0.66 1.32 1 2 C-5.03503763 3.50875941 -10.89738369 2.64186094 -17 2 C-17 1.67 -17 1.34 -17 1 C-5.47835991 -0.14806378 -5.47835991 -0.14806378 0 0 Z " fill="#2D2D2B" transform="translate(464,730)"/>
<path d="M0 0 C0.33 0 0.66 0 1 0 C1.33808686 2.06172613 1.67027361 4.1244203 2 6.1875 C2.185625 7.33605469 2.37125 8.48460937 2.5625 9.66796875 C2.93489477 12.50415393 3.08596021 15.14719564 3 18 C2.31379969 16.67661368 1.65213539 15.34050052 1 14 C0.608125 13.278125 0.21625 12.55625 -0.1875 11.8125 C-1.3603896 7.75249752 -0.66468853 4.12286533 0 0 Z " fill="#2F2F2E" transform="translate(831,422)"/>
<path d="M0 0 C-3.5429113 2.12574678 -6.94484863 2.47433223 -11 3 C-11.99 3.495 -11.99 3.495 -13 4 C-14.67654729 3.72057545 -16.34608154 3.39171753 -18 3 C-18 2.67 -18 2.34 -18 2 C-15.56421213 1.46969932 -13.12694025 0.95047688 -10.6875 0.4375 C-9.65206055 0.21030273 -9.65206055 0.21030273 -8.59570312 -0.02148438 C-5.24455934 -0.71761569 -3.30465928 -1.10155309 0 0 Z " fill="#333331" transform="translate(495,725)"/>
<path d="M0 0 C0.66 0.33 1.32 0.66 2 1 C-1.49087093 5.0042343 -3.64951939 6.62671065 -9 7 C-6.25604436 4.05278838 -3.61662784 1.80831392 0 0 Z " fill="#21211F" transform="translate(488,677)"/>
<path d="M0 0 C0.66 0.33 1.32 0.66 2 1 C1.125 7.75 1.125 7.75 0 10 C-0.66 10 -1.32 10 -2 10 C-2.33 10.66 -2.66 11.32 -3 12 C-2.68950274 10.56206608 -2.3765224 9.1246682 -2.0625 7.6875 C-1.88847656 6.88699219 -1.71445313 6.08648437 -1.53515625 5.26171875 C-1 3 -1 3 0 0 Z " fill="#1F1F1E" transform="translate(215,450)"/>
<path d="M0 0 C0.66 0.33 1.32 0.66 2 1 C-1.49359465 4.59634744 -5.11098131 7.83451967 -9 11 C-9.66 10.67 -10.32 10.34 -11 10 C-5.555 5.05 -5.555 5.05 0 0 Z " fill="#282828" transform="translate(264,382)"/>
<path d="M0 0 C1.6744239 0.6469365 3.34302621 1.30959426 5 2 C1.1496895 4.56687367 -0.58569763 3.83288724 -5 3 C-5.33 2.01 -5.66 1.02 -6 0 C-3.43417606 -1.28291197 -2.6963913 -0.84743727 0 0 Z " fill="#20201E" transform="translate(498,273)"/>
<path d="M0 0 C3.59905908 0.55550695 4.99909799 1.74887248 7.25 4.5625 C8.03117187 5.52349609 8.03117187 5.52349609 8.828125 6.50390625 C9.21484375 6.99761719 9.6015625 7.49132812 10 8 C7 8 7 8 5.17578125 6.50390625 C4.56089844 5.86324219 3.94601562 5.22257813 3.3125 4.5625 C2.68988281 3.92441406 2.06726563 3.28632812 1.42578125 2.62890625 C0 1 0 1 0 0 Z " fill="#1D1E1D" transform="translate(278,717)"/>
<path d="M0 0 C0.66 0.33 1.32 0.66 2 1 C0.59785066 2.36919284 -0.82228473 3.71998709 -2.25 5.0625 C-3.43335938 6.19365234 -3.43335938 6.19365234 -4.640625 7.34765625 C-5.41921875 7.89292969 -6.1978125 8.43820312 -7 9 C-8.32 8.67 -9.64 8.34 -11 8 C-7.37 5.36 -3.74 2.72 0 0 Z " fill="#262725" transform="translate(609,672)"/>
<path d="M0 0 C-3.60051153 2.40034102 -6.96144535 4.32187705 -11.375 3.625 C-11.91125 3.41875 -12.4475 3.2125 -13 3 C-12.01 3 -11.02 3 -10 3 C-10 2.34 -10 1.68 -10 1 C-6.21812119 -0.83691257 -4.05431692 -1.15837626 0 0 Z " fill="#242423" transform="translate(420,672)"/>
<path d="M0 0 C0.66 0 1.32 0 2 0 C1.33501617 4.38889325 -0.18757677 7.9811485 -2 12 C-3.125 10.25 -3.125 10.25 -4 8 C-3.125 5.75 -3.125 5.75 -2 4 C-1.34 4 -0.68 4 0 4 C-0.33 3.01 -0.66 2.02 -1 1 C-0.67 0.67 -0.34 0.34 0 0 Z " fill="#232322" transform="translate(810,604)"/>
<path d="M0 0 C2.6895528 2.6895528 3.69331154 5.45327417 5 9 C4.67 9.99 4.34 10.98 4 12 C4 11.34 4 10.68 4 10 C3.34 10 2.68 10 2 10 C-1.125 3.375 -1.125 3.375 0 0 Z " fill="#21211F" transform="translate(512,441)"/>
<path d="M0 0 C2.96052484 3.36423277 3.92289822 6.69159287 5 11 C4.01 10.67 3.02 10.34 2 10 C1.05078125 7.93359375 1.05078125 7.93359375 0.3125 5.4375 C0.06113281 4.61121094 -0.19023438 3.78492188 -0.44921875 2.93359375 C-0.63097656 2.29550781 -0.81273437 1.65742188 -1 1 C-0.67 0.67 -0.34 0.34 0 0 Z " fill="#1F1F1E" transform="translate(642,398)"/>
<path d="M0 0 C2.97246802 2.54782974 4.41535288 5.45340883 6 9 C6 9.66 6 10.32 6 11 C3 10 3 10 1.3125 7.1875 C0 4 0 4 0 0 Z " fill="#1C1C1B" transform="translate(793,316)"/>
<path d="M0 0 C0 0.66 0 1.32 0 2 C0.66 2.33 1.32 2.66 2 3 C-3.94 2.67 -9.88 2.34 -16 2 C-16 1.67 -16 1.34 -16 1 C-14.08351538 0.83125293 -12.16680367 0.66508357 -10.25 0.5 C-9.18265625 0.4071875 -8.1153125 0.314375 -7.015625 0.21875 C-4.6820782 0.04947717 -2.33967818 0 0 0 Z " fill="#31312F" transform="translate(394,282)"/>
<path d="M0 0 C4.31392226 0.4793247 6.16569547 1.7457985 9 5 C8.67 5.99 8.34 6.98 8 8 C6.66372225 6.85760183 5.33104612 5.71098945 4 4.5625 C3.2575 3.92441406 2.515 3.28632812 1.75 2.62890625 C1.1725 2.09136719 0.595 1.55382812 0 1 C0 0.67 0 0.34 0 0 Z " fill="#1E1E1E" transform="translate(289,728)"/>
<path d="M0 0 C3.8063457 0.67170806 7.35206816 1.72746564 11 3 C9.4375 4.1875 9.4375 4.1875 7 5 C3.25 3.625 3.25 3.625 0 2 C0 1.34 0 0.68 0 0 Z " fill="#222221" transform="translate(316,712)"/>
<path d="M0 0 C3.80443255 0.54349036 5.6081779 2.03084153 8 5 C8.75 7.75 8.75 7.75 9 10 C5.73991357 6.83047153 2.77762123 3.60062011 0 0 Z " fill="#1F1F1F" transform="translate(260,698)"/>
<path d="M0 0 C1.91015625 0.671875 1.91015625 0.671875 4.0625 1.75 C5.13177734 2.26820313 5.13177734 2.26820313 6.22265625 2.796875 C8 4 8 4 9 7 C4.49197399 5.74194623 1.5087188 4.09592835 -2 1 C-1.34 0.67 -0.68 0.34 0 0 Z " fill="#242423" transform="translate(289,657)"/>
<path d="M0 0 C0.33 0 0.66 0 1 0 C1.11138159 5.45769811 0.91657981 10.61509359 0 16 C-0.33 16 -0.66 16 -1 16 C-1.22384382 14.27277272 -1.42839969 12.54303993 -1.625 10.8125 C-1.74101563 9.84957031 -1.85703125 8.88664063 -1.9765625 7.89453125 C-2.00194942 4.75924677 -1.34359283 2.80513465 0 0 Z " fill="#2D2C2B" transform="translate(834,509)"/>
<path d="M0 0 C2.78637633 4.1795645 1.79562512 6.14668677 1 11 C0.01 11.33 -0.98 11.66 -2 12 C-1.34 8.04 -0.68 4.08 0 0 Z " fill="#262625" transform="translate(729,491)"/>
<path d="M0 0 C2.44839588 3.67259383 4 6.54648201 4 11 C3.01 10.67 2.02 10.34 1 10 C-1.28070175 3.84210526 -1.28070175 3.84210526 0 0 Z " fill="#222221" transform="translate(815,363)"/>
<path d="M0 0 C0.66 0 1.32 0 2 0 C2.67154933 1.28913487 3.33708859 2.58140204 4 3.875 C4.37125 4.59429687 4.7425 5.31359375 5.125 6.0546875 C6 8 6 8 6 10 C3 9 3 9 1.3125 6.125 C0 3 0 3 0 0 Z " fill="#141413" transform="translate(798,327)"/>
<path d="M0 0 C0.33 0.66 0.66 1.32 1 2 C-3.69023454 1.43393721 -8.34500026 0.81462495 -13 0 C-13 -0.33 -13 -0.66 -13 -1 C-8.07317325 -2.20166506 -4.74755815 -1.76869813 0 0 Z " fill="#2A2A28" transform="translate(411,286)"/>
<path d="M0 0 C0.66 0 1.32 0 2 0 C3.13016601 5.02296004 2.77916092 8.97874074 2 14 C1.67 14 1.34 14 1 14 C0.67 9.38 0.34 4.76 0 0 Z " fill="#282726" transform="translate(733,379)"/>
<path d="M0 0 C3.82524236 1.450954 5.19090966 3.38181932 7 7 C7 7.66 7 8.32 7 9 C3.17475764 7.549046 1.80909034 5.61818068 0 2 C0 1.34 0 0.68 0 0 Z " fill="#171715" transform="translate(624,369)"/>
<path d="M0 0 C2.31 1.98 4.62 3.96 7 6 C6.01 6.33 5.02 6.66 4 7 C1.3125 5.0625 1.3125 5.0625 -1 3 C-0.67 2.01 -0.34 1.02 0 0 Z " fill="#1E1E1D" transform="translate(725,229)"/>
<path d="M0 0 C4.95 0.33 9.9 0.66 15 1 C15 1.33 15 1.66 15 2 C8.565 2.495 8.565 2.495 2 3 C2 2.34 2 1.68 2 1 C1.34 0.67 0.68 0.34 0 0 Z " fill="#302F2E" transform="translate(384,730)"/>
<path d="M0 0 C3.3 0.99 6.6 1.98 10 3 C6 5 6 5 2.75 4.125 C1.8425 3.75375 0.935 3.3825 0 3 C0 2.01 0 1.02 0 0 Z " fill="#1F1F1E" transform="translate(301,706)"/>
<path d="M0 0 C0.33 0 0.66 0 1 0 C1.08131463 1.43655854 1.13933559 2.8744483 1.1875 4.3125 C1.23970703 5.51326172 1.23970703 5.51326172 1.29296875 6.73828125 C0.93801608 9.47851584 0.10633718 10.29171079 -2 12 C-2 9.69 -2 7.38 -2 5 C-1.34 5 -0.68 5 0 5 C0 3.35 0 1.7 0 0 Z " fill="#1B1C1C" transform="translate(527,531)"/>
<path d="M0 0 C3 1 3 1 4 3 C4.13415472 5.6723621 4.04318541 8.32250488 4 11 C1.55160412 7.32740617 0 4.45351799 0 0 Z " fill="#242422" transform="translate(716,313)"/>
<path d="M0 0 C4.29 0.33 8.58 0.66 13 1 C13 1.33 13 1.66 13 2 C7.06 2.495 7.06 2.495 1 3 C0.67 2.01 0.34 1.02 0 0 Z " fill="#2A2A28" transform="translate(461,267)"/>
<path d="M0 0 C0.80824219 0.10183594 1.61648438 0.20367188 2.44921875 0.30859375 C3.06410156 0.39238281 3.67898438 0.47617187 4.3125 0.5625 C4.3125 0.8925 4.3125 1.2225 4.3125 1.5625 C0.6825 1.8925 -2.9475 2.2225 -6.6875 2.5625 C-7.0175 1.9025 -7.3475 1.2425 -7.6875 0.5625 C-4.59271121 -0.46909626 -3.16118607 -0.41232862 0 0 Z " fill="#282727" transform="translate(564.6875,804.4375)"/>
<path d="M0 0 C0.61488281 0.19078125 1.22976563 0.3815625 1.86328125 0.578125 C0.74254263 1.41718065 -0.38346422 2.24920331 -1.51171875 3.078125 C-2.13820313 3.5421875 -2.7646875 4.00625 -3.41015625 4.484375 C-5.13671875 5.578125 -5.13671875 5.578125 -7.13671875 5.578125 C-5.92340024 1.93816948 -4.18071525 -0.82544286 0 0 Z " fill="#1E1F1D" transform="translate(575.13671875,662.421875)"/>
<path d="M0 0 C2.55803184 3.83704776 4.34505724 7.75712791 3.625 12.4375 C3.41875 12.953125 3.2125 13.46875 3 14 C0.56574762 9.03006806 -0.34615998 5.65394631 0 0 Z " fill="#292A29" transform="translate(520,462)"/>
<path d="M0 0 C2.96404505 2.80804268 5.44499019 5.18315774 7 9 C3.73539027 7.19587357 2.11070205 6.16605307 0 3 C0 2.01 0 1.02 0 0 Z " fill="#1F1F1E" transform="translate(488,404)"/>
<path d="M0 0 C1.65 0 3.3 0 5 0 C5.66 1.65 6.32 3.3 7 5 C6.01 5.495 6.01 5.495 5 6 C4.34 5.34 3.68 4.68 3 4 C2.01 3.67 1.02 3.34 0 3 C0 2.01 0 1.02 0 0 Z " fill="#20201E" transform="translate(538,378)"/>
<path d="M0 0 C0.33 0.66 0.66 1.32 1 2 C1.66 2 2.32 2 3 2 C3.625 4.8125 3.625 4.8125 4 8 C3.01 9.485 3.01 9.485 2 11 C1.87625 9.865625 1.7525 8.73125 1.625 7.5625 C1.41875 6.386875 1.2125 5.21125 1 4 C0.34 3.67 -0.32 3.34 -1 3 C-0.67 2.01 -0.34 1.02 0 0 Z " fill="#232221" transform="translate(724,337)"/>
<path d="M0 0 C3.7952131 1.49097658 5.61042731 3.75700849 8 7 C5 7 5 7 2.3125 4.625 C0 2 0 2 0 0 Z " fill="#191817" transform="translate(629,183)"/>
<path d="M0 0 C-0.33 0.66 -0.66 1.32 -1 2 C-0.01 2.33 0.98 2.66 2 3 C-0.25 3.75 -0.25 3.75 -3 4 C-5.3125 2.0625 -5.3125 2.0625 -7 0 C-2.25 -1.125 -2.25 -1.125 0 0 Z " fill="#41413F" transform="translate(596,154)"/>
<path d="M0 0 C2.97 0.33 5.94 0.66 9 1 C9 1.33 9 1.66 9 2 C5.37 2.33 1.74 2.66 -2 3 C-1.34 2.01 -0.68 1.02 0 0 Z " fill="#282726" transform="translate(548,806)"/>
<path d="M0 0 C0 0.33 0 0.66 0 1 C-3.63 1.33 -7.26 1.66 -11 2 C-11.33 1.34 -11.66 0.68 -12 0 C-7.74433453 -1.16063604 -4.3164922 -0.76173392 0 0 Z " fill="#252423" transform="translate(489,700)"/>
<path d="M0 0 C4.31392226 0.4793247 6.16569547 1.7457985 9 5 C4.98525763 5 3.18024863 3.33218233 0 1 C0 0.67 0 0.34 0 0 Z " fill="#1F1F1E" transform="translate(275,650)"/>
<path d="M0 0 C5.07865169 1.26966292 5.07865169 1.26966292 7 4 C6.67 5.32 6.34 6.64 6 8 C4.02 5.36 2.04 2.72 0 0 Z " fill="#21201F" transform="translate(243,620)"/>
<path d="M0 0 C0.33 1.32 0.66 2.64 1 4 C-1.64 5.98 -4.28 7.96 -7 10 C-4.98127747 5.96255494 -2.91899872 3.37989325 0 0 Z " fill="#2B2C2A" transform="translate(670,615)"/>
<path d="M0 0 C2 3 2 3 1.3125 6.625 C0.879375 7.73875 0.44625 8.8525 0 10 C-0.99 10.33 -1.98 10.66 -3 11 C-2.01 7.37 -1.02 3.74 0 0 Z " fill="#252524" transform="translate(569,567)"/>
<path d="M0 0 C1.26706235 3.80118706 0.57172296 5.3850372 -1 9 C-1.99 9.33 -2.98 9.66 -4 10 C-3.52449439 8.51965236 -3.04448784 7.04074979 -2.5625 5.5625 C-2.29566406 4.73878906 -2.02882813 3.91507813 -1.75390625 3.06640625 C-1 1 -1 1 0 0 Z " fill="#1F1F1E" transform="translate(710,550)"/>
<path d="M0 0 C0.66 0.66 1.32 1.32 2 2 C1.96712417 4.72869407 1.43602229 7.2966618 1 10 C0.34 10 -0.32 10 -1 10 C-1.33 10.66 -1.66 11.32 -2 12 C-1.34 8.04 -0.68 4.08 0 0 Z " fill="#2C2C2B" transform="translate(574,547)"/>
<path d="M0 0 C3.82097239 0.53069061 6.06171403 1.49701566 9 4 C6 5 6 5 2.8125 3.5625 C1.884375 3.046875 0.95625 2.53125 0 2 C0 1.34 0 0.68 0 0 Z " fill="#191917" transform="translate(646,176)"/>
<path d="M0 0 C2.3125 0.1875 2.3125 0.1875 5 1 C6.8125 3.5625 6.8125 3.5625 8 6 C4.63408134 4.55746343 2.48952921 2.66735273 0 0 Z " fill="#20201F" transform="translate(306,742)"/>
<path d="M0 0 C4.455 0.99 4.455 0.99 9 2 C8.01 2.66 7.02 3.32 6 4 C2.8125 3.125 2.8125 3.125 0 2 C0 1.34 0 0.68 0 0 Z " fill="#232321" transform="translate(327,716)"/>
<path d="M0 0 C1.32 0.99 2.64 1.98 4 3 C3.401875 3.268125 2.80375 3.53625 2.1875 3.8125 C0.02775192 4.98493467 -1.35790256 6.19369282 -3 8 C-2.45276317 4.62537285 -1.9451 2.91765 0 0 Z " fill="#1E1D1C" transform="translate(500,607)"/>
<path d="M0 0 C0.66 0.33 1.32 0.66 2 1 C0.8141763 4.37503669 -0.27573689 6.64722731 -3 9 C-2.5020163 5.26512223 -2.12508244 3.18762365 0 0 Z " fill="#1C1B1A" transform="translate(505,599)"/>
<path d="M0 0 C2.99324263 1.0975223 3.84610901 1.67682892 5.25 4.625 C5.4975 5.40875 5.745 6.1925 6 7 C5.01 7 4.02 7 3 7 C0 2.77777778 0 2.77777778 0 0 Z " fill="#1F1F1E" transform="translate(228,597)"/>
<path d="M0 0 C0.66 0.33 1.32 0.66 2 1 C0.7508258 4.45925163 -0.67527795 7.14693203 -3 10 C-3.33 9.01 -3.66 8.02 -4 7 C-3.34 6.01 -2.68 5.02 -2 4 C-1.34 4 -0.68 4 0 4 C0 2.68 0 1.36 0 0 Z " fill="#20201F" transform="translate(640,587)"/>
<path d="M0 0 C1 3 1 3 0.25 5.625 C-1 8 -1 8 -4 9 C-2.94124926 5.59687262 -1.99097846 2.98646769 0 0 Z " fill="#212220" transform="translate(226,427)"/>
<path d="M0 0 C2.97 0.99 5.94 1.98 9 3 C5 5 5 5 2.8125 4.3125 C1 3 1 3 0 0 Z " fill="#232322" transform="translate(424,358)"/>
<path d="M0 0 C2.31 1.98 4.62 3.96 7 6 C6.34 6.66 5.68 7.32 5 8 C2.5 5.6875 2.5 5.6875 0 3 C0 2.01 0 1.02 0 0 Z " fill="#1F1F1E" transform="translate(591,328)"/>
<path d="M0 0 C2.9375 0.8125 2.9375 0.8125 6 2 C6.33 2.99 6.66 3.98 7 5 C4.03 4.01 1.06 3.02 -2 2 C-1.34 1.34 -0.68 0.68 0 0 Z " fill="#222321" transform="translate(438,294)"/>
<path d="M0 0 C4.31392226 0.4793247 6.16569547 1.7457985 9 5 C4.68607774 4.5206753 2.83430453 3.2542015 0 0 Z " fill="#191A19" transform="translate(684,199)"/>
<path d="M0 0 C0.33 0.66 0.66 1.32 1 2 C-2.63 1.67 -6.26 1.34 -10 1 C-10 0.67 -10 0.34 -10 0 C-3.34250344 -1.36176066 -3.34250344 -1.36176066 0 0 Z " fill="#2B2B29" transform="translate(466,807)"/>
<path d="M0 0 C3.83736322 0.95934081 4.59660228 1.23609263 7 4 C6.67 4.99 6.34 5.98 6 7 C4.02 4.69 2.04 2.38 0 0 Z " fill="#1C1C1A" transform="translate(253,690)"/>
<path d="M0 0 C-4.95 1.485 -4.95 1.485 -10 3 C-9 0 -9 0 -6.6875 -1.3125 C-4 -2 -4 -2 0 0 Z " fill="#272726" transform="translate(530,689)"/>
<path d="M0 0 C0 3 0 3 -2.5 5.6875 C-3.325 6.450625 -4.15 7.21375 -5 8 C-4.64950425 4.75791433 -4.43778819 3.38472296 -1.9375 1.1875 C-1.298125 0.795625 -0.65875 0.40375 0 0 Z " fill="#232322" transform="translate(764,685)"/>
<path d="M0 0 C1.65 0 3.3 0 5 0 C4 2 4 2 1.93359375 2.8515625 C0.69802734 3.23441406 0.69802734 3.23441406 -0.5625 3.625 C-1.80193359 4.01558594 -1.80193359 4.01558594 -3.06640625 4.4140625 C-3.70449219 4.60742188 -4.34257813 4.80078125 -5 5 C-4.67 4.01 -4.34 3.02 -4 2 C-3.01 2.33 -2.02 2.66 -1 3 C-0.67 2.01 -0.34 1.02 0 0 Z " fill="#2A2A29" transform="translate(544,679)"/>
<path d="M0 0 C0.99 0.66 1.98 1.32 3 2 C-3.75 6 -3.75 6 -6 6 C-5.67 5.01 -5.34 4.02 -5 3 C-3.68 3 -2.36 3 -1 3 C-0.67 2.01 -0.34 1.02 0 0 Z " fill="#232321" transform="translate(559,671)"/>
<path d="M0 0 C2.3125 0.1875 2.3125 0.1875 5 1 C6.8125 3.5625 6.8125 3.5625 8 6 C4.63408134 4.55746343 2.48952921 2.66735273 0 0 Z " fill="#20201F" transform="translate(267,644)"/>
<path d="M0 0 C0.99 0.33 1.98 0.66 3 1 C3.8125 2.8125 3.8125 2.8125 4 5 C3.34 6.32 2.68 7.64 2 9 C1.34 6.03 0.68 3.06 0 0 Z " fill="#212120" transform="translate(213,562)"/>
<path d="M0 0 C2.29633824 3.44450737 2.54016485 5.93812283 3 10 C2.01 10 1.02 10 0 10 C0 6.7 0 3.4 0 0 Z " fill="#262624" transform="translate(654,430)"/>
<path d="M0 0 C0.99 0.33 1.98 0.66 3 1 C3.625 3.3125 3.625 3.3125 4 6 C3.01 7.485 3.01 7.485 2 9 C1.34 6.03 0.68 3.06 0 0 Z " fill="#242321" transform="translate(721,328)"/>
<path d="M0 0 C0 0.66 0 1.32 0 2 C0.99 2.33 1.98 2.66 3 3 C1.741875 2.87625 0.48375 2.7525 -0.8125 2.625 C-1.87404297 2.52058594 -1.87404297 2.52058594 -2.95703125 2.4140625 C-5 2 -5 2 -8 0 C-4.94736336 -0.98120464 -3.05263664 -0.98120464 0 0 Z " fill="#2A2A28" transform="translate(421,288)"/>
<path d="M0 0 C2.5 2.3125 2.5 2.3125 5 5 C5 5.99 5 6.98 5 8 C3.02 6.35 1.04 4.7 -1 3 C-0.67 2.01 -0.34 1.02 0 0 Z " fill="#1F1F1D" transform="translate(756,262)"/>
<path d="M0 0 C4 1 4 1 5.8125 3.4375 C6.204375 4.283125 6.59625 5.12875 7 6 C6.67 6.66 6.34 7.32 6 8 C4.02 5.36 2.04 2.72 0 0 Z " fill="#1E1D1C" transform="translate(646,201)"/>
<path d="M0 0 C2.4375 0.75 2.4375 0.75 4.4375 2.75 C1.1375 2.42 -2.1625 2.09 -5.5625 1.75 C-2.5625 -0.25 -2.5625 -0.25 0 0 Z " fill="#272726" transform="translate(450.5625,804.25)"/>
<path d="M0 0 C2.9375 0.8125 2.9375 0.8125 6 2 C6.33 2.99 6.66 3.98 7 5 C1.25 3.25 1.25 3.25 -1 1 C-0.67 0.67 -0.34 0.34 0 0 Z " fill="#272827" transform="translate(358,774)"/>
<path d="M0 0 C3.3 0.33 6.6 0.66 10 1 C6.77208445 3.1519437 5.71599191 3.20086443 2 3 C2 2.34 2 1.68 2 1 C1.34 0.67 0.68 0.34 0 0 Z " fill="#272726" transform="translate(372,728)"/>
<path d="M0 0 C1.9375 0.6875 1.9375 0.6875 2.9375 2.6875 C0.9575 3.0175 -1.0225 3.3475 -3.0625 3.6875 C-3.3925 2.6975 -3.7225 1.7075 -4.0625 0.6875 C-2.0625 -0.3125 -2.0625 -0.3125 0 0 Z " fill="#242423" transform="translate(347.0625,720.3125)"/>
<path d="M0 0 C0.33 0.99 0.66 1.98 1 3 C-0.65 4.65 -2.3 6.3 -4 8 C-4.33 7.01 -4.66 6.02 -5 5 C-3.35 3.35 -1.7 1.7 0 0 Z " fill="#181818" transform="translate(752,698)"/>
<path d="M0 0 C0.99 0.66 1.98 1.32 3 2 C-1.455 3.485 -1.455 3.485 -6 5 C-5.67 4.01 -5.34 3.02 -5 2 C-4.01 2.33 -3.02 2.66 -2 3 C-2 2.34 -2 1.68 -2 1 C-1.34 0.67 -0.68 0.34 0 0 Z " fill="#222221" transform="translate(432,665)"/>
<path d="M0 0 C0.33 0.66 0.66 1.32 1 2 C0.06553465 4.03144641 -0.93224776 6.03533587 -2 8 C-2.66 6.68 -3.32 5.36 -4 4 C-2.68 2.68 -1.36 1.36 0 0 Z " fill="#272625" transform="translate(645,580)"/>
<path d="M0 0 C0.66 0 1.32 0 2 0 C1.67 2.97 1.34 5.94 1 9 C-1.08954032 4.82091936 -1.16552619 4.19589427 0 0 Z " fill="#232322" transform="translate(658,534)"/>
<path d="M0 0 C0.33 0 0.66 0 1 0 C1 2.31 1 4.62 1 7 C0.34 7 -0.32 7 -1 7 C-1.33 7.66 -1.66 8.32 -2 9 C-2 7.02 -2 5.04 -2 3 C-1.34 3 -0.68 3 0 3 C0 2.01 0 1.02 0 0 Z " fill="#1F1F1E" transform="translate(832,526)"/>
<path d="M0 0 C0.33 0 0.66 0 1 0 C0.67 3.96 0.34 7.92 0 12 C-0.33 12 -0.66 12 -1 12 C-2.42857143 3.42857143 -2.42857143 3.42857143 0 0 Z " fill="#2B2B2A" transform="translate(661,521)"/>
<path d="M0 0 C1.9451 2.91765 2.45276317 4.62537285 3 8 C2.01 7.67 1.02 7.34 0 7 C-1.17755913 4.05610218 -1.03348696 3.10046087 0 0 Z " fill="#212120" transform="translate(517,453)"/>
<path d="M0 0 C0.99 0.33 1.98 0.66 3 1 C3.625 3.375 3.625 3.375 4 6 C3.34 6.66 2.68 7.32 2 8 C0.74335022 5.09399739 0 3.20395416 0 0 Z " fill="#1F1F1E" transform="translate(566,429)"/>
<path d="M0 0 C1.64826111 2.96687001 2.44271087 5.65626525 3 9 C2.01 8.67 1.02 8.34 0 8 C-0.79953138 4.71303767 -1.09658936 3.28976808 0 0 Z " fill="#21201F" transform="translate(819,374)"/>
<path d="M0 0 C2.31 1.65 4.62 3.3 7 5 C5.68 5.33 4.36 5.66 3 6 C0 2.25 0 2.25 0 0 Z " fill="#222220" transform="translate(571,311)"/>
<path d="M0 0 C0.66 0.99 1.32 1.98 2 3 C-0.83556587 4.41778293 -2.9908706 3.86257622 -6.125 3.5625 C-7.22070312 3.46066406 -8.31640625 3.35882813 -9.4453125 3.25390625 C-10.70988281 3.12822266 -10.70988281 3.12822266 -12 3 C-12 2.67 -12 2.34 -12 2 C-8.04 2 -4.08 2 0 2 C0 1.34 0 0.68 0 0 Z " fill="#302F2D" transform="translate(424,264)"/>
<path d="M0 0 C0.33 0 0.66 0 1 0 C1 1.65 1 3.3 1 5 C0.67 5 0.34 5 0 5 C0 3.35 0 1.7 0 0 Z " fill="#242323" transform="translate(576,484)"/>
<path d="M0 0 C0.99 0.33 1.98 0.66 3 1 C2.01 1.33 1.02 1.66 0 2 C0 1.34 0 0.68 0 0 Z " fill="#22231F" transform="translate(421,352)"/>
<path d="M0 0 C0.99 0.33 1.98 0.66 3 1 C2.01 1.33 1.02 1.66 0 2 C0 1.34 0 0.68 0 0 Z " fill="#272724" transform="translate(440,699)"/>
<path d="M0 0 C0.66 0.33 1.32 0.66 2 1 C1.01 1 0.02 1 -1 1 C-0.67 0.67 -0.34 0.34 0 0 Z " fill="#303231" transform="translate(246,672)"/>
<path d="M0 0 C0.66 0 1.32 0 2 0 C1.67 0.99 1.34 1.98 1 3 C0.67 2.01 0.34 1.02 0 0 Z " fill="#272624" transform="translate(216,579)"/>
<path d="M0 0 C0.66 0.66 1.32 1.32 2 2 C1.01 2.495 1.01 2.495 0 3 C0 2.01 0 1.02 0 0 Z " fill="#292826" transform="translate(208,457)"/>
<path d="M0 0 C0 3 0 3 0 3 Z " fill="#222120" transform="translate(561,422)"/>
<path d="M0 0 C0.99 0.495 0.99 0.495 2 1 C1.34 1.66 0.68 2.32 0 3 C0 2.01 0 1.02 0 0 Z " fill="#22231F" transform="translate(472,317)"/>
<path d="M0 0 C4 1 4 1 4 1 Z " fill="#292725" transform="translate(384,285)"/>
<path d="M0 0 C3 1 3 1 3 1 Z " fill="#232223" transform="translate(404,730)"/>
<path d="M0 0 C3 1 3 1 3 1 Z " fill="#232420" transform="translate(394,729)"/>
<path d="M0 0 C0.66 0.66 1.32 1.32 2 2 C1.34 2 0.68 2 0 2 C0 1.34 0 0.68 0 0 Z " fill="#2A2A27" transform="translate(273,714)"/>
<path d="M0 0 C3 1 3 1 3 1 Z " fill="#242221" transform="translate(481,703)"/>
<path d="M0 0 C3 1 3 1 3 1 Z " fill="#242322" transform="translate(479,680)"/>
<path d="M0 0 C0.66 0 1.32 0 2 0 C1.67 0.66 1.34 1.32 1 2 C0.67 1.34 0.34 0.68 0 0 Z " fill="#242322" transform="translate(321,675)"/>
<path d="M0 0 C0.99 0.495 0.99 0.495 2 1 C1.01 1.495 1.01 1.495 0 2 C0 1.34 0 0.68 0 0 Z " fill="#282726" transform="translate(232,609)"/>
<path d="" fill="#272725" transform="translate(0,0)"/>
<path d="M0 0 C0.99 0.495 0.99 0.495 2 1 C1.01 1.495 1.01 1.495 0 2 C0 1.34 0 0.68 0 0 Z " fill="#282826" transform="translate(278,369)"/>
<path d="" fill="#292726" transform="translate(0,0)"/>
<path d="M0 0 C3 1 3 1 3 1 Z " fill="#242321" transform="translate(386,346)"/>
<path d="M0 0 C0.33 0.66 0.66 1.32 1 2 C0.34 1.67 -0.32 1.34 -1 1 C-0.67 0.67 -0.34 0.34 0 0 Z " fill="#292826" transform="translate(347,344)"/>
<path d="M0 0 C0.66 0 1.32 0 2 0 C1.67 0.66 1.34 1.32 1 2 C0.67 1.34 0.34 0.68 0 0 Z " fill="#212220" transform="translate(684,254)"/>
<path d="M0 0 C2 1 2 1 2 1 Z " fill="#262423" transform="translate(571,806)"/>
<path d="M0 0 C2 1 2 1 2 1 Z " fill="#272725" transform="translate(603,798)"/>
<path d="M0 0 C2 1 2 1 2 1 Z " fill="#282626" transform="translate(701,751)"/>
<path d="" fill="#22221F" transform="translate(0,0)"/>
<path d="M0 0 C2 1 2 1 2 1 Z " fill="#21211E" transform="translate(358,723)"/>
<path d="M0 0 C2 1 2 1 2 1 Z " fill="#201F1C" transform="translate(502,720)"/>
<path d="M0 0 C2 1 2 1 2 1 Z " fill="#222320" transform="translate(324,713)"/>
<path d="M0 0 C2 1 2 1 2 1 Z " fill="#292725" transform="translate(528,712)"/>
<path d="M0 0 C2 1 2 1 2 1 Z " fill="#232320" transform="translate(306,706)"/>
<path d="M0 0 C2 1 2 1 2 1 Z " fill="#252322" transform="translate(302,704)"/>
<path d="M0 0 C2 1 2 1 2 1 Z " fill="#21211F" transform="translate(576,688)"/>
<path d="M0 0 C2 1 2 1 2 1 Z " fill="#252524" transform="translate(403,678)"/>
<path d="" fill="#232323" transform="translate(0,0)"/>
<path d="M0 0 C2 1 2 1 2 1 Z " fill="#252322" transform="translate(309,671)"/>
<path d="M0 0 C2 1 2 1 2 1 Z " fill="#272523" transform="translate(307,670)"/>
<path d="M0 0 C2 1 2 1 2 1 Z " fill="#252422" transform="translate(499,665)"/>
<path d="M0 0 C2 1 2 1 2 1 Z " fill="#23241E" transform="translate(502,664)"/>
<path d="M0 0 C2 1 2 1 2 1 Z " fill="#22221F" transform="translate(632,648)"/>
<path d="" fill="#242323" transform="translate(0,0)"/>
<path d="M0 0 C2 1 2 1 2 1 Z " fill="#1E1F1C" transform="translate(664,619)"/>
<path d="M0 0 C2 1 2 1 2 1 Z " fill="#232321" transform="translate(553,592)"/>
<path d="" fill="#21201F" transform="translate(0,0)"/>
<path d="" fill="#232222" transform="translate(0,0)"/>
<path d="" fill="#2A2828" transform="translate(0,0)"/>
<path d="" fill="#252323" transform="translate(0,0)"/>
<path d="" fill="#272625" transform="translate(0,0)"/>
<path d="" fill="#272625" transform="translate(0,0)"/>
<path d="" fill="#21211E" transform="translate(0,0)"/>
<path d="" fill="#221F1C" transform="translate(0,0)"/>
<path d="" fill="#222220" transform="translate(0,0)"/>
<path d="" fill="#282825" transform="translate(0,0)"/>
<path d="" fill="#21201E" transform="translate(0,0)"/>
<path d="" fill="#24201E" transform="translate(0,0)"/>
<path d="" fill="#1F1E1D" transform="translate(0,0)"/>
<path d="" fill="#292926" transform="translate(0,0)"/>
<path d="M0 0 C2 1 2 1 2 1 Z " fill="#282626" transform="translate(280,368)"/>
<path d="M0 0 C2 1 2 1 2 1 Z " fill="#232221" transform="translate(296,360)"/>
<path d="" fill="#22201E" transform="translate(0,0)"/>
<path d="" fill="#22211F" transform="translate(0,0)"/>
<path d="" fill="#23201E" transform="translate(0,0)"/>
<path d="" fill="#20201D" transform="translate(0,0)"/>
<path d="" fill="#21211E" transform="translate(0,0)"/>
<path d="M0 0 C2 1 2 1 2 1 Z " fill="#242321" transform="translate(464,310)"/>
<path d="M0 0 C2 1 2 1 2 1 Z " fill="#1F201F" transform="translate(563,304)"/>
<path d="M0 0 C2 1 2 1 2 1 Z " fill="#232320" transform="translate(443,300)"/>
<path d="" fill="#222321" transform="translate(0,0)"/>
<path d="M0 0 C2 1 2 1 2 1 Z " fill="#22211F" transform="translate(418,291)"/>
<path d="M0 0 C2 1 2 1 2 1 Z " fill="#2D2D2B" transform="translate(369,284)"/>
<path d="M0 0 C2 1 2 1 2 1 Z " fill="#242422" transform="translate(526,283)"/>
<path d="M0 0 C2 1 2 1 2 1 Z " fill="#252422" transform="translate(526,280)"/>
<path d="" fill="#252523" transform="translate(0,0)"/>
<path d="M0 0 C2 1 2 1 2 1 Z " fill="#272525" transform="translate(452,264)"/>
<path d="M0 0 C2 1 2 1 2 1 Z " fill="#232321" transform="translate(448,264)"/>
<path d="M0 0 C2 1 2 1 2 1 Z " fill="#2A2927" transform="translate(413,264)"/>
<path d="M0 0 C2 1 2 1 2 1 Z " fill="#292826" transform="translate(666,184)"/>
<path d="M0 0 C2 1 2 1 2 1 Z " fill="#363732" transform="translate(614,160)"/>
<path d="" fill="#272928" transform="translate(0,0)"/>
<path d="" fill="#292725" transform="translate(0,0)"/>
<path d="" fill="#2B2725" transform="translate(0,0)"/>
<path d="" fill="#292927" transform="translate(0,0)"/>
<path d="" fill="#252625" transform="translate(0,0)"/>
<path d="" fill="#272724" transform="translate(0,0)"/>
<path d="" fill="#282925" transform="translate(0,0)"/>
<path d="" fill="#272626" transform="translate(0,0)"/>
<path d="" fill="#242321" transform="translate(0,0)"/>
<path d="" fill="#282725" transform="translate(0,0)"/>
<path d="" fill="#252625" transform="translate(0,0)"/>
<path d="" fill="#282825" transform="translate(0,0)"/>
<path d="" fill="#262624" transform="translate(0,0)"/>
<path d="" fill="#282826" transform="translate(0,0)"/>
<path d="" fill="#282826" transform="translate(0,0)"/>
<path d="" fill="#282524" transform="translate(0,0)"/>
<path d="" fill="#272723" transform="translate(0,0)"/>
<path d="" fill="#262423" transform="translate(0,0)"/>
<path d="" fill="#272825" transform="translate(0,0)"/>
<path d="" fill="#282525" transform="translate(0,0)"/>
<path d="" fill="#252723" transform="translate(0,0)"/>
<path d="" fill="#292727" transform="translate(0,0)"/>
<path d="" fill="#272824" transform="translate(0,0)"/>
<path d="" fill="#2A2828" transform="translate(0,0)"/>
<path d="" fill="#292725" transform="translate(0,0)"/>
<path d="" fill="#262521" transform="translate(0,0)"/>
<path d="" fill="#272725" transform="translate(0,0)"/>
<path d="" fill="#242323" transform="translate(0,0)"/>
<path d="" fill="#282826" transform="translate(0,0)"/>
<path d="" fill="#292725" transform="translate(0,0)"/>
<path d="" fill="#292726" transform="translate(0,0)"/>
<path d="" fill="#282926" transform="translate(0,0)"/>
<path d="" fill="#1F1F1E" transform="translate(0,0)"/>
<path d="" fill="#252522" transform="translate(0,0)"/>
<path d="" fill="#242421" transform="translate(0,0)"/>
<path d="" fill="#2A2826" transform="translate(0,0)"/>
<path d="" fill="#272522" transform="translate(0,0)"/>
<path d="" fill="#222120" transform="translate(0,0)"/>
<path d="" fill="#2B2928" transform="translate(0,0)"/>
<path d="" fill="#262323" transform="translate(0,0)"/>
<path d="" fill="#292825" transform="translate(0,0)"/>
<path d="" fill="#272524" transform="translate(0,0)"/>
<path d="" fill="#282623" transform="translate(0,0)"/>
<path d="" fill="#282725" transform="translate(0,0)"/>
<path d="" fill="#262623" transform="translate(0,0)"/>
<path d="" fill="#262723" transform="translate(0,0)"/>
<path d="" fill="#272423" transform="translate(0,0)"/>
<path d="" fill="#22221F" transform="translate(0,0)"/>
<path d="" fill="#252523" transform="translate(0,0)"/>
<path d="" fill="#262522" transform="translate(0,0)"/>
<path d="" fill="#252523" transform="translate(0,0)"/>
<path d="" fill="#23221F" transform="translate(0,0)"/>
<path d="" fill="#20201F" transform="translate(0,0)"/>
<path d="" fill="#282723" transform="translate(0,0)"/>
<path d="" fill="#22211F" transform="translate(0,0)"/>
<path d="" fill="#242423" transform="translate(0,0)"/>
<path d="" fill="#262522" transform="translate(0,0)"/>
<path d="" fill="#252625" transform="translate(0,0)"/>
<path d="" fill="#222321" transform="translate(0,0)"/>
<path d="" fill="#1F1D1B" transform="translate(0,0)"/>
<path d="" fill="#252422" transform="translate(0,0)"/>
<path d="" fill="#222020" transform="translate(0,0)"/>
<path d="" fill="#232421" transform="translate(0,0)"/>
<path d="" fill="#21221F" transform="translate(0,0)"/>
<path d="" fill="#292928" transform="translate(0,0)"/>
<path d="" fill="#2D2C2B" transform="translate(0,0)"/>
<path d="" fill="#292824" transform="translate(0,0)"/>
<path d="" fill="#262724" transform="translate(0,0)"/>
<path d="" fill="#262220" transform="translate(0,0)"/>
<path d="" fill="#211E1D" transform="translate(0,0)"/>
<path d="" fill="#1F221F" transform="translate(0,0)"/>
<path d="" fill="#232320" transform="translate(0,0)"/>
<path d="" fill="#20211C" transform="translate(0,0)"/>
<path d="" fill="#232220" transform="translate(0,0)"/>
<path d="" fill="#262321" transform="translate(0,0)"/>
<path d="" fill="#292725" transform="translate(0,0)"/>
<path d="" fill="#22221F" transform="translate(0,0)"/>
<path d="" fill="#292B29" transform="translate(0,0)"/>
<path d="" fill="#292B27" transform="translate(0,0)"/>
<path d="" fill="#1E1F1B" transform="translate(0,0)"/>
<path d="" fill="#282827" transform="translate(0,0)"/>
<path d="" fill="#1F1C1C" transform="translate(0,0)"/>
<path d="" fill="#2A2A26" transform="translate(0,0)"/>
<path d="" fill="#212320" transform="translate(0,0)"/>
<path d="" fill="#242422" transform="translate(0,0)"/>
<path d="" fill="#232424" transform="translate(0,0)"/>
<path d="" fill="#22211F" transform="translate(0,0)"/>
<path d="" fill="#232020" transform="translate(0,0)"/>
<path d="" fill="#21231F" transform="translate(0,0)"/>
<path d="" fill="#232121" transform="translate(0,0)"/>
<path d="" fill="#242422" transform="translate(0,0)"/>
<path d="" fill="#252221" transform="translate(0,0)"/>
<path d="" fill="#272523" transform="translate(0,0)"/>
<path d="" fill="#222322" transform="translate(0,0)"/>
<path d="" fill="#282624" transform="translate(0,0)"/>
<path d="" fill="#282826" transform="translate(0,0)"/>
<path d="" fill="#282827" transform="translate(0,0)"/>
<path d="" fill="#222220" transform="translate(0,0)"/>
<path d="" fill="#272624" transform="translate(0,0)"/>
<path d="" fill="#1E1D1D" transform="translate(0,0)"/>
<path d="" fill="#252322" transform="translate(0,0)"/>
<path d="" fill="#272627" transform="translate(0,0)"/>
<path d="" fill="#292A27" transform="translate(0,0)"/>
<path d="" fill="#202120" transform="translate(0,0)"/>
<path d="" fill="#262624" transform="translate(0,0)"/>
<path d="" fill="#252422" transform="translate(0,0)"/>
<path d="" fill="#242121" transform="translate(0,0)"/>
<path d="" fill="#232523" transform="translate(0,0)"/>
<path d="" fill="#262723" transform="translate(0,0)"/>
<path d="" fill="#222221" transform="translate(0,0)"/>
<path d="" fill="#262623" transform="translate(0,0)"/>
<path d="" fill="#2C2A27" transform="translate(0,0)"/>
<path d="" fill="#2F2B2B" transform="translate(0,0)"/>
<path d="" fill="#262221" transform="translate(0,0)"/>
<path d="" fill="#2A2825" transform="translate(0,0)"/>
<path d="" fill="#302F2D" transform="translate(0,0)"/>
<path d="" fill="#363636" transform="translate(0,0)"/>
<path d="" fill="#212020" transform="translate(0,0)"/>
<path d="" fill="#373432" transform="translate(0,0)"/>
<path d="" fill="#202122" transform="translate(0,0)"/>
<path d="" fill="#242221" transform="translate(0,0)"/>
<path d="" fill="#262524" transform="translate(0,0)"/>
<path d="" fill="#262524" transform="translate(0,0)"/>
<path d="" fill="#363531" transform="translate(0,0)"/>
<path d="" fill="#222020" transform="translate(0,0)"/>
<path d="" fill="#272626" transform="translate(0,0)"/>
<path d="" fill="#212224" transform="translate(0,0)"/>
<path d="" fill="#232221" transform="translate(0,0)"/>
<path d="" fill="#373331" transform="translate(0,0)"/>
<path d="" fill="#242020" transform="translate(0,0)"/>
<path d="" fill="#272521" transform="translate(0,0)"/>
<path d="" fill="#252524" transform="translate(0,0)"/>
<path d="" fill="#24221F" transform="translate(0,0)"/>
<path d="" fill="#242220" transform="translate(0,0)"/>
<path d="" fill="#252321" transform="translate(0,0)"/>
<path d="" fill="#21221F" transform="translate(0,0)"/>
<path d="" fill="#23221F" transform="translate(0,0)"/>
<path d="" fill="#262624" transform="translate(0,0)"/>
<path d="" fill="#232621" transform="translate(0,0)"/>
<path d="" fill="#24221F" transform="translate(0,0)"/>
<path d="" fill="#252323" transform="translate(0,0)"/>
<path d="" fill="#252421" transform="translate(0,0)"/>
<path d="" fill="#212320" transform="translate(0,0)"/>
<path d="" fill="#222120" transform="translate(0,0)"/>
<path d="" fill="#21211E" transform="translate(0,0)"/>
<path d="" fill="#252324" transform="translate(0,0)"/>
<path d="" fill="#1F1E1A" transform="translate(0,0)"/>
<path d="" fill="#222521" transform="translate(0,0)"/>
<path d="" fill="#262927" transform="translate(0,0)"/>
<path d="" fill="#252523" transform="translate(0,0)"/>
<path d="" fill="#201F1E" transform="translate(0,0)"/>
<path d="" fill="#272524" transform="translate(0,0)"/>
<path d="" fill="#262322" transform="translate(0,0)"/>
<path d="" fill="#272725" transform="translate(0,0)"/>
<path d="" fill="#262725" transform="translate(0,0)"/>
<path d="" fill="#21201F" transform="translate(0,0)"/>
<path d="" fill="#222522" transform="translate(0,0)"/>
<path d="" fill="#222421" transform="translate(0,0)"/>
<path d="" fill="#222220" transform="translate(0,0)"/>
<path d="" fill="#24221E" transform="translate(0,0)"/>
<path d="" fill="#20201F" transform="translate(0,0)"/>
<path d="" fill="#252423" transform="translate(0,0)"/>
<path d="" fill="#262424" transform="translate(0,0)"/>
<path d="" fill="#1F1F1C" transform="translate(0,0)"/>
<path d="" fill="#222321" transform="translate(0,0)"/>
<path d="" fill="#242322" transform="translate(0,0)"/>
<path d="" fill="#292825" transform="translate(0,0)"/>
<path d="" fill="#21221E" transform="translate(0,0)"/>
<path d="" fill="#232222" transform="translate(0,0)"/>
<path d="" fill="#282828" transform="translate(0,0)"/>
<path d="" fill="#1E1D1B" transform="translate(0,0)"/>
<path d="" fill="#242322" transform="translate(0,0)"/>
<path d="" fill="#222320" transform="translate(0,0)"/>
<path d="" fill="#201F1D" transform="translate(0,0)"/>
<path d="" fill="#242220" transform="translate(0,0)"/>
<path d="" fill="#262220" transform="translate(0,0)"/>
<path d="" fill="#232423" transform="translate(0,0)"/>
<path d="" fill="#24241F" transform="translate(0,0)"/>
<path d="" fill="#272828" transform="translate(0,0)"/>
<path d="" fill="#212120" transform="translate(0,0)"/>
<path d="" fill="#242221" transform="translate(0,0)"/>
<path d="" fill="#292927" transform="translate(0,0)"/>
<path d="" fill="#22211E" transform="translate(0,0)"/>
<path d="" fill="#222120" transform="translate(0,0)"/>
<path d="" fill="#282727" transform="translate(0,0)"/>
<path d="" fill="#272524" transform="translate(0,0)"/>
<path d="" fill="#252322" transform="translate(0,0)"/>
<path d="" fill="#222320" transform="translate(0,0)"/>
<path d="" fill="#292826" transform="translate(0,0)"/>
<path d="" fill="#222322" transform="translate(0,0)"/>
<path d="" fill="#252423" transform="translate(0,0)"/>
<path d="" fill="#222123" transform="translate(0,0)"/>
<path d="" fill="#292926" transform="translate(0,0)"/>
<path d="" fill="#242424" transform="translate(0,0)"/>
<path d="" fill="#292727" transform="translate(0,0)"/>
<path d="" fill="#23221F" transform="translate(0,0)"/>
<path d="" fill="#272526" transform="translate(0,0)"/>
<path d="" fill="#24211F" transform="translate(0,0)"/>
<path d="" fill="#252722" transform="translate(0,0)"/>
<path d="" fill="#222120" transform="translate(0,0)"/>
<path d="" fill="#242320" transform="translate(0,0)"/>
<path d="" fill="#24221F" transform="translate(0,0)"/>
<path d="" fill="#252723" transform="translate(0,0)"/>
<path d="" fill="#252323" transform="translate(0,0)"/>
<path d="" fill="#1E1C1D" transform="translate(0,0)"/>
<path d="" fill="#242423" transform="translate(0,0)"/>
<path d="" fill="#292726" transform="translate(0,0)"/>
<path d="" fill="#22201E" transform="translate(0,0)"/>
<path d="" fill="#292926" transform="translate(0,0)"/>
<path d="" fill="#252220" transform="translate(0,0)"/>
<path d="" fill="#232220" transform="translate(0,0)"/>
<path d="" fill="#1F221E" transform="translate(0,0)"/>
<path d="" fill="#242524" transform="translate(0,0)"/>
<path d="" fill="#222321" transform="translate(0,0)"/>
<path d="" fill="#262524" transform="translate(0,0)"/>
<path d="" fill="#211D1E" transform="translate(0,0)"/>
<path d="" fill="#2A2A29" transform="translate(0,0)"/>
<path d="" fill="#252321" transform="translate(0,0)"/>
<path d="" fill="#2A2B29" transform="translate(0,0)"/>
<path d="" fill="#252623" transform="translate(0,0)"/>
<path d="" fill="#292828" transform="translate(0,0)"/>
<path d="" fill="#242220" transform="translate(0,0)"/>
<path d="" fill="#282A27" transform="translate(0,0)"/>
<path d="" fill="#222220" transform="translate(0,0)"/>
<path d="" fill="#20201E" transform="translate(0,0)"/>
<path d="" fill="#232221" transform="translate(0,0)"/>
<path d="" fill="#262424" transform="translate(0,0)"/>
<path d="" fill="#2A2827" transform="translate(0,0)"/>
<path d="" fill="#272826" transform="translate(0,0)"/>
<path d="" fill="#262523" transform="translate(0,0)"/>
<path d="" fill="#1F1D1C" transform="translate(0,0)"/>
<path d="" fill="#222421" transform="translate(0,0)"/>
<path d="" fill="#212222" transform="translate(0,0)"/>
<path d="" fill="#262623" transform="translate(0,0)"/>
<path d="" fill="#272324" transform="translate(0,0)"/>
<path d="" fill="#1E1C19" transform="translate(0,0)"/>
<path d="" fill="#272624" transform="translate(0,0)"/>
<path d="" fill="#222321" transform="translate(0,0)"/>
<path d="" fill="#222021" transform="translate(0,0)"/>
<path d="" fill="#22211F" transform="translate(0,0)"/>
<path d="" fill="#242321" transform="translate(0,0)"/>
<path d="" fill="#22201F" transform="translate(0,0)"/>
<path d="" fill="#222221" transform="translate(0,0)"/>
<path d="" fill="#222221" transform="translate(0,0)"/>
<path d="" fill="#292927" transform="translate(0,0)"/>
<path d="" fill="#232120" transform="translate(0,0)"/>
<path d="" fill="#242423" transform="translate(0,0)"/>
<path d="" fill="#222120" transform="translate(0,0)"/>
<path d="" fill="#242323" transform="translate(0,0)"/>
<path d="" fill="#252322" transform="translate(0,0)"/>
<path d="" fill="#242421" transform="translate(0,0)"/>
<path d="" fill="#22211F" transform="translate(0,0)"/>
<path d="" fill="#22201E" transform="translate(0,0)"/>
<path d="" fill="#20211C" transform="translate(0,0)"/>
<path d="" fill="#1E1E1B" transform="translate(0,0)"/>
<path d="" fill="#1E1E1C" transform="translate(0,0)"/>
<path d="" fill="#232321" transform="translate(0,0)"/>
<path d="" fill="#252422" transform="translate(0,0)"/>
<path d="" fill="#212120" transform="translate(0,0)"/>
<path d="" fill="#22211F" transform="translate(0,0)"/>
<path d="" fill="#252726" transform="translate(0,0)"/>
<path d="" fill="#262322" transform="translate(0,0)"/>
<path d="" fill="#2A2726" transform="translate(0,0)"/>
<path d="" fill="#292A27" transform="translate(0,0)"/>
<path d="" fill="#201F1C" transform="translate(0,0)"/>
<path d="" fill="#262522" transform="translate(0,0)"/>
<path d="" fill="#22201F" transform="translate(0,0)"/>
<path d="" fill="#20201D" transform="translate(0,0)"/>
<path d="" fill="#222221" transform="translate(0,0)"/>
<path d="" fill="#23201F" transform="translate(0,0)"/>
<path d="" fill="#272825" transform="translate(0,0)"/>
<path d="" fill="#262726" transform="translate(0,0)"/>
<path d="" fill="#292829" transform="translate(0,0)"/>
<path d="" fill="#282826" transform="translate(0,0)"/>
<path d="" fill="#222322" transform="translate(0,0)"/>
<path d="" fill="#1F201D" transform="translate(0,0)"/>
<path d="" fill="#252520" transform="translate(0,0)"/>
<path d="" fill="#22211D" transform="translate(0,0)"/>
<path d="" fill="#232120" transform="translate(0,0)"/>
<path d="" fill="#242323" transform="translate(0,0)"/>
<path d="" fill="#26231E" transform="translate(0,0)"/>
<path d="" fill="#292927" transform="translate(0,0)"/>
<path d="" fill="#272724" transform="translate(0,0)"/>
<path d="" fill="#272926" transform="translate(0,0)"/>
<path d="" fill="#292B27" transform="translate(0,0)"/>
<path d="" fill="#20221E" transform="translate(0,0)"/>
<path d="" fill="#252621" transform="translate(0,0)"/>
<path d="" fill="#262723" transform="translate(0,0)"/>
<path d="" fill="#212121" transform="translate(0,0)"/>
<path d="" fill="#262624" transform="translate(0,0)"/>
<path d="" fill="#292722" transform="translate(0,0)"/>
<path d="" fill="#252521" transform="translate(0,0)"/>
<path d="" fill="#262522" transform="translate(0,0)"/>
<path d="" fill="#272624" transform="translate(0,0)"/>
<path d="" fill="#272423" transform="translate(0,0)"/>
<path d="" fill="#211F1D" transform="translate(0,0)"/>
<path d="" fill="#242422" transform="translate(0,0)"/>
<path d="" fill="#201F1D" transform="translate(0,0)"/>
<path d="" fill="#232322" transform="translate(0,0)"/>
<path d="" fill="#22221E" transform="translate(0,0)"/>
<path d="" fill="#282523" transform="translate(0,0)"/>
<path d="" fill="#21201D" transform="translate(0,0)"/>
<path d="" fill="#20201D" transform="translate(0,0)"/>
<path d="" fill="#222321" transform="translate(0,0)"/>
<path d="" fill="#222321" transform="translate(0,0)"/>
<path d="" fill="#222120" transform="translate(0,0)"/>
<path d="" fill="#232623" transform="translate(0,0)"/>
<path d="" fill="#252325" transform="translate(0,0)"/>
<path d="" fill="#232521" transform="translate(0,0)"/>
<path d="" fill="#22221F" transform="translate(0,0)"/>
<path d="" fill="#212420" transform="translate(0,0)"/>
<path d="" fill="#262523" transform="translate(0,0)"/>
<path d="" fill="#1E1E1C" transform="translate(0,0)"/>
<path d="" fill="#222121" transform="translate(0,0)"/>
<path d="" fill="#242321" transform="translate(0,0)"/>
<path d="" fill="#1F201C" transform="translate(0,0)"/>
<path d="" fill="#232221" transform="translate(0,0)"/>
<path d="" fill="#21201E" transform="translate(0,0)"/>
<path d="" fill="#242323" transform="translate(0,0)"/>
<path d="" fill="#232320" transform="translate(0,0)"/>
<path d="" fill="#23211F" transform="translate(0,0)"/>
<path d="" fill="#242421" transform="translate(0,0)"/>
<path d="" fill="#232220" transform="translate(0,0)"/>
<path d="" fill="#232422" transform="translate(0,0)"/>
<path d="" fill="#242120" transform="translate(0,0)"/>
<path d="" fill="#252321" transform="translate(0,0)"/>
<path d="" fill="#252423" transform="translate(0,0)"/>
<path d="" fill="#272525" transform="translate(0,0)"/>
<path d="" fill="#262522" transform="translate(0,0)"/>
<path d="" fill="#252523" transform="translate(0,0)"/>
<path d="" fill="#23211E" transform="translate(0,0)"/>
<path d="" fill="#262522" transform="translate(0,0)"/>
<path d="" fill="#201F1D" transform="translate(0,0)"/>
<path d="" fill="#262524" transform="translate(0,0)"/>
<path d="" fill="#25221F" transform="translate(0,0)"/>
<path d="" fill="#272624" transform="translate(0,0)"/>
<path d="" fill="#2B2928" transform="translate(0,0)"/>
<path d="" fill="#292827" transform="translate(0,0)"/>
<path d="" fill="#2C2E2C" transform="translate(0,0)"/>
<path d="" fill="#302F2D" transform="translate(0,0)"/>
<path d="" fill="#282723" transform="translate(0,0)"/>
<path d="" fill="#373735" transform="translate(0,0)"/>
<path d="" fill="#232521" transform="translate(0,0)"/>
<path d="" fill="#262521" transform="translate(0,0)"/>
<path d="" fill="#272524" transform="translate(0,0)"/>
<path d="" fill="#282624" transform="translate(0,0)"/>
<path d="" fill="#262625" transform="translate(0,0)"/>
<path d="" fill="#272626" transform="translate(0,0)"/>
<path d="" fill="#292A29" transform="translate(0,0)"/>
<path d="" fill="#282925" transform="translate(0,0)"/>
<path d="" fill="#272724" transform="translate(0,0)"/>
<path d="" fill="#2A2B27" transform="translate(0,0)"/>
<path d="" fill="#292A27" transform="translate(0,0)"/>
<path d="" fill="#2A2C28" transform="translate(0,0)"/>
<path d="" fill="#252523" transform="translate(0,0)"/>
<path d="" fill="#262321" transform="translate(0,0)"/>
<path d="" fill="#222220" transform="translate(0,0)"/>
<path d="" fill="#262321" transform="translate(0,0)"/>
<path d="" fill="#242322" transform="translate(0,0)"/>
<path d="" fill="#262323" transform="translate(0,0)"/>
<path d="" fill="#272423" transform="translate(0,0)"/>
<path d="" fill="#262525" transform="translate(0,0)"/>
<path d="" fill="#272625" transform="translate(0,0)"/>
<path d="" fill="#252523" transform="translate(0,0)"/>
<path d="" fill="#242121" transform="translate(0,0)"/>
<path d="" fill="#242520" transform="translate(0,0)"/>
<path d="" fill="#24241F" transform="translate(0,0)"/>
<path d="" fill="#232120" transform="translate(0,0)"/>
<path d="" fill="#272525" transform="translate(0,0)"/>
<path d="" fill="#262122" transform="translate(0,0)"/>
<path d="" fill="#252524" transform="translate(0,0)"/>
<path d="" fill="#272423" transform="translate(0,0)"/>
<path d="" fill="#252324" transform="translate(0,0)"/>
<path d="" fill="#272726" transform="translate(0,0)"/>
<path d="" fill="#252726" transform="translate(0,0)"/>
<path d="" fill="#232422" transform="translate(0,0)"/>
<path d="" fill="#2A2726" transform="translate(0,0)"/>
<path d="" fill="#282726" transform="translate(0,0)"/>
<path d="" fill="#262523" transform="translate(0,0)"/>
<path d="" fill="#252722" transform="translate(0,0)"/>
<path d="" fill="#2C2D2A" transform="translate(0,0)"/>
<path d="" fill="#282925" transform="translate(0,0)"/>
<path d="" fill="#2E2B2B" transform="translate(0,0)"/>
<path d="" fill="#292A29" transform="translate(0,0)"/>
<path d="" fill="#3A3A39" transform="translate(0,0)"/>
<path d="" fill="#343634" transform="translate(0,0)"/>
<path d="" fill="#3B3B39" transform="translate(0,0)"/>
<path d="" fill="#3F3F40" transform="translate(0,0)"/>
<path d="" fill="#434344" transform="translate(0,0)"/>
<path d="" fill="#444543" transform="translate(0,0)"/>
</svg>
